<svg width="52" height="52" viewBox="0 0 52 52" fill="none" xmlns="http://www.w3.org/2000/svg">
  <path
    d="M29.8293 45.2161C41.9423 41.5982 48.8289 28.8457 45.211 16.7327C41.593 4.61962 28.8405 -2.26699 16.7275 1.35096C4.61447 4.96892 -2.27214 17.7214 1.34581 29.8344C4.96377 41.9475 17.7163 48.8341 29.8293 45.2161Z"
    fill="#A0DDF5" stroke="#231F20" stroke-width="0.77" stroke-miterlimit="10" />
  <mask id="mask0_790_233" style="mask-type:luminance" maskUnits="userSpaceOnUse" x="0" y="0"
    width="46" height="46">
    <path
      d="M29.6975 44.7753C41.5671 41.2301 48.3153 28.7339 44.7701 16.8643C41.2248 4.99466 28.7286 -1.75356 16.859 1.79169C4.9894 5.33694 -1.75882 17.8332 1.78643 29.7028C5.33168 41.5724 17.8279 48.3206 29.6975 44.7753Z"
      fill="white" />
  </mask>
  <g mask="url(#mask0_790_233)">
    <path
      d="M4.99889 12.5001L6.27889 12.7101C6.27889 12.7101 6.32889 12.7101 6.35889 12.6901C6.62889 12.5101 6.96889 12.5101 7.23889 12.6901L7.51889 12.8701C7.51889 12.8701 7.54889 12.8801 7.55889 12.8901L9.40889 13.1401C9.40889 13.1401 9.47889 13.1401 9.49889 13.1101L9.89889 12.6701C9.89889 12.6701 9.93889 12.5601 9.89889 12.5201L9.38889 12.0301C9.38889 12.0301 9.34889 11.9601 9.35889 11.9201L9.53889 11.4301C9.53889 11.4301 9.59889 11.3601 9.64889 11.3601L10.2389 11.4401C10.2389 11.4401 10.3289 11.4901 10.3289 11.5301L10.3989 12.2501C10.3989 12.2501 10.3989 12.2701 10.3989 12.2801L10.6989 12.9301C10.7289 13.0001 10.8189 13.0101 10.8689 12.9601L10.9989 12.8201C11.0589 12.7501 11.1689 12.7901 11.1789 12.8801L11.2389 13.4501C11.2389 13.5401 11.3489 13.5801 11.4189 13.5201L11.8789 13.0801C11.8789 13.0801 11.9189 13.0101 11.9089 12.9801L11.8289 12.6701C11.8089 12.5801 11.8989 12.5101 11.9789 12.5501L12.7989 12.9501C12.8789 12.9901 12.8789 13.1001 12.7989 13.1401L12.6989 13.1901C12.6989 13.1901 12.6289 13.2701 12.6489 13.3201L12.7989 13.7101C12.7989 13.7101 12.7989 13.8101 12.7589 13.8301L12.1489 14.2601C12.1489 14.2601 12.0989 14.3301 12.1089 14.3701L12.2289 14.8201C12.2289 14.8201 12.2289 14.9101 12.1789 14.9401L11.7889 15.1701C11.7889 15.1701 11.6989 15.1901 11.6689 15.1601L11.3889 14.9201C11.3889 14.9201 11.3489 14.8501 11.3589 14.8101L11.4189 14.6001C11.4489 14.5001 11.3189 14.4201 11.2489 14.5001L11.0989 14.6401C11.0989 14.6401 11.0789 14.6501 11.0689 14.6601L10.5189 14.9001C10.4689 14.9201 10.4389 14.9901 10.4689 15.0401L10.5189 15.1601C10.5589 15.2401 10.4889 15.3201 10.3989 15.3101L10.0889 15.2401C10.0889 15.2401 10.0289 15.2401 10.0089 15.2501L9.25889 15.7501C9.25889 15.7501 9.20889 15.8001 9.20889 15.8401L9.22889 16.4401C9.22889 16.5201 9.30889 16.5601 9.37889 16.5301C9.44889 16.4901 9.53889 16.5501 9.52889 16.6301L9.49889 17.0801C9.49889 17.1401 9.54889 17.2001 9.60889 17.1901L9.89889 17.1701C9.89889 17.1701 9.93889 17.1701 9.94889 17.1701L11.7589 18.0101C11.7589 18.0101 11.8189 18.0601 11.8189 18.1001L11.8489 18.8101C11.8489 18.8101 11.8589 18.8601 11.8789 18.8801L12.3989 19.3601C12.4689 19.4201 12.5689 19.3801 12.5789 19.2901L12.6089 18.5201L13.3189 18.0501C13.3189 18.0501 13.3789 17.9701 13.3589 17.9201L12.9889 17.1101C12.9889 17.1101 12.9889 17.0101 13.0189 16.9801L13.3089 16.7601C13.3089 16.7601 13.3589 16.6801 13.3389 16.6301L12.9889 15.9101C12.9589 15.8501 12.9889 15.7701 13.0689 15.7601L14.1089 15.5701C14.1089 15.5701 14.1689 15.5701 14.1889 15.5901L15.3489 16.4001C15.3489 16.4001 15.4089 16.4801 15.3889 16.5201L15.2189 16.9401C15.2189 16.9401 15.2189 17.0001 15.2189 17.0201L15.3889 17.3601C15.3889 17.3601 15.4589 17.4301 15.5089 17.4101L16.0789 17.2501C16.0789 17.2501 16.1289 17.2201 16.1389 17.2001L16.3189 16.8801C16.3589 16.8001 16.4789 16.8101 16.5089 16.9001L16.9589 18.3701C16.9589 18.3701 16.9789 18.4201 17.0089 18.4301L17.6789 18.8401L18.6489 19.7701C18.6989 19.8201 18.6889 19.9001 18.6289 19.9401L17.9489 20.3401C17.9489 20.3401 17.9289 20.3501 17.9089 20.3501L16.9489 20.5101C16.9489 20.5101 16.9289 20.5101 16.9189 20.5101L15.9789 20.9601C15.9789 20.9601 15.9089 21.0301 15.9189 21.0801L16.0089 21.4801C16.0089 21.4801 16.0689 21.5601 16.1189 21.5601L16.8789 21.5301C16.9489 21.5301 16.9989 21.5801 16.9889 21.6501L16.9589 21.9001C16.9589 21.9001 16.9189 21.9901 16.8689 21.9901L16.1189 22.0701C16.1189 22.0701 16.0889 22.0701 16.0689 22.0901L15.4789 22.5101C15.4189 22.5501 15.3289 22.5101 15.3089 22.4401L15.2789 22.2601C15.2789 22.2601 15.2789 22.2001 15.2989 22.1801L15.4789 21.9301C15.5389 21.8501 15.4689 21.7501 15.3689 21.7601L14.5189 21.9201C14.5189 21.9201 14.4589 21.9501 14.4489 21.9801L14.1489 22.5601C14.1489 22.5601 14.1089 22.6101 14.0789 22.6101L13.3989 22.7701C13.3989 22.7701 13.3389 22.8001 13.3289 22.8401L12.8389 24.1501C12.8389 24.1501 12.8089 24.2001 12.7789 24.2101L11.5189 24.7001C11.5189 24.7001 11.4489 24.7601 11.4489 24.8001L11.5289 26.2501C11.5289 26.2501 11.5289 26.3001 11.5089 26.3201L11.3089 26.5801C11.2589 26.6501 11.1489 26.6301 11.1289 26.5401L10.8589 25.6101C10.8589 25.6101 10.8189 25.5501 10.7889 25.5401L9.27889 25.1201C9.18889 25.1001 9.11889 25.1801 9.15889 25.2701C9.19889 25.3601 9.09889 25.4601 9.00889 25.4101L8.39889 25.0801C8.39889 25.0801 8.32889 25.0601 8.28889 25.0801L6.97889 25.9101C6.97889 25.9101 6.91889 25.9801 6.92889 26.0201L7.25889 27.6201C7.25889 27.6201 7.28889 27.6901 7.32889 27.7001L8.17889 28.0001C8.17889 28.0001 8.25889 28.0001 8.28889 27.9801L8.74889 27.5401C8.74889 27.5401 8.78889 27.5101 8.81889 27.5101L9.48889 27.4701C9.55889 27.4701 9.61889 27.5301 9.59889 27.6001L9.34889 28.6601C9.33889 28.7201 9.36889 28.7701 9.42889 28.7901L10.2689 28.9701C10.3289 28.9801 10.3689 29.0501 10.3489 29.1101L10.0289 30.0901L10.2889 30.6701L11.4689 30.9001C11.6089 30.9301 11.7489 30.8901 11.8589 30.8001L12.1789 30.5301C12.2789 30.4501 12.4089 30.4101 12.5389 30.4201L13.1789 30.5101C13.2689 30.5201 13.3589 30.5601 13.4289 30.6201L13.5789 30.7501C13.6789 30.8401 13.8189 30.8801 13.9589 30.8601L14.6689 30.7601C14.7889 30.7401 14.8989 30.7701 14.9989 30.8401L17.3989 32.4701C17.4889 32.5301 17.5589 32.6201 17.5889 32.7301L17.8489 33.6401C17.8889 33.7801 17.9889 33.8901 18.1189 33.9401L21.3089 35.2901C21.4989 35.3701 21.6189 35.5701 21.5889 35.7801L21.4889 36.5601C21.4689 36.7101 21.3789 36.8401 21.2489 36.9101L20.3789 37.3901C20.2689 37.4501 20.1889 37.5501 20.1589 37.6701L19.5989 39.5101C19.5489 39.6801 19.4089 39.8001 19.2289 39.8301L17.7389 40.1001C17.6089 40.1201 17.4989 40.2001 17.4289 40.3101L16.1189 42.3901C16.0289 42.5301 15.8689 42.6201 15.6989 42.6101L15.4089 42.5901C15.1689 42.5801 14.9489 42.7501 14.9189 42.9901C14.8989 43.1501 14.7989 43.2801 14.6489 43.3501L12.9689 44.1301C12.8789 44.1701 12.7989 44.2501 12.7489 44.3401L11.5489 46.6601C11.4989 46.7501 11.4889 46.8601 11.4989 46.9601L11.6189 47.6601C11.6889 48.0301 11.2989 48.3301 10.9589 48.1601L10.6489 48.0101C10.4889 47.9401 10.3889 47.7801 10.3789 47.6101L10.2289 44.6301C10.2289 44.5801 10.2289 44.5301 10.2489 44.4801L11.3689 40.6201L12.1189 38.0901C12.1689 37.9101 12.1189 37.7201 11.9689 37.6001L11.3089 37.0401C11.2589 36.9901 11.2089 36.9401 11.1889 36.8701L10.1489 34.5301C10.1189 34.4601 10.1089 34.3801 10.1089 34.3101L10.1689 33.4601C10.1789 33.3001 10.2689 33.1601 10.4089 33.0801L11.2289 32.6301C11.3589 32.5601 11.4489 32.4301 11.4689 32.2801L11.5289 31.8401C11.5589 31.5801 11.3789 31.3501 11.1289 31.3101L10.7189 31.2501C10.6489 31.2501 10.5789 31.2101 10.5189 31.1701L9.61889 30.5601L9.19889 29.6501L8.28889 29.5301L7.62889 28.8401C7.62889 28.8401 7.60889 28.8201 7.59889 28.8201L5.25889 27.6801C5.25889 27.6801 5.21889 27.6501 5.20889 27.6301L4.13889 25.2001C4.08889 25.0801 3.90889 25.1401 3.93889 25.2601L4.03889 25.7401C4.05889 25.8601 3.89889 25.9201 3.84889 25.8101L2.66889 23.7701L1.23889 21.1901L1.93889 18.8101L-0.121114 17.2701L-1.17111 15.2801L-3.28111 14.2501C-3.28111 14.2501 -3.37111 14.2201 -3.42111 14.2301L-5.76111 14.6501C-5.76111 14.6501 -5.81111 14.6501 -5.83111 14.6501L-6.56111 14.5501C-6.56111 14.5501 -6.65111 14.5301 -6.68111 14.5001L-7.96111 13.4001C-8.08111 13.2901 -8.06111 13.0901 -7.91111 13.0201L-6.85111 12.5001C-6.69111 12.4201 -6.68111 12.2001 -6.83111 12.1001L-7.13111 11.9001C-7.33111 11.7701 -7.22111 11.4501 -6.97111 11.4801C-6.73111 11.5101 -6.61111 11.2001 -6.81111 11.0601L-7.37111 10.6801C-7.54111 10.5601 -7.48111 10.3001 -7.28111 10.2601L-5.86111 10.0101C-5.35111 9.9201 -4.82111 9.9601 -4.32111 10.1101L-1.16111 11.0901C-0.571114 11.2701 0.0588865 11.2701 0.638886 11.0901H0.648886C1.31889 10.8901 2.02889 10.9201 2.67889 11.1701L4.83889 12.0301C4.83889 12.0301 4.89889 12.0801 4.90889 12.1201V12.3701C4.90889 12.3701 4.95889 12.4601 5.00889 12.4701L4.99889 12.5001ZM11.4989 10.9701L11.4289 11.1101C11.3089 11.3601 11.4089 11.6501 11.6589 11.7701L13.4089 12.5501C13.4689 12.5701 13.5089 12.6101 13.5589 12.6501L14.0989 13.2001C14.1989 13.3001 14.2489 13.4301 14.2389 13.5701L14.1589 14.6601C14.1489 14.8201 14.2189 14.9801 14.3489 15.0801L15.7489 16.1501C15.9789 16.3301 16.3089 16.2601 16.4589 16.0101L16.6989 15.5901C16.7289 15.5401 16.7689 15.4901 16.8189 15.4501L17.2389 15.1101C17.5089 14.8901 17.4689 14.4701 17.1589 14.3101L16.5989 14.0301C16.4189 13.9401 16.3189 13.7401 16.3389 13.5401C16.3589 13.3701 16.2889 13.2001 16.1589 13.1001L14.8789 12.1101C14.8789 12.1101 14.7989 12.0401 14.7689 11.9901L14.2589 11.2001C14.1789 11.0801 14.0589 11.0001 13.9189 10.9801L11.9889 10.7201C11.7889 10.6901 11.5889 10.8001 11.4989 10.9801V10.9701ZM10.4489 10.5001L10.1389 10.4601C9.98889 10.4401 9.85889 10.5401 9.83889 10.6901L9.81889 10.8101C9.79889 10.9601 9.89889 11.0901 10.0489 11.1101L10.2489 11.1401C10.3289 11.1501 10.3989 11.1301 10.4589 11.0801L10.5889 10.9701C10.7689 10.8201 10.6789 10.5301 10.4489 10.5001ZM9.06889 11.4301L9.38889 11.1501C9.45889 11.0901 9.48889 10.9901 9.46889 10.8901L9.40889 10.5901C9.37889 10.4501 9.24889 10.3601 9.11889 10.3801L8.47889 10.4501C8.26889 10.4701 8.16889 10.7201 8.29889 10.8801L8.68889 11.3901C8.78889 11.5201 8.96889 11.5301 9.07889 11.4301H9.06889ZM5.52889 10.1501L3.36889 9.3401C3.15889 9.2601 2.92889 9.3401 2.80889 9.5201L2.63889 9.7801C2.51889 9.9601 2.52889 10.2101 2.67889 10.3701L2.75889 10.4601C2.85889 10.5701 3.00889 10.6301 3.15889 10.6101L3.50889 10.5701C3.62889 10.5601 3.74889 10.5901 3.83889 10.6601L4.28889 10.9801C4.28889 10.9801 4.35889 11.0301 4.37889 11.0701L5.02889 11.8801C5.12889 12.0101 5.29889 12.0801 5.46889 12.0501L6.46889 11.9101C6.55889 11.9001 6.64889 11.9101 6.73889 11.9501L7.53889 12.3301C7.65889 12.3901 7.80889 12.3901 7.92889 12.3301C8.23889 12.2001 8.30889 11.7901 8.07889 11.5601L7.69889 11.1801C7.61889 11.1001 7.57889 11.0001 7.55889 10.9001L7.51889 10.5401C7.48889 10.2901 7.27889 10.1101 7.02889 10.1201L5.70889 10.1801C5.64889 10.1801 5.57889 10.1801 5.51889 10.1501H5.52889ZM3.79889 8.5301L5.43889 9.5101C5.43889 9.5101 5.52889 9.5501 5.57889 9.5401L6.84889 9.4401C7.08889 9.4201 7.13889 9.0801 6.90889 9.0001L5.85889 8.6001C5.85889 8.6001 5.82889 8.5901 5.80889 8.5801L4.85889 7.9401C4.80889 7.9001 4.73889 7.8901 4.66889 7.9101L3.85889 8.1201C3.65889 8.1701 3.62889 8.4401 3.79889 8.5401V8.5301ZM5.73889 7.9901L5.78889 8.0601C5.84889 8.1501 5.94889 8.2001 6.04889 8.1801L6.63889 8.1001C6.75889 8.0801 6.84889 7.9901 6.86889 7.8701V7.7901C6.89889 7.6101 6.74889 7.4601 6.57889 7.4901L5.93889 7.5801C5.74889 7.6101 5.63889 7.8301 5.74889 7.9901H5.73889ZM8.33889 9.0001L8.82889 9.6901C8.82889 9.6901 8.90889 9.7701 8.96889 9.7901L9.76889 10.0401C9.96889 10.1001 10.1689 9.9201 10.1089 9.7101L10.0589 9.5401C10.0289 9.4401 9.93889 9.3601 9.83889 9.3401L9.60889 9.3101C9.50889 9.3001 9.42889 9.2301 9.38889 9.1401L9.25889 8.8001C9.21889 8.7101 9.13889 8.6401 9.03889 8.6301L8.58889 8.5701C8.35889 8.5401 8.19889 8.8001 8.32889 8.9901L8.33889 9.0001ZM10.8189 10.2601L13.6589 10.6401C13.7089 10.6401 13.7589 10.6101 13.7689 10.5601L13.8389 10.0601C13.8389 10.0601 13.8089 9.9601 13.7689 9.9501L12.9989 9.7601C12.9989 9.7601 12.9689 9.7601 12.9589 9.7601L11.7389 9.9601C11.7389 9.9601 11.6489 9.9401 11.6289 9.9001L11.5189 9.6501C11.4989 9.6001 11.5189 9.5401 11.5789 9.5201L11.9989 9.3701C11.9989 9.3701 12.0389 9.3701 12.0589 9.3701L14.0489 9.8801C14.1089 9.8901 14.1589 9.8601 14.1689 9.8001L14.2289 9.3601C14.2289 9.3601 14.2489 9.3101 14.2689 9.2901L15.1289 8.7001C15.1989 8.6501 15.1789 8.5401 15.0889 8.5201C14.9789 8.5101 14.9789 8.3601 15.0789 8.3301L15.8189 8.1401C15.8189 8.1401 15.8189 8.1401 15.8289 8.1401L17.1289 7.6501L18.5089 7.2901C18.5989 7.2701 18.6089 7.1401 18.5089 7.1001L15.8089 6.1001C15.8089 6.1001 15.7789 6.1001 15.7689 6.1001L11.4689 6.3401C11.3889 6.3401 11.3489 6.4401 11.3989 6.5001L11.7789 6.9201C11.7789 6.9201 11.8089 6.9501 11.8289 6.9501L13.3589 7.2901C13.3589 7.2901 13.3789 7.2901 13.3889 7.2901L13.7189 7.2401C13.8389 7.2201 13.8789 7.3901 13.7689 7.4301L13.2989 7.6101C13.2989 7.6101 13.2689 7.6101 13.2589 7.6101L12.4989 7.5501C12.4989 7.5501 12.4689 7.5501 12.4589 7.5401L11.1889 6.9001C11.1889 6.9001 11.1689 6.9001 11.1689 6.8801L10.7489 6.4801C10.7489 6.4801 10.6889 6.4501 10.6589 6.4601L9.55889 6.7601C9.48889 6.7801 9.46889 6.8601 9.50889 6.9101L10.1789 7.8401C10.1789 7.8401 10.1989 7.8601 10.2089 7.8701L11.2689 8.4401C11.2689 8.4401 11.3189 8.4601 11.3489 8.4401L12.1789 8.1701C12.2789 8.1401 12.3489 8.2601 12.2789 8.3301L11.8489 8.7701C11.8489 8.7701 11.8289 8.7901 11.8089 8.7901L10.9189 9.1201C10.9189 9.1201 10.8589 9.1201 10.8389 9.1201L9.93889 8.6001C9.87889 8.5701 9.79889 8.6001 9.78889 8.6701L9.74889 8.9701C9.74889 8.9701 9.76889 9.0601 9.80889 9.0701L10.5289 9.3501C10.5289 9.3501 10.5889 9.3901 10.5889 9.4201L10.7189 10.1501C10.7189 10.1501 10.7589 10.2201 10.7989 10.2301L10.8189 10.2601ZM7.79889 7.9401C7.82889 7.9901 7.87889 8.0301 7.93889 8.0501L8.65889 8.2801C8.87889 8.3501 9.07889 8.1301 8.98889 7.9201L8.94889 7.8301C8.91889 7.7501 8.83889 7.6901 8.75889 7.6701L8.07889 7.5201C7.84889 7.4701 7.66889 7.7301 7.79889 7.9301V7.9401ZM9.48889 8.0401V8.0701C9.51889 8.1801 9.60889 8.2601 9.71889 8.2801H9.73889C9.95889 8.3101 10.1189 8.0801 10.0089 7.8801L9.98889 7.8501C9.94889 7.7801 9.86889 7.7201 9.78889 7.7101H9.77889C9.58889 7.6801 9.43889 7.8501 9.47889 8.0401H9.48889ZM16.5289 10.2501L18.1989 10.5501C18.2889 10.5701 18.3689 10.6201 18.4289 10.6901L20.0189 12.6901C20.0689 12.7601 20.0989 12.8301 20.0989 12.9201L20.1789 16.6201C20.1789 16.6901 20.1989 16.7601 20.2389 16.8201L20.6689 17.4601C20.8189 17.6901 21.1589 17.6901 21.3089 17.4601L22.1789 16.1201C22.2589 16.0001 22.3989 15.9301 22.5489 15.9501L23.2289 16.0401C23.3389 16.0501 23.4389 16.0201 23.5289 15.9501L24.3889 15.2201C24.3889 15.2201 24.4989 15.1501 24.5589 15.1401L26.3989 14.7501C26.4889 14.7301 26.5689 14.6801 26.6289 14.6001L28.0289 12.7101C28.0889 12.6301 28.1189 12.5201 28.0989 12.4201L27.7889 10.7001C27.7589 10.5301 27.8489 10.3501 28.0089 10.2801L29.6789 9.5601C29.9989 9.4201 29.9789 8.9701 29.6589 8.8501L28.3089 8.3601C28.3089 8.3601 28.2889 8.3601 28.2789 8.3601L24.3389 7.2601C24.3389 7.2601 24.2589 7.2401 24.2189 7.2501L19.4289 7.4501C19.3689 7.4501 19.3089 7.4701 19.2589 7.5001L17.6389 8.3901C17.6389 8.3901 17.5589 8.4201 17.5189 8.4301L16.0889 8.6901C15.8389 8.7401 15.6989 9.0101 15.8189 9.2401L16.2389 10.0501C16.2889 10.1501 16.3889 10.2301 16.5089 10.2501H16.5289ZM26.3289 16.0101L27.3589 17.0201L28.7889 17.2101L29.6289 16.2401L27.6689 15.6901L26.3389 16.0101H26.3289ZM28.5589 27.2701L28.1089 27.6701C28.1089 27.6701 28.0789 27.7001 28.0689 27.7101L26.5889 29.2001C26.3289 29.4601 26.2389 29.8301 26.3489 30.1801L26.3989 30.3401C26.4889 30.6201 26.4389 30.9301 26.2789 31.1801C26.0389 31.5301 26.0589 31.9901 26.3189 32.3201L27.5789 33.9501C27.7389 34.1501 27.9689 34.2901 28.2189 34.3201L29.0489 34.4301L29.4489 34.4801C29.5889 34.5001 29.7389 34.4801 29.8789 34.4401L30.8089 34.1401C30.8689 34.1201 30.9389 34.1401 30.9789 34.1901L31.4689 34.7101C31.4689 34.7101 31.5289 34.7601 31.5689 34.7601L32.0189 34.8201C32.1089 34.8301 32.1789 34.9201 32.1589 35.0101L31.9989 36.2001C31.9889 36.2801 31.9989 36.3601 32.0189 36.4301L32.6289 38.2201C32.6689 38.3401 32.6589 38.4801 32.6089 38.6001L31.9989 39.8801C31.9489 40.0001 31.9389 40.1301 31.9789 40.2501L32.2789 41.1901C32.2989 41.2601 32.3089 41.3401 32.2989 41.4101L32.1789 42.3101C32.1689 42.4101 32.1789 42.5101 32.2289 42.6001L33.2189 44.6301C33.2889 44.7801 33.4389 44.8801 33.5989 44.9101L35.0389 45.1001C35.1989 45.1201 35.3589 45.0601 35.4689 44.9501L36.4889 43.8701C36.5589 43.7901 36.6089 43.7001 36.6189 43.5901L36.6689 43.2101C36.6989 42.9901 36.8689 42.8101 37.0889 42.7801L37.2289 42.7601C37.4489 42.7301 37.6289 42.5501 37.6489 42.3301L37.7189 41.8101C37.7389 41.6801 37.8089 41.5601 37.9089 41.4801L38.9689 40.6701C39.0789 40.5901 39.1489 40.4701 39.1589 40.3401L39.3289 39.0801C39.3389 38.9901 39.3289 38.9101 39.2989 38.8201L39.1189 38.3801C39.0289 38.1701 39.0989 37.9201 39.2889 37.7901L41.4989 36.1501C41.5689 36.0901 41.6289 36.0201 41.6689 35.9401L41.9689 35.2001C42.1489 34.7501 41.7889 34.2801 41.3089 34.3301C40.9489 34.3701 40.5989 34.1901 40.4189 33.8701L40.2089 33.5101L39.5789 33.0501L38.9089 30.0001C38.8989 29.9401 38.9689 29.9101 39.0089 29.9601L40.1389 31.7501L40.6289 33.2301C40.7789 33.6801 41.2389 33.9401 41.6989 33.8401L43.6789 33.3901C43.7489 33.3701 43.8089 33.3401 43.8489 33.2801L44.5189 32.3801C44.5889 32.2901 44.5889 32.1701 44.5389 32.0701L44.1089 31.3101C44.0389 31.1801 43.8789 31.1301 43.7389 31.1901L43.1289 31.4801C42.9789 31.5501 42.7989 31.4801 42.7389 31.3201L42.3189 30.1601C42.2489 29.9601 42.4089 29.7501 42.6289 29.7801C42.7189 29.7901 42.7989 29.8501 42.8489 29.9301L43.1489 30.5301C43.1989 30.6201 43.2789 30.6801 43.3789 30.6801L44.2089 30.7401C44.2889 30.7401 44.3689 30.7901 44.4089 30.8501L44.6889 31.2101C44.7389 31.2701 44.7989 31.3101 44.8789 31.3201L46.3589 31.5201C46.4389 31.5301 46.5089 31.5701 46.5589 31.6401L47.4589 32.9401C47.4589 32.9401 47.4889 32.9901 47.4989 33.0201L48.3189 35.7601C48.3889 35.9801 48.6789 36.0401 48.8189 35.8501L49.8189 34.5301C49.8189 34.5301 49.8689 34.4701 49.8989 34.4601L52.2189 33.1101C52.3889 33.0101 52.5989 33.1101 52.6389 33.3001L52.8489 34.3501C52.8789 34.4801 52.9989 34.5801 53.1289 34.5801H53.4389C53.5889 34.5801 53.7189 34.6901 53.7289 34.8401L53.7989 35.7301C53.7989 35.7301 53.7989 35.7701 53.7989 35.7901L53.6989 36.5101C53.6989 36.5101 53.6989 36.5901 53.6989 36.6301L54.0089 37.6901C54.0089 37.6901 54.0389 37.7501 54.0589 37.7801L54.1989 37.9601C54.3789 38.1901 54.7489 38.0301 54.7089 37.7401L54.6189 37.1801C54.6189 37.1801 54.5989 37.1101 54.5789 37.0701L54.1989 36.4601C54.1689 36.4001 54.1489 36.3401 54.1589 36.2701C54.1989 35.9901 54.5789 35.9301 54.6989 36.1901L54.9789 36.7701C55.0589 36.9301 55.2489 36.9801 55.3989 36.8801L56.3589 36.2101C56.4489 36.1501 56.5089 36.0501 56.5189 35.9401L56.5889 35.4301C56.6089 35.2901 56.5489 35.1501 56.4389 35.0701L56.0589 34.7801C55.8789 34.6401 55.8489 34.3701 56.0089 34.2001L56.0389 34.1701C56.1589 34.0401 56.3389 34.0101 56.4889 34.0801L56.9989 34.3201C57.1089 34.3701 57.2389 34.3701 57.3489 34.3201L59.3289 33.2901C59.4189 33.2501 59.4789 33.1701 59.5189 33.0801L60.1089 31.4901C60.1389 31.4101 60.1389 31.3301 60.1189 31.2501L59.9089 30.4501C59.8789 30.3401 59.9089 30.2201 59.9689 30.1201L60.2089 29.7901C60.3189 29.6401 60.5189 29.5901 60.6889 29.6601L61.2189 29.8901C61.3389 29.9401 61.4189 30.0501 61.4489 30.1701L61.5189 30.5601C61.5689 30.8301 61.8789 30.9601 62.1089 30.8201C62.2889 30.7001 62.3489 30.4601 62.2289 30.2801L62.0389 29.9801C61.9389 29.8301 61.9589 29.6301 62.0889 29.5001L62.5389 29.0301C62.6289 28.9401 62.7489 28.9001 62.8689 28.9101L63.6689 29.0201C63.8089 29.0401 63.9489 28.9801 64.0389 28.8601L65.2989 27.1301C65.2989 27.1301 65.3589 27.0301 65.3589 26.9701L65.4789 26.0501C65.5089 25.8601 65.3689 25.6801 65.1789 25.6601C64.8689 25.6201 64.7689 25.2101 65.0289 25.0301L66.3289 24.1201C66.3989 24.0701 66.4889 24.0501 66.5789 24.0601L68.4189 24.3101C68.4889 24.3101 68.5589 24.3101 68.6189 24.2701L70.0989 23.5101C70.1589 23.4801 70.2289 23.4701 70.2989 23.4801L70.7789 23.5401C71.0989 23.5801 71.1889 23.9901 70.9289 24.1701L69.3389 25.2801C69.2489 25.3501 69.1889 25.4501 69.1889 25.5701V26.8201C69.1989 27.1201 69.5489 27.2701 69.7789 27.0801L71.2989 25.7701C71.3589 25.7101 71.4089 25.6401 71.4189 25.5501L71.4989 24.9701C71.5189 24.8201 71.6389 24.7001 71.7889 24.6701L73.0689 24.4601L74.6289 24.0401L75.2389 24.1201L77.1689 22.7301C77.3989 22.5701 77.3689 22.2201 77.1289 22.0901L74.0889 20.4701C73.9889 20.4201 73.8689 20.4101 73.7589 20.4601L72.9089 20.8201C72.8389 20.8501 72.7589 20.8601 72.6889 20.8401L70.8689 20.4901C70.7789 20.4701 70.6989 20.4201 70.6389 20.3501L69.5989 18.9901C69.5389 18.9101 69.4489 18.8601 69.3489 18.8501L66.4589 18.4601C66.3589 18.4501 66.2689 18.4701 66.1889 18.5301L65.3689 19.1101C65.2689 19.1801 65.1389 19.2001 65.0189 19.1601L63.5889 18.6401C63.4189 18.5801 63.3189 18.4101 63.3389 18.2301L63.3689 17.9701C63.3889 17.8001 63.2889 17.6301 63.1289 17.5701L62.1689 17.2001C62.0189 17.1401 61.8489 17.1801 61.7489 17.3001L61.5289 17.5601C61.4189 17.6901 61.2289 17.7301 61.0789 17.6501L59.9789 17.1101C59.6889 16.9701 59.6989 16.5501 59.9989 16.4201L60.1389 16.3601C60.2789 16.3001 60.3689 16.1701 60.3689 16.0301V15.9001C60.3789 15.7201 60.2589 15.5501 60.0789 15.5101L56.3089 14.6701C56.2389 14.6501 56.1689 14.6601 56.0989 14.6801L53.0789 15.7401C52.9489 15.7901 52.8489 15.9101 52.8289 16.0501V16.0701C52.8089 16.2201 52.6989 16.3401 52.5589 16.3801L51.1889 16.8101C51.0489 16.8501 50.8989 16.8101 50.7989 16.7101L50.5689 16.4701C50.4689 16.3701 50.3289 16.3301 50.1989 16.3701L48.6889 16.7701C48.5189 16.8101 48.4089 16.9701 48.4089 17.1401C48.4089 17.4101 48.1289 17.6001 47.8789 17.4901L46.8689 17.0501C46.6789 16.9701 46.4589 17.0501 46.3689 17.2401V17.2601C46.2989 17.4001 46.1589 17.4901 45.9989 17.4801L44.2989 17.4101C44.2389 17.4101 44.1789 17.4101 44.1189 17.4501L41.2989 18.7801C41.1989 18.8301 41.0889 18.8001 41.0089 18.7201L40.7289 18.4101C40.5989 18.2701 40.6789 18.0301 40.8689 18.0001L41.7889 17.8501C41.7889 17.8501 41.8389 17.8401 41.8589 17.8301C42.0289 17.7401 42.0389 17.5101 41.8789 17.4101L38.7789 15.3201C38.7089 15.2701 38.6189 15.2601 38.5389 15.3001L35.3189 16.7001C35.3189 16.7001 35.2689 16.7201 35.2589 16.7401L32.9489 18.7701C32.8689 18.8401 32.8389 18.9601 32.8889 19.0601L33.2589 19.8501C33.3089 19.9501 33.4189 20.0101 33.5289 19.9901L34.3589 19.8301C34.4989 19.8001 34.6389 19.9001 34.6489 20.0501L34.7089 20.6701C34.7189 20.8001 34.8289 20.8901 34.9589 20.8901H35.4689C35.5489 20.8901 35.6289 20.8401 35.6789 20.7701L36.3489 19.7001C36.3789 19.6501 36.3889 19.5901 36.3789 19.5301L36.2789 18.9401C36.2589 18.8501 36.2989 18.7501 36.3789 18.7001L37.6889 17.7801C37.7389 17.7401 37.7989 17.7301 37.8589 17.7401L38.0389 17.7601C38.2589 17.7901 38.3289 18.0601 38.1589 18.2001L37.2289 18.9201C37.1489 18.9801 37.1089 19.0901 37.1489 19.1901L37.2689 19.5301C37.2989 19.6201 37.3789 19.6901 37.4789 19.6901L38.4089 19.7701C38.4989 19.7701 38.5789 19.8301 38.6089 19.9201V19.9401C38.6889 20.1201 38.5489 20.3101 38.3589 20.2801L37.9689 20.2301C37.8389 20.2101 37.7189 20.3001 37.6989 20.4201L37.6089 20.8201C37.5889 20.9101 37.5189 20.9801 37.4289 21.0101L35.4889 21.5401C35.4889 21.5401 35.4189 21.5501 35.3789 21.5401L33.7889 21.2701C33.7889 21.2701 33.6989 21.2701 33.6589 21.2801L32.5489 21.7201C32.5489 21.7201 32.5289 21.7201 32.5289 21.7301L31.2689 22.4601C30.8189 22.7201 30.6789 23.3101 30.9589 23.7501C30.9889 23.8001 30.9989 23.8701 30.9589 23.9201L30.7189 24.3701C30.6889 24.4301 30.6189 24.4701 30.5489 24.4601L29.9989 24.3901C29.5289 24.3301 29.1089 24.6801 29.0889 25.1401L29.0589 25.7101C29.0589 25.7801 29.0889 25.8401 29.1489 25.8701L30.0489 26.3101C30.0489 26.3101 30.1289 26.3301 30.1689 26.3201L31.0989 26.0701C31.1689 26.0501 31.2089 26.0001 31.2189 25.9301L31.2589 25.6501C31.3189 25.2201 31.6289 24.8601 32.0489 24.7301L32.9989 24.4501C33.3989 24.3301 33.7989 24.6501 33.7689 25.0701C33.7689 25.0701 33.7789 25.1601 33.8089 25.1901L34.6489 26.1701C34.6989 26.2301 34.7789 26.2501 34.8489 26.2101L34.9889 26.1401C35.0689 26.1001 35.0989 26.0101 35.0689 25.9301L34.5089 24.5101C34.4889 24.4601 34.4989 24.4001 34.5289 24.3501L34.7789 24.0101C34.8689 23.8901 35.0589 23.9301 35.0789 24.0801L35.1789 24.6801C35.1789 24.6801 35.1889 24.7201 35.1989 24.7401L35.6889 25.5901C35.6889 25.5901 35.6889 25.6001 35.6889 25.6101L36.2389 26.9001C36.2789 26.9901 36.3789 27.0301 36.4589 26.9901L36.7289 26.8701C36.7889 26.8401 36.8289 26.7801 36.8289 26.7101C36.8289 26.5201 37.0789 26.4601 37.1489 26.6401L37.3989 27.2501C37.4589 27.3901 37.5889 27.4701 37.7389 27.4701H38.7989C39.2489 27.4701 39.5589 27.9201 39.3789 28.3301L39.1989 28.7701C39.1389 28.9201 38.9789 29.0101 38.8189 28.9901L37.7789 28.8501C37.7789 28.8501 37.7389 28.8501 37.7189 28.8401L35.9989 28.2701C35.7889 28.2001 35.5689 28.2701 35.4289 28.4301C35.2589 28.6301 34.9789 28.6801 34.7489 28.5401L33.2389 27.6401C33.1689 27.6001 33.1389 27.5101 33.1689 27.4301L33.3789 26.9601C33.4289 26.8501 33.3489 26.7301 33.2389 26.7201L30.6889 26.5501H30.5389C29.7989 26.5201 29.0689 26.7801 28.5089 27.2701H28.5589ZM40.4989 25.0201V25.0901C40.5089 25.2201 40.5789 25.3501 40.6989 25.4201L41.3889 25.8701C41.6189 26.0201 41.6489 26.3501 41.4489 26.5401C41.3389 26.6501 41.1689 26.6901 41.0189 26.6401L39.3889 26.1001C39.3889 26.1001 39.3389 26.0901 39.3089 26.0801L38.5089 25.9701C38.1889 25.9301 38.0289 25.5601 38.2189 25.3001L38.6689 24.6601C38.7589 24.5301 38.9189 24.4601 39.0789 24.4801L40.1289 24.6201C40.3289 24.6501 40.4889 24.8101 40.4989 25.0201ZM44.0089 26.7301L43.8689 27.7601C43.8389 27.9901 43.6189 28.1601 43.3889 28.1301L43.1889 28.1001C42.9589 28.0701 42.7889 27.8501 42.8189 27.6201L42.8989 27.0401C42.8989 26.9701 42.8989 26.9101 42.8789 26.8501L42.5689 25.9401C42.4889 25.7101 42.6289 25.4501 42.8689 25.3901L43.3689 25.2601C43.6189 25.1901 43.8689 25.3701 43.8989 25.6301L44.0089 26.6401C44.0089 26.6401 44.0089 26.7101 44.0089 26.7401V26.7301ZM40.5989 40.6101L39.9389 41.1601C39.8589 41.2301 39.7989 41.3201 39.7589 41.4301L39.4189 42.5801C39.3189 42.9001 39.5389 43.2401 39.8789 43.2801L40.0689 43.3101C40.3089 43.3401 40.5389 43.2201 40.6389 43.0001L41.4489 41.2801C41.4989 41.1801 41.5089 41.0801 41.4989 40.9701C41.4389 40.5401 40.9289 40.3501 40.5989 40.6201V40.6101ZM53.3689 38.5701L53.7189 39.4701C53.7189 39.4701 53.7489 39.5301 53.7689 39.5501L54.5289 40.3301C54.6289 40.4301 54.7989 40.4201 54.8889 40.3101L55.1989 39.9101C55.2689 39.8101 55.2589 39.6701 55.1689 39.5901L53.7789 38.3501C53.7789 38.3501 53.7789 38.3501 53.7689 38.3401C53.5889 38.1501 53.2889 38.3401 53.3789 38.5901L53.3689 38.5701ZM55.4289 40.4401C55.2989 40.6501 55.3689 40.9401 55.5889 41.0601L56.2989 41.4601C56.4389 41.5301 56.5989 41.5301 56.7289 41.4601L56.8989 41.3601C57.1489 41.2201 57.1989 40.8701 56.9889 40.6701L56.7789 40.4601C56.7089 40.3901 56.6189 40.3501 56.5289 40.3301L55.8489 40.2401C55.6789 40.2201 55.5089 40.3001 55.4189 40.4401H55.4289ZM56.0089 39.1501L56.3789 39.8501C56.4089 39.9101 56.4589 39.9501 56.5189 39.9801L57.2489 40.3401C57.3789 40.4101 57.5489 40.3701 57.6289 40.2401L58.3789 39.2101C58.4389 39.1301 58.4589 39.0201 58.4189 38.9301L58.2289 38.3801C58.1889 38.2501 58.2289 38.1201 58.3289 38.0301C58.4889 37.9101 58.4889 37.6701 58.3289 37.5501L58.1689 37.4201C58.0289 37.3001 57.8089 37.3401 57.7089 37.5001L57.2189 38.2901C57.2189 38.2901 57.1489 38.3701 57.0989 38.4001L56.6289 38.6501C56.6289 38.6501 56.5489 38.6801 56.4989 38.6901L56.2289 38.7101C55.9989 38.7201 55.8689 38.9601 55.9789 39.1601L56.0089 39.1501ZM59.4989 33.4201L59.3189 33.5301C59.2589 33.5701 59.2289 33.6401 59.2489 33.7101L59.3589 34.0901C59.3789 34.1501 59.4289 34.1901 59.4889 34.2001C59.5789 34.2101 59.6489 34.1501 59.6589 34.0701L59.7289 33.5801C59.7489 33.4501 59.6089 33.3601 59.4889 33.4301L59.4989 33.4201ZM59.2289 35.1001L58.9689 35.6401C58.9489 35.6901 58.9389 35.7501 58.9689 35.8001L59.0389 35.9701C59.0889 36.0901 59.2389 36.1401 59.3389 36.0601C59.3389 36.0601 59.4189 35.9801 59.4289 35.9201L59.4589 35.6801C59.4589 35.6801 59.4789 35.6001 59.5089 35.5701L59.7189 35.3301C59.8289 35.2101 59.7489 35.0201 59.5989 35.0001L59.4489 34.9801C59.3589 34.9701 59.2789 35.0101 59.2389 35.0901L59.2289 35.1001ZM59.1889 37.5201C59.1589 37.6501 59.2689 37.7801 59.3989 37.7701H59.4389C59.5289 37.7601 59.6189 37.8101 59.6489 37.9001L59.7489 38.1801C59.7889 38.3001 59.9389 38.3501 60.0489 38.2801L60.4089 38.0601C60.4789 38.0201 60.5089 37.9401 60.4989 37.8701L60.4489 37.4601C60.4389 37.3501 60.3389 37.2701 60.2289 37.2801L59.3589 37.3801C59.2789 37.3801 59.2089 37.4501 59.1889 37.5301V37.5201ZM59.5689 36.3601L59.7289 36.5701C59.7289 36.5701 59.7489 36.6101 59.7589 36.6301L59.8289 37.0601C59.8389 37.1201 59.8889 37.1701 59.9489 37.1801H60.0089C60.0889 37.2001 60.1589 37.1401 60.1689 37.0601L60.1989 36.8001C60.1989 36.8001 60.1989 36.7301 60.1689 36.6901L59.7889 36.1701C59.7289 36.0901 59.6189 36.0901 59.5589 36.1701C59.5189 36.2201 59.5189 36.3001 59.5589 36.3501L59.5689 36.3601ZM58.7689 39.2701L58.2489 40.1001C58.2489 40.1001 58.2389 40.1301 58.2389 40.1501V40.9201C58.2389 40.9201 58.2689 41.0101 58.3189 41.0101H58.3989C58.4489 41.0301 58.4989 40.9901 58.4989 40.9401L58.5589 40.5101C58.5689 40.4201 58.6989 40.4001 58.7389 40.4801L58.8689 40.7501C58.8689 40.7501 58.9389 40.8101 58.9789 40.8001L59.2089 40.7301C59.2589 40.7101 59.2889 40.6501 59.2689 40.6001L59.0389 40.1201C59.0389 40.1201 59.0389 40.0401 59.0589 40.0101L59.2089 39.8701C59.2689 39.8201 59.2389 39.7201 59.1589 39.7101L58.9589 39.6801C58.9589 39.6801 58.9389 39.6801 58.9189 39.6801C58.8389 39.7001 58.7689 39.6101 58.8189 39.5401L58.8789 39.4501C58.8789 39.4501 58.9389 39.4001 58.9789 39.4101L59.5589 39.5701C59.5589 39.5701 59.6289 39.5701 59.6489 39.5501L59.9789 39.2301C59.9789 39.2301 60.0089 39.1101 59.9589 39.0801L59.7789 38.9901C59.7789 38.9901 59.6789 38.9901 59.6589 39.0201L59.5389 39.2101C59.5389 39.2101 59.4889 39.2601 59.4489 39.2501L58.8689 39.2001C58.8689 39.2001 58.7989 39.2101 58.7789 39.2401L58.7689 39.2701ZM62.6989 40.5001L62.0989 40.6701C62.0989 40.6701 62.0089 40.6701 61.9889 40.6301L61.9489 40.5601C61.9489 40.5601 61.9289 40.5101 61.9289 40.4901L61.9689 40.1801C61.9689 40.1801 61.9489 40.0901 61.9089 40.0701L61.3589 39.8201C61.3589 39.8201 61.3389 39.8201 61.3289 39.8201L61.1389 39.7901C61.0789 39.7901 61.0289 39.8201 61.0189 39.8801V39.9101C61.0189 39.9101 61.0189 39.9901 61.0589 40.0101L61.3189 40.1901C61.3189 40.1901 61.3489 40.2101 61.3489 40.2301L61.4189 40.3801C61.4189 40.3801 61.4589 40.4301 61.4889 40.4401L61.6289 40.4701C61.6789 40.4801 61.7189 40.5301 61.7089 40.5801V40.6101C61.7089 40.6101 61.6989 40.6401 61.6889 40.6601L61.5989 40.7901C61.5489 40.8701 61.6089 40.9701 61.6989 40.9501H61.7589C61.7589 40.9501 61.7989 40.9401 61.8089 40.9501L62.2489 41.1001C62.2489 41.1001 62.2689 41.1001 62.2789 41.1201L62.8189 41.5501C62.8689 41.5901 62.8689 41.6701 62.8189 41.7101L62.6489 41.8301C62.5689 41.8801 62.5989 42.0001 62.6989 42.0201L63.1389 42.0801C63.1389 42.0801 63.1889 42.1001 63.2089 42.1201L63.4589 42.4501C63.4589 42.4501 63.5489 42.5001 63.5889 42.4801L64.1489 42.1801C64.1489 42.1801 64.2289 42.1601 64.2589 42.1801L64.4889 42.3601C64.4889 42.3601 64.5289 42.4201 64.5289 42.4601L64.5089 42.5801C64.5089 42.5801 64.5289 42.6701 64.5689 42.6901L65.2889 43.0001C65.3889 43.0401 65.4789 42.9301 65.4089 42.8501L64.8989 42.1401C64.8989 42.1401 64.8689 42.0701 64.8989 42.0301L65.0089 41.8301C65.0389 41.7701 65.0089 41.6901 64.9289 41.6801L64.6889 41.6501C64.6889 41.6501 64.6089 41.6101 64.5989 41.5601L64.5489 41.2201C64.5489 41.2201 64.5189 41.1501 64.4789 41.1401L62.7589 40.5101C62.7589 40.5101 62.7189 40.5101 62.6989 40.5101V40.5001ZM57.9789 44.3101L56.6089 44.6601C56.4589 44.7001 56.3589 44.8401 56.3589 44.9901L56.4589 47.7301C56.4589 47.8901 56.5889 48.0201 56.7489 48.0501L58.2089 48.2401C58.2589 48.2401 58.3189 48.2401 58.3589 48.2201L59.7889 47.7101C59.9089 47.6701 60.0389 47.7001 60.1289 47.7801L60.8589 48.4601C60.9589 48.5501 61.0989 48.5701 61.2189 48.5201L61.3689 48.4501C61.5489 48.3701 61.7689 48.4601 61.8189 48.6601L62.1289 49.7101C62.1689 49.8301 62.2689 49.9301 62.3989 49.9401L63.3089 50.0601C63.3089 50.0601 63.3989 50.0601 63.4489 50.0601L64.2689 49.8201C64.3389 49.8001 64.3989 49.7601 64.4389 49.7101L65.4689 48.4101C65.4689 48.4101 65.5289 48.3101 65.5389 48.2501L65.7489 46.6701C65.7589 46.5801 65.7389 46.4801 65.6689 46.4101L64.3489 44.8501C64.3489 44.8501 64.3089 44.8001 64.2989 44.7701L63.7389 43.5101C63.6289 43.2501 63.2589 43.2501 63.1389 43.5101L62.8289 44.1501C62.7289 44.3601 62.4389 44.4001 62.2889 44.2301L61.9589 43.8701C61.8889 43.7901 61.8589 43.6701 61.8789 43.5601L61.9889 43.1301C62.0389 42.9401 61.9089 42.7501 61.7089 42.7201L61.1489 42.6501C61.0689 42.6401 60.9789 42.6501 60.9189 42.7101L59.9589 43.3801C59.8389 43.4601 59.6789 43.4601 59.5689 43.3801C59.4389 43.2801 59.2489 43.2901 59.1289 43.4101L58.7889 43.7501C58.7889 43.7501 58.7589 43.7701 58.7489 43.7801L58.0689 44.2701C58.0689 44.2701 57.9989 44.3101 57.9589 44.3201L57.9789 44.3101ZM70.1089 50.0901L70.2989 50.9201C70.3089 50.9701 70.2989 51.0301 70.2589 51.0701L70.1389 51.2201C70.0889 51.2801 70.0889 51.3601 70.1289 51.4301L70.3289 51.7701C70.4089 51.9001 70.5989 51.8801 70.6589 51.7501L70.8189 51.3601C70.8189 51.3601 70.8789 51.2701 70.9389 51.2601L71.3089 51.1501C71.3789 51.1301 71.4289 51.0701 71.4389 51.0001V50.9401C71.4589 50.8301 71.3689 50.7301 71.2489 50.7301L70.8389 50.7601C70.7589 50.7601 70.6789 50.7101 70.6489 50.6301L70.4589 50.0101C70.4389 49.9401 70.3789 49.8901 70.3089 49.8801C70.1789 49.8601 70.0789 49.9801 70.1089 50.1001V50.0901ZM69.7889 51.9001L69.5989 51.8301C69.5489 51.8101 69.4889 51.8101 69.4389 51.8401L68.2689 52.5601C68.1389 52.6401 68.1589 52.8201 68.2889 52.8801L68.7989 53.1101C68.8789 53.1501 68.9689 53.1201 69.0189 53.0501L69.4089 52.5301C69.4089 52.5301 69.4389 52.5001 69.4489 52.4901L69.8289 52.2201C69.9489 52.1401 69.9289 51.9501 69.7889 51.9001Z"
      fill="#33A4DD" />
  </g>
  <g style="mix-blend-mode:multiply" opacity="0.46">
    <path
      d="M25.3556 40.5C12.8256 38.82 4.0256 27.3 5.7056 14.77C6.3056 10.26 8.1956 6.23 10.9356 3C5.2756 6.48 1.1556 12.38 0.205603 19.48C-1.4744 32.01 7.3256 43.53 19.8556 45.21C27.8756 46.28 35.4756 43.07 40.3556 37.33C36.0256 39.99 30.7856 41.23 25.3556 40.5Z"
      fill="#B9B7D9" />
  </g>
  <g style="mix-blend-mode:overlay" opacity="0.64">
    <path
      d="M36.1789 6.61992C40.6489 10.4799 42.9489 15.1599 41.2989 17.0699C39.6489 18.9699 34.6889 17.3799 30.2189 13.5199C25.7489 9.65992 23.4489 4.97992 25.0989 3.06992C26.7389 1.16992 31.6989 2.75992 36.1789 6.61992Z"
      fill="white" />
    <path
      d="M36.1789 6.61992C40.6489 10.4799 42.9489 15.1599 41.2989 17.0699C39.6489 18.9699 34.6889 17.3799 30.2189 13.5199C25.7489 9.65992 23.4489 4.97992 25.0989 3.06992C26.7389 1.16992 31.6989 2.75992 36.1789 6.61992Z"
      stroke="#231F20" stroke-width="0.77" stroke-miterlimit="10" />
  </g>
</svg>