<svg width="433" height="180" viewBox="0 0 433 180" fill="none" xmlns="http://www.w3.org/2000/svg">
  <g filter="url(#filter0_dd_790_365)">
    <path
      d="M82.5922 78.8775C80.7022 78.3075 78.6722 77.8675 76.4822 77.5675C76.5622 80.5575 76.6322 83.5575 76.7122 86.5575C76.7122 86.8575 76.7222 87.1575 76.7322 87.4675C78.1722 87.3575 79.4822 87.2775 80.6622 87.1975C83.2822 87.0275 85.5322 86.9075 87.4022 86.8375C89.2822 86.7675 90.2022 86.3975 90.1822 85.7075C90.0522 82.6275 87.5222 80.3675 82.5922 78.8775ZM99.9022 1.1875C89.7822 1.3975 84.7222 1.5075 74.6122 1.7575C74.9422 15.1375 75.2722 28.5175 75.6022 41.8875C70.4822 42.0175 67.9222 42.0875 62.8022 42.2175C62.4422 28.8475 62.0722 15.4675 61.7122 2.0975C51.6222 2.3675 46.5822 2.5175 36.4922 2.8275C37.2322 26.3475 37.9622 49.8575 38.7022 73.3675C47.2822 71.7275 55.6022 70.7075 63.5622 70.2975C63.4622 66.8675 63.3722 63.4475 63.2822 60.0275C68.3822 59.8875 70.9422 59.8175 76.0422 59.6975C76.1322 63.3175 76.2222 66.9375 76.3122 70.5575C79.2422 70.8775 81.9522 71.4175 84.4222 72.1575C92.2022 74.4975 93.9722 78.6275 94.0922 81.6875C94.1222 82.5575 93.8222 83.5975 92.9822 84.4075C93.0522 84.8175 93.0922 85.2175 93.1122 85.5975C93.1622 86.8375 92.5222 88.4475 90.6122 89.2275C89.8122 89.5475 88.8322 89.7175 87.5122 89.7675C85.6822 89.8375 83.5022 89.9575 80.8422 90.1275C79.6422 90.2075 78.2922 90.2975 76.8022 90.3975C76.9122 94.6575 77.0122 98.9275 77.1222 103.188C85.2022 102.987 89.9922 102.878 96.8522 102.738C98.6222 101.878 100.312 101.238 101.922 100.798C101.252 67.5975 100.582 34.3975 99.9022 1.1875ZM64.1322 91.5675C62.0422 91.8775 60.8222 92.1675 60.1122 92.3875C59.9222 93.5475 59.1722 94.5475 58.3622 95.4575C57.6522 96.2575 56.5522 97.5275 55.0722 99.2775C54.2122 100.277 52.9422 101.798 51.2022 103.878C53.9022 103.808 56.5622 103.737 59.6322 103.647C61.2822 102.917 62.8722 102.367 64.4122 102.027C64.3222 98.5375 64.2222 95.0475 64.1322 91.5675ZM60.9022 89.1675C61.8022 88.9675 62.8522 88.7875 64.0522 88.6075C64.0422 88.3375 64.0322 88.0775 64.0322 87.8175C63.9322 84.2375 63.8422 80.6675 63.7422 77.0975C55.7622 77.4475 47.4822 78.4275 38.9122 80.0375C39.0422 84.0675 39.1622 88.0975 39.2922 92.1275C39.3022 92.3975 39.3122 92.6675 39.3222 92.9375L41.3522 92.6575L46.2822 91.9875C47.5022 91.8075 48.3122 91.7075 48.7222 91.6875C49.1322 91.6775 49.3422 91.7375 49.3422 91.8775C49.3422 92.0175 48.8822 92.4775 47.9622 93.2575C47.3722 93.7575 46.7122 94.3975 45.9922 95.1775C43.7522 97.3775 41.6122 99.4875 39.5822 101.507C39.6122 102.417 39.6422 103.328 39.6722 104.238C42.5522 104.148 45.0122 104.067 47.2922 103.997C49.8622 100.897 51.7122 98.6875 52.8322 97.3675C54.3322 95.6075 55.4422 94.3175 56.1722 93.5075C56.8922 92.6975 57.2422 92.1175 57.2322 91.7775C57.0822 91.6475 57.0122 91.4475 57.0022 91.1675C56.9722 90.4075 58.2722 89.7375 60.9022 89.1675Z"
      fill="#DEE7F0" />
    <path
      d="M177.092 95.3475C176.502 96.0775 175.922 96.8175 175.322 97.5775C174.252 98.9475 173.202 100.297 172.172 101.647C174.012 101.627 176.002 101.617 178.272 101.597C177.882 99.5075 177.492 97.4375 177.092 95.3475ZM159.022 0.297485C149.222 0.387485 139.422 0.507485 129.622 0.667485C123.922 34.3875 118.322 68.1375 112.822 101.887C113.182 102.007 113.532 102.177 113.882 102.397C122.502 102.237 127.182 102.157 136.172 102.037C137.282 93.9175 137.832 89.8575 138.952 81.7375C144.232 81.6675 146.872 81.6375 152.162 81.5775C153.442 89.1175 154.112 93.1375 155.302 100.207C156.112 100.677 156.762 101.207 157.262 101.777C160.812 101.737 163.672 101.717 166.512 101.687C168.892 98.4575 171.392 95.1775 173.992 91.8475C174.662 90.9875 175.322 90.1575 175.972 89.3475C170.402 59.6475 164.742 29.9675 159.022 0.297485ZM140.732 67.3975C142.082 54.7475 143.442 42.1075 144.812 29.4575C146.522 42.0675 148.212 54.6775 149.902 67.2875C146.232 67.3275 144.402 67.3475 140.732 67.3975Z"
      fill="#DEE7F0" />
    <path
      d="M203.552 75.0475C198.302 75.2475 194.982 76.0575 193.602 77.4675C192.012 78.7775 190.282 80.3975 188.402 82.3275C188.422 86.2775 188.442 90.2175 188.452 94.1675C193.002 89.1975 198.242 83.6375 204.152 77.4775C204.612 76.9875 204.832 76.4975 204.812 76.0175C204.802 75.5475 204.372 75.2175 203.552 75.0475ZM246.092 7.7375C241.472 2.6175 234.562 0.0375 225.382 0.0075C212.922 -0.0125 200.462 0.0075 188.002 0.0675C188.122 25.1275 188.242 50.1975 188.362 75.2575C189.862 73.7675 191.282 72.4775 192.612 71.3775C194.632 69.4075 198.292 68.4275 204.412 68.1875H204.532C204.732 68.1875 204.932 68.2075 205.132 68.2475C208.362 68.9275 208.702 71.2775 208.722 71.9875C208.762 72.7775 208.582 73.9375 207.632 75.1375C207.712 75.4575 207.742 75.7275 207.752 75.8975C207.782 76.7775 207.562 78.1075 206.312 79.4575C199.452 86.6075 193.502 92.9475 188.482 98.4875C188.482 99.4975 188.492 100.517 188.492 101.527C197.582 101.477 202.512 101.467 210.892 101.467C211.192 101.257 211.502 101.047 211.812 100.847C212.332 100.507 212.842 100.188 213.342 99.8775C213.342 86.4375 213.332 72.9875 213.322 59.5475C216.702 59.5375 218.392 59.5475 221.772 59.5475C225.432 59.5475 228.652 59.3475 231.422 58.9475C234.202 58.5475 236.982 57.7275 239.792 56.4675C242.592 55.2175 244.892 53.5375 246.692 51.4275C248.492 49.3175 249.972 46.4475 251.132 42.8275C252.292 39.1975 252.882 34.8975 252.922 29.9175C252.982 20.2575 250.712 12.8575 246.092 7.7275V7.7375ZM227.852 39.3375C226.862 41.3575 224.672 42.3675 221.292 42.3575H213.312C213.312 32.3675 213.312 27.3775 213.302 17.3875H221.072C222.562 17.3975 223.832 17.6375 224.892 18.1275C225.942 18.6175 226.762 19.2275 227.342 19.9375C227.912 20.6575 228.362 21.5875 228.662 22.7275C228.972 23.8675 229.172 24.9175 229.252 25.8475C229.332 26.7875 229.372 27.9275 229.362 29.2775C229.352 33.9675 228.852 37.3275 227.852 39.3375Z"
      fill="#DEE7F0" />
    <path
      d="M322.192 8.6475C317.642 3.4675 310.762 0.787499 301.582 0.647499C289.122 0.467499 276.662 0.317499 264.202 0.217499C263.922 33.2375 263.642 66.2475 263.362 99.2675C263.842 99.1375 264.472 98.9475 265.282 98.6475C267.352 97.8875 269.022 97.4875 270.402 97.4375C270.522 97.4275 270.642 97.4275 270.762 97.4275C272.452 97.4275 273.822 97.9075 274.832 98.8375C274.932 98.9375 275.032 99.0375 275.112 99.1375C276.012 100.237 276.672 101.098 277.162 101.798C280.302 101.838 283.562 101.877 287.662 101.927H287.672C287.842 101.937 288.012 101.938 288.192 101.938C288.192 101.808 288.192 101.667 288.202 101.537C288.372 87.6975 288.552 73.8675 288.732 60.0175C292.112 60.0675 293.802 60.0875 297.182 60.1375C300.832 60.1875 304.052 60.0375 306.832 59.6675C309.622 59.3075 312.412 58.5175 315.232 57.3075C318.052 56.0875 320.382 54.4375 322.212 52.3475C324.042 50.2575 325.552 47.4175 326.762 43.8075C327.962 40.1975 328.622 35.9075 328.722 30.9275C328.912 21.2675 326.742 13.8375 322.192 8.6475ZM305.172 29.9575C305.102 34.6575 304.552 37.9975 303.532 40.0075C302.512 42.0075 300.312 42.9875 296.932 42.9375C293.742 42.8875 292.142 42.8675 288.952 42.8275C289.082 32.8375 289.142 27.8475 289.272 17.8575C292.382 17.8975 293.932 17.9275 297.042 17.9675C298.532 17.9875 299.802 18.2475 300.852 18.7575C301.892 19.2575 302.702 19.8775 303.272 20.5975C303.842 21.3175 304.272 22.2575 304.562 23.4075C304.852 24.5475 305.042 25.5975 305.102 26.5375C305.172 27.4775 305.192 28.6175 305.172 29.9575Z"
      fill="#DEE7F0" />
    <path
      d="M372.602 2.15751C370.092 11.1475 367.592 20.1375 365.102 29.1375C362.632 20.0075 360.152 10.8875 357.652 1.76751C348.112 1.52751 343.342 1.41751 333.792 1.22751C339.672 20.7875 345.502 40.3575 351.272 59.9475C351.162 64.4175 351.062 68.8975 350.952 73.3675C352.672 71.4675 354.482 69.5575 356.362 67.6575C363.012 60.9675 368.092 57.7675 372.372 57.6075H372.622C373.942 57.6075 375.062 58.0475 375.872 58.8075C382.352 40.1375 388.892 21.4675 395.462 2.82751C386.322 2.54751 381.752 2.40751 372.602 2.15751ZM368.872 99.3875C368.122 99.7675 367.362 100.198 366.582 100.668C366.452 100.748 366.312 100.828 366.182 100.908C364.902 101.698 363.652 102.528 362.442 103.388H362.632C363.392 103.408 364.142 103.428 364.922 103.448C365.822 103.468 366.752 103.498 367.712 103.518C367.782 103.518 367.852 103.528 367.922 103.528C369.782 103.578 371.772 103.628 374.042 103.698C374.102 101.538 374.162 99.3675 374.222 97.2075C372.542 97.6775 370.762 98.3975 368.872 99.3875ZM372.532 74.8275C370.282 77.9375 367.822 80.8975 365.212 83.6075C362.702 86.2075 359.382 89.5575 355.342 93.5575C353.602 95.2675 351.932 96.9275 350.352 98.5375C350.312 100.048 350.282 101.568 350.242 103.078C351.472 103.108 352.622 103.138 353.722 103.158C354.812 102.368 355.922 101.548 357.052 100.718C357.062 100.708 357.072 100.698 357.082 100.698C359.742 98.4275 362.602 96.3575 365.632 94.4975C368.792 92.5575 371.692 91.2175 374.412 90.4575C374.602 83.9275 374.782 77.3975 374.972 70.8675C374.372 72.0775 373.572 73.3875 372.532 74.8275ZM371.512 64.4575C368.102 64.5875 363.422 67.6475 357.472 73.6475C355.102 76.0275 352.872 78.3975 350.772 80.7575C350.662 85.2675 350.562 89.7675 350.452 94.2775C351.372 93.3475 352.312 92.4175 353.282 91.4675C357.292 87.4975 360.562 84.1975 363.092 81.5675C365.622 78.9475 367.972 76.1275 370.142 73.1075C372.322 70.0875 373.372 67.7275 373.302 66.0275C373.262 64.9375 372.662 64.4075 371.512 64.4575Z"
      fill="#DEE7F0" />
    <path
      d="M82.5922 78.8775C80.7022 78.3075 78.6722 77.8675 76.4822 77.5675C72.9622 77.0575 69.0522 76.8875 64.7622 77.0475C64.4222 77.0575 64.0822 77.0775 63.7422 77.0975C55.7622 77.4475 47.4822 78.4275 38.9122 80.0375C35.0622 80.7575 31.1522 81.5975 27.1822 82.5775C22.7822 83.6975 20.3122 84.2775 19.7722 84.2975C19.2222 84.3175 18.9422 84.0675 18.9222 83.5575C18.9022 83.0475 18.6522 82.7975 18.1722 82.8175C17.9022 82.8175 17.6022 82.9075 17.2622 83.0575L15.7422 83.4275C12.5622 84.2975 9.43223 85.4675 6.35223 86.9575C4.74223 87.6275 3.95223 88.5475 4.00223 89.7075C4.00223 89.7975 4.01223 89.8875 4.03223 89.9875C4.25223 91.0975 5.51223 92.4575 7.80223 94.0675C10.2922 95.8175 12.0122 96.6775 12.9622 96.6375C13.9222 96.5975 14.6322 96.4675 15.1022 96.2475L39.3222 92.9375L41.3522 92.6575L46.2822 91.9875C47.5022 91.8075 48.3122 91.7075 48.7222 91.6875C49.1322 91.6775 49.3422 91.7375 49.3422 91.8775C49.3422 92.0175 48.8822 92.4775 47.9622 93.2575C47.3722 93.7575 46.7122 94.3975 45.9922 95.1775C43.7522 97.3775 41.6122 99.4875 39.5822 101.507C27.3722 113.687 19.0122 122.718 14.4922 128.638C9.22223 135.528 6.66223 140.807 6.80223 144.487C6.83223 145.297 6.98223 146.057 7.27223 146.757C7.65223 147.757 8.29223 148.647 9.19223 149.417C10.7122 150.727 11.9122 151.367 12.7922 151.327C13.4022 151.307 13.8622 150.967 14.1822 150.317C14.4822 149.727 14.6522 148.877 14.7122 147.777C18.0222 141.637 24.1422 132.877 33.0622 121.477C36.5122 117.107 40.3022 112.447 44.4122 107.467C45.4622 106.207 46.4222 105.047 47.2922 103.997C49.8622 100.897 51.7122 98.6875 52.8322 97.3675C54.3322 95.6075 55.4422 94.3175 56.1722 93.5075C56.8922 92.6975 57.2422 92.1175 57.2322 91.7775C57.0822 91.6475 57.0122 91.4475 57.0022 91.1675C56.9722 90.4075 58.2722 89.7375 60.9022 89.1675C61.8022 88.9675 62.8522 88.7875 64.0522 88.6075C65.9222 88.3375 68.1722 88.0975 70.8022 87.8775C72.9822 87.7275 74.9622 87.5875 76.7322 87.4675C78.1722 87.3575 79.4822 87.2775 80.6622 87.1975C83.2822 87.0275 85.5322 86.9075 87.4022 86.8375C89.2822 86.7675 90.2022 86.3975 90.1822 85.7075C90.0522 82.6275 87.5222 80.3675 82.5922 78.8775Z"
      fill="#94D9F4" />
    <path
      d="M93.7621 112.608C93.4921 112.828 92.6221 113.508 91.1221 114.658C89.6321 115.808 88.5221 116.668 87.7921 117.238C84.2221 119.998 80.9221 122.468 77.8721 124.668C77.8721 124.668 77.8621 124.668 77.8621 124.678C74.9321 126.788 72.2421 128.638 69.8021 130.228C69.0721 130.708 68.3621 131.157 67.6721 131.597H67.6621C66.0721 132.587 64.6021 133.458 63.2421 134.198C57.2921 137.468 51.7221 139.198 46.5421 139.398C45.7121 139.158 45.2821 138.467 45.2421 137.347C45.1921 136.217 45.6821 134.738 46.7121 132.888C47.7321 131.038 48.4821 130.108 48.9521 130.088C49.4321 130.068 49.8121 130.157 50.0921 130.347C50.1221 130.407 50.1621 130.458 50.1921 130.508C50.7721 131.398 51.5921 131.828 52.6621 131.788H52.7121C53.2021 131.758 53.8921 131.568 54.8021 131.208C54.8021 131.198 54.8221 131.197 54.8421 131.187C56.0321 130.717 57.5921 129.958 59.5121 128.918C60.0521 128.628 60.5921 128.318 61.1221 127.988C63.9821 126.278 66.7121 124.168 69.3221 121.678C72.4221 118.728 73.9221 116.128 73.8421 113.878C73.7921 112.658 73.0421 111.418 71.6021 110.178C70.1521 108.938 68.6121 108.348 66.9721 108.408C63.2921 108.548 59.1221 110.158 54.4621 113.238C49.8021 116.318 45.8021 120.188 42.4621 124.858C39.1221 129.528 37.5321 133.868 37.6821 137.888C37.7621 139.988 38.1021 141.728 38.7321 143.118C39.9921 145.968 42.3921 147.328 45.9221 147.198C50.2721 147.038 55.8221 144.998 62.5321 141.078C62.5721 141.058 62.6121 141.037 62.6521 141.017C62.7221 140.967 62.8021 140.927 62.8821 140.877C63.7721 140.357 64.6421 139.827 65.5021 139.297C65.9021 139.047 66.3021 138.807 66.6921 138.547C67.5721 138.007 68.4421 137.447 69.2921 136.877H69.3021C73.6021 134.057 77.5321 131.148 81.0921 128.148C86.3521 123.718 90.6221 119.728 93.9021 116.188C94.4921 115.618 94.7721 114.998 94.7521 114.318C94.7221 113.638 94.3921 113.068 93.7621 112.608ZM57.6721 119.468C61.7521 115.658 64.6821 113.718 66.4621 113.648C66.8621 113.638 67.0821 113.798 67.0921 114.138C67.1321 115.368 64.9921 117.738 60.6521 121.248C56.3121 124.758 53.3921 126.537 51.8921 126.597C51.6921 126.607 51.5921 126.538 51.5821 126.398C51.5521 125.588 53.5821 123.268 57.6721 119.468Z"
      fill="#94D9F4" />
    <path
      d="M131.742 111.277C131.402 111.467 131.072 111.657 130.742 111.857C130.732 111.857 130.722 111.877 130.722 111.877C127.162 114.717 123.842 117.307 120.752 119.657H120.732C118.002 121.737 115.452 123.617 113.102 125.307C112.822 125.517 112.532 125.717 112.252 125.907C107.132 129.557 102.912 132.247 99.5921 133.997C99.6821 132.697 100.432 130.957 101.852 128.787C102.692 127.527 103.502 126.387 104.282 125.367C105.062 124.347 106.362 122.677 108.192 120.357C110.012 118.037 111.602 115.957 112.972 114.127C113.892 113.277 114.342 112.507 114.312 111.827C114.292 111.147 114.062 110.627 113.642 110.267C113.222 109.907 112.802 109.697 112.392 109.647C111.612 108.857 110.942 108.477 110.402 108.497C109.852 108.517 109.252 108.877 108.602 109.587C107.782 107.847 106.722 106.967 105.422 106.947C103.282 107.027 100.922 107.627 98.3521 108.747C97.4021 109.157 96.4321 109.637 95.4221 110.197C94.8121 110.537 94.1921 110.897 93.5621 111.287C89.0521 114.057 84.9921 117.257 81.3821 120.917C80.1521 122.157 78.9821 123.407 77.8721 124.667C77.8721 124.667 77.8621 124.667 77.8621 124.677C75.7221 127.097 73.8121 129.547 72.1221 132.017C70.8521 133.877 69.9121 135.497 69.3021 136.877H69.2921C69.2421 136.977 69.2021 137.077 69.1721 137.167H69.1621C68.6121 138.437 68.3621 139.477 68.3921 140.307C68.4021 140.517 68.4121 140.727 68.4321 140.927C68.4921 141.547 68.6121 142.117 68.7821 142.617C69.0121 143.307 69.3421 143.877 69.7821 144.347C70.6321 145.267 71.3221 145.807 71.8321 145.957C72.3521 146.107 72.7821 146.217 73.1321 146.267C74.6821 146.207 76.5621 145.467 78.7921 144.027C79.5021 143.567 80.2421 143.037 81.0221 142.437C84.2321 139.957 86.5021 137.997 87.8121 136.547C89.1221 135.097 90.2021 133.877 91.0521 132.887C91.3121 132.607 91.4921 132.457 91.6021 132.457C91.7021 132.457 91.7521 132.557 91.7621 132.757L91.1921 139.337C91.2421 140.597 91.3721 141.617 91.6021 142.407C91.7521 142.947 91.9521 143.377 92.1821 143.697C92.7621 144.497 93.6921 144.867 94.9921 144.817C95.6621 144.797 96.8621 144.237 98.5921 143.137C100.152 142.147 102.152 140.707 104.592 138.827C106.372 137.447 108.342 135.817 110.522 133.957C110.832 133.697 111.152 133.417 111.482 133.127C111.582 133.047 111.692 132.957 111.792 132.867C112.552 132.207 113.302 131.557 114.012 130.927C115.802 129.357 117.442 127.907 118.922 126.557C121.002 124.667 123.162 122.687 125.402 120.617C127.642 118.557 129.142 117.167 129.902 116.457C130.662 115.747 131.302 115.137 131.832 114.647C132.362 114.147 132.612 113.557 132.582 112.877C132.562 112.247 132.282 111.717 131.742 111.277ZM87.9221 130.137C83.8621 133.637 81.4221 135.407 80.6021 135.437C80.4621 135.437 80.3921 135.377 80.3921 135.237C80.3521 134.307 81.2621 132.647 83.1221 130.267C83.1221 130.257 83.1421 130.257 83.1421 130.257C83.5921 129.667 84.1121 129.037 84.6821 128.367C87.5921 124.947 91.0721 121.677 95.1121 118.547C95.6721 118.107 96.2321 117.707 96.7621 117.327C100.072 115.007 102.842 113.807 105.072 113.717C105.272 113.707 105.382 113.757 105.382 113.857C105.382 113.957 105.252 114.157 104.992 114.437L99.4621 119.667C95.8321 123.147 91.9921 126.637 87.9221 130.137Z"
      fill="#94D9F4" />
    <path
      d="M169.432 109.727C169.172 109.947 168.292 110.627 166.802 111.777C165.312 112.927 164.192 113.787 163.472 114.357C163.022 114.697 162.582 115.037 162.152 115.367H162.142C159.612 117.307 157.242 119.087 155.022 120.727C154.062 121.427 153.132 122.117 152.222 122.777C146.862 126.637 142.502 129.537 139.132 131.467C133.652 134.617 128.392 136.277 123.342 136.467C122.252 136.517 121.682 135.817 121.632 134.387C121.512 131.387 123.862 127.127 128.682 121.587C128.782 121.457 128.892 121.337 129.002 121.207C130.812 119.147 132.662 117.397 134.562 115.967C137.962 113.357 141.512 111.727 145.202 111.057C145.542 111.047 145.722 111.217 145.732 111.557C145.752 111.897 145.692 112.207 145.572 112.477C144.532 114.027 142.012 116.067 138.022 118.607C137.592 118.767 137.322 118.967 137.212 119.217C137.152 119.327 137.122 119.437 137.132 119.557C137.172 120.587 138.072 121.057 139.852 120.997C143.372 120.867 146.422 119.917 149.002 118.157C149.002 118.157 149.009 118.154 149.022 118.147C149.532 117.797 150.032 117.417 150.502 117.007C153.372 114.507 154.802 112.027 154.772 109.567L154.532 108.557C154.442 107.877 153.832 107.217 152.712 106.577C151.602 105.937 149.792 105.667 147.312 105.757C144.822 105.857 141.562 106.747 137.532 108.437C137.182 108.587 136.842 108.727 136.492 108.887C135.792 109.197 135.102 109.517 134.422 109.857C133.512 110.307 132.612 110.777 131.732 111.277C131.392 111.467 131.062 111.657 130.732 111.857C130.722 111.857 130.712 111.877 130.712 111.877C129.102 112.817 127.532 113.847 126.002 114.967C124.072 116.377 122.312 117.937 120.742 119.657H120.722C119.292 121.207 118.002 122.887 116.842 124.687C115.512 126.757 114.562 128.837 114.002 130.927C113.912 131.267 113.832 131.617 113.762 131.957C113.522 133.087 113.392 134.217 113.382 135.357C113.372 135.647 113.382 135.947 113.392 136.237C113.452 137.787 113.702 139.107 114.152 140.207H114.162C115.312 143.097 117.782 144.457 121.582 144.317C125.882 144.157 131.342 142.167 137.962 138.327C137.972 138.327 137.992 138.327 138.002 138.307C138.182 138.207 138.372 138.097 138.552 137.987C141.482 136.257 144.262 134.507 146.902 132.697C147.372 132.387 147.832 132.077 148.282 131.757C150.412 130.267 152.432 128.757 154.362 127.217C155.172 126.577 155.972 125.927 156.752 125.267C162.012 120.837 166.282 116.847 169.562 113.307C170.152 112.737 170.442 112.117 170.412 111.437C170.392 110.757 170.062 110.187 169.422 109.727H169.432Z"
      fill="#94D9F4" />
    <path
      d="M211.362 108.137C209.642 109.517 207.942 110.857 206.262 112.157C206.232 112.177 206.202 112.207 206.172 112.227C202.882 114.787 199.662 117.197 196.532 119.457C196.032 119.807 195.532 120.167 195.042 120.517C189.312 124.587 183.852 128.147 178.652 131.197C177.852 131.637 177.312 131.857 177.042 131.867C176.762 131.877 176.622 131.717 176.612 131.377C176.572 130.347 177.512 128.197 179.432 124.917C180.382 122.897 183.242 118.217 188.012 110.867C188.142 110.657 188.202 110.417 188.192 110.137C188.162 109.257 187.282 108.747 185.572 108.607C183.592 108.677 182.312 109.037 181.722 109.677C179.792 111.047 176.882 113.317 172.972 116.507C169.062 119.697 166.972 121.297 166.702 121.307L166.592 121.207C166.592 121.017 166.762 120.607 167.112 119.967C167.142 119.917 167.182 119.857 167.212 119.797C167.622 119.067 167.962 118.557 168.222 118.277C169.492 116.387 171.202 114.117 173.352 111.447C177.072 106.847 182.102 101.077 188.452 94.1675C193.002 89.1975 198.242 83.6375 204.152 77.4775C204.612 76.9875 204.832 76.4975 204.812 76.0175C204.802 75.5475 204.372 75.2175 203.552 75.0475C198.302 75.2475 194.982 76.0575 193.602 77.4675C192.012 78.7775 190.282 80.3975 188.402 82.3275C185.082 85.7175 181.312 90.0475 177.092 95.3375C176.502 96.0775 175.922 96.8175 175.322 97.5775C174.252 98.9475 173.202 100.297 172.172 101.647C171.822 102.097 171.482 102.537 171.152 102.987C170.082 104.397 169.042 105.787 168.022 107.167H168.012C165.972 109.947 164.012 112.687 162.152 115.367H162.142C159.982 118.507 157.942 121.567 156.022 124.577C155.442 125.497 154.882 126.377 154.372 127.217C154.152 127.567 153.942 127.907 153.742 128.237C152.472 130.317 151.412 132.157 150.562 133.747C148.892 136.857 148.032 139.027 147.982 140.237C147.972 140.307 147.972 140.377 147.972 140.447C148.432 141.867 149.422 142.547 150.922 142.487C151.602 142.467 152.132 142.137 152.522 141.507C152.532 141.487 152.542 141.477 152.552 141.457H152.562C154.512 138.507 160.072 133.197 169.212 125.507C170.012 124.867 170.512 124.537 170.712 124.527C170.922 124.527 171.022 124.587 171.032 124.727C171.082 126.017 170.412 128.107 169.012 130.997C167.622 133.887 166.952 135.937 167.002 137.167C167.042 138.267 167.182 139.197 167.432 139.947C167.982 141.677 169.072 142.517 170.682 142.457C172.112 142.397 173.432 142.177 174.652 141.787C175.912 141.347 177.402 140.607 179.122 139.547C179.162 139.537 179.192 139.517 179.232 139.487C182.622 137.397 186.882 134.127 192.012 129.657C192.312 129.397 192.612 129.137 192.912 128.867C193.182 128.637 193.462 128.397 193.732 128.157C194.732 127.287 195.762 126.377 196.812 125.437C198.352 124.057 199.962 122.607 201.612 121.097C205.042 117.967 207.372 115.797 208.592 114.587C209.802 113.387 210.742 112.457 211.402 111.817C212.062 111.177 212.372 110.517 212.352 109.837C212.322 109.157 211.992 108.587 211.362 108.137Z"
      fill="#94D9F4" />
    <path
      d="M251.752 106.597C251.492 106.807 250.612 107.497 249.122 108.647C247.632 109.797 246.512 110.657 245.792 111.227C241.642 114.438 237.862 117.247 234.422 119.687H234.402C234.112 119.897 233.832 120.097 233.552 120.287C232.602 120.967 231.682 121.607 230.792 122.207C227.142 124.697 223.952 126.687 221.242 128.177C215.292 131.447 209.722 133.177 204.542 133.377C203.712 133.127 203.272 132.448 203.232 131.328C203.192 130.198 203.682 128.707 204.702 126.867C205.722 125.017 206.472 124.077 206.952 124.067C207.422 124.047 207.802 124.137 208.092 124.327C208.122 124.377 208.152 124.427 208.192 124.477C208.762 125.377 209.582 125.807 210.652 125.767H210.692C210.692 125.767 210.702 125.767 210.712 125.757C211.212 125.737 211.922 125.527 212.862 125.157C212.862 125.157 212.869 125.154 212.882 125.147C214.072 124.677 215.612 123.927 217.502 122.897C218.042 122.597 218.582 122.287 219.122 121.957H219.132C221.982 120.237 224.712 118.138 227.322 115.658C230.412 112.708 231.922 110.107 231.832 107.857C231.792 106.627 231.042 105.397 229.592 104.157C228.142 102.907 226.602 102.317 224.972 102.387C222.302 102.487 219.362 103.367 216.162 105.027C215.392 105.427 214.602 105.867 213.792 106.357C213.352 106.637 212.902 106.917 212.452 107.217C210.242 108.677 208.172 110.317 206.262 112.147C206.232 112.167 206.202 112.197 206.172 112.217C204.092 114.217 202.182 116.417 200.452 118.827C198.822 121.107 197.612 123.307 196.812 125.427C196.652 125.847 196.512 126.258 196.392 126.668C196.012 127.918 195.782 129.127 195.702 130.317C195.662 130.837 195.652 131.357 195.672 131.867C195.752 133.957 196.102 135.688 196.712 137.078H196.722C197.982 139.948 200.372 141.307 203.912 141.177C208.222 141.007 213.702 139.007 220.342 135.157C220.362 135.147 220.392 135.128 220.422 135.118C220.572 135.028 220.732 134.937 220.882 134.847C226.382 131.607 231.352 128.257 235.812 124.767C236.932 123.897 238.022 123.018 239.082 122.128C240.342 121.068 241.542 120.027 242.692 119.017C243.042 118.707 243.382 118.407 243.722 118.097C244.202 117.667 244.672 117.247 245.122 116.827C245.502 116.487 245.872 116.148 246.232 115.808C247.342 114.778 248.382 113.767 249.352 112.797C250.262 111.897 251.102 111.018 251.892 110.168C252.482 109.598 252.772 108.967 252.742 108.287C252.712 107.607 252.392 107.038 251.752 106.588V106.597ZM225.082 108.128C225.132 109.348 222.982 111.717 218.652 115.227C214.312 118.737 211.392 120.527 209.892 120.587C209.682 120.587 209.582 120.527 209.572 120.387C209.542 119.567 211.572 117.258 215.662 113.448C219.752 109.648 222.682 107.707 224.452 107.637C224.862 107.617 225.072 107.788 225.082 108.128Z"
      fill="#94D9F4" />
    <path
      d="M291.162 106.118C270.602 121.858 258.472 129.797 254.792 129.937C254.452 129.937 254.282 129.848 254.272 129.648C254.222 128.348 255.142 126.608 257.042 124.418C258.942 122.238 260.982 120.248 263.162 118.448C265.352 116.668 267.582 114.908 269.872 113.178C272.162 111.458 273.522 110.428 273.962 110.108C274.392 109.778 274.592 109.378 274.582 108.908C274.562 108.428 273.652 107.098 271.862 104.908C271.372 104.448 270.592 104.238 269.542 104.278C268.482 104.318 267.072 104.668 265.322 105.318C263.572 105.958 262.202 106.298 261.222 106.338C260.472 106.368 258.942 105.898 256.622 104.948C255.872 104.628 255.032 104.267 254.112 103.847C251.952 102.877 250.292 102.178 249.132 101.768C248.262 101.468 247.672 101.328 247.352 101.338C245.382 101.408 243.952 101.688 243.082 102.168C242.212 102.648 241.812 103.568 241.862 104.928C241.872 105.058 241.922 105.258 242.022 105.518H242.032C242.072 105.648 242.132 105.788 242.202 105.938C242.292 106.118 242.392 106.308 242.512 106.488C242.552 106.578 242.612 106.658 242.682 106.748C243.092 107.368 243.672 107.977 244.392 108.597C245.012 109.127 245.732 109.648 246.562 110.178C242.592 113.328 238.772 116.278 235.122 119.008C234.852 119.248 234.612 119.468 234.422 119.688H234.402C234.152 119.948 233.962 120.188 233.832 120.408C233.642 120.698 233.562 120.948 233.572 121.158C233.592 121.668 234.412 121.888 236.052 121.828C237.682 121.768 239.002 121.348 240.002 120.548C240.092 120.468 240.182 120.388 240.262 120.308H240.272C244.352 116.588 247.222 113.928 248.902 112.328C249.022 112.498 249.172 112.658 249.352 112.798C249.382 112.828 249.402 112.848 249.432 112.868C249.602 113.008 249.802 113.148 250.032 113.268C250.272 113.408 250.542 113.538 250.842 113.658C251.232 113.828 251.672 113.978 252.172 114.118C252.362 114.178 252.562 114.228 252.762 114.278C254.762 114.788 256.342 115.018 257.502 114.968C252.062 119.278 248.522 122.668 246.882 125.158C245.232 127.648 244.462 130.177 244.562 132.767C244.602 133.967 244.792 135.008 245.132 135.888H245.142C246.122 138.538 248.412 139.787 251.992 139.657C253.882 139.587 256.422 138.578 259.642 136.638C261.662 135.428 263.942 133.838 266.492 131.888C273.092 126.818 278.992 121.678 284.182 116.468C289.382 111.248 291.962 108.218 291.932 107.358C291.892 106.508 291.642 106.098 291.162 106.108V106.118Z"
      fill="#94D9F4" />
    <path
      d="M350.452 94.2775C351.372 93.3475 352.312 92.4175 353.282 91.4675C357.292 87.4975 360.562 84.1975 363.092 81.5675C365.622 78.9475 367.972 76.1275 370.142 73.1075C372.322 70.0875 373.372 67.7275 373.302 66.0275C373.262 64.9375 372.662 64.4075 371.512 64.4575C368.102 64.5875 363.422 67.6475 357.472 73.6475C355.102 76.0275 352.872 78.3975 350.772 80.7575C347.582 84.3375 344.702 87.8975 342.122 91.4275C337.832 97.2975 335.732 100.467 335.822 100.937C334.932 99.1275 333.882 98.2475 332.652 98.2975C329.242 98.4275 325.302 99.8775 320.832 102.637C316.362 105.397 312.282 108.617 308.602 112.267C304.922 115.927 301.812 119.627 299.302 123.377C296.772 127.127 295.552 129.887 295.622 131.657C295.652 132.527 295.782 133.297 296.002 133.967C296.232 134.657 296.562 135.227 297.002 135.697C297.852 136.627 298.542 137.157 299.062 137.307C299.572 137.467 300.012 137.567 300.352 137.617C301.882 137.567 303.742 136.827 305.942 135.417C305.942 135.417 305.952 135.417 305.962 135.407C306.682 134.947 307.442 134.397 308.242 133.787C311.462 131.307 313.722 129.347 315.032 127.897C316.342 126.447 317.422 125.227 318.272 124.237C318.542 123.957 318.722 123.817 318.822 123.807C318.922 123.807 318.982 123.887 318.982 124.057C318.992 124.227 318.782 125.397 318.352 127.567C317.922 129.737 317.732 131.367 317.772 132.447C317.782 132.607 317.792 132.767 317.832 132.917C318.002 133.817 318.582 134.587 319.562 135.247C320.722 136.027 321.982 136.487 323.352 136.647C324.792 136.587 326.112 136.367 327.322 135.977C328.592 135.537 330.082 134.797 331.802 133.737C331.812 133.737 331.832 133.727 331.842 133.717C333.672 132.597 335.762 131.117 338.102 129.297C338.512 128.977 338.922 128.647 339.352 128.307C340.252 127.597 341.182 126.827 342.152 126.007C342.972 125.327 343.812 124.607 344.682 123.847C347.652 121.277 350.862 118.427 354.292 115.287C357.722 112.157 360.042 109.987 361.262 108.777C362.482 107.577 363.422 106.647 364.072 106.007C364.732 105.367 365.052 104.707 365.022 104.027C365.012 103.827 364.982 103.627 364.922 103.447C364.782 103.017 364.482 102.647 364.042 102.327C363.572 102.687 363.102 103.037 362.632 103.387C361.042 104.587 359.482 105.747 357.952 106.887C357.942 106.887 357.932 106.897 357.922 106.907C353.482 110.207 349.262 113.237 345.272 115.987H345.262C344.112 116.787 342.982 117.557 341.872 118.317H341.862C338.432 120.617 335.192 122.727 332.112 124.627C328.652 126.807 326.692 127.907 326.252 127.917C325.802 127.937 325.582 127.847 325.572 127.637C325.482 125.257 327.762 120.897 332.402 114.577C336.562 108.917 342.572 102.137 350.452 94.2675V94.2775ZM326.782 111.017C323.092 114.497 319.212 117.987 315.152 121.487C311.082 124.987 308.642 126.757 307.822 126.787C307.682 126.797 307.612 126.727 307.612 126.597C307.572 125.437 309.002 123.147 311.912 119.717C314.812 116.297 318.292 113.027 322.342 109.897C326.382 106.777 329.702 105.167 332.292 105.067C332.502 105.057 332.602 105.107 332.602 105.207C332.612 105.317 332.482 105.507 332.222 105.787L326.782 111.017Z"
      fill="#94D9F4" />
    <path
      d="M404.222 100.797C401.382 103.067 398.682 105.197 396.132 107.167C393.462 109.227 390.952 111.117 388.602 112.847C387.852 113.397 387.122 113.927 386.412 114.447C380.592 118.637 375.862 121.697 372.222 123.617C372.312 122.317 373.062 120.587 374.482 118.417C375.322 117.157 376.132 116.017 376.912 114.997C377.692 113.977 378.992 112.297 380.822 109.977C382.642 107.657 384.232 105.587 385.602 103.757C386.522 102.897 386.972 102.137 386.942 101.447C386.922 100.767 386.692 100.247 386.272 99.8875C385.852 99.5275 385.432 99.3275 385.022 99.2775C384.232 98.4875 383.572 98.0975 383.032 98.1175C382.482 98.1375 381.882 98.5075 381.232 99.2175C380.412 97.4675 379.352 96.5875 378.052 96.5675C376.842 96.6175 375.572 96.8275 374.222 97.2075C372.542 97.6775 370.762 98.3975 368.872 99.3875C368.122 99.7675 367.362 100.197 366.582 100.667C366.452 100.747 366.312 100.827 366.182 100.907C364.902 101.697 363.652 102.527 362.442 103.387C360.882 104.497 359.382 105.657 357.952 106.887C357.942 106.887 357.932 106.897 357.922 106.907C356.562 108.067 355.262 109.277 354.012 110.537C350.392 114.197 347.302 117.897 344.752 121.647C343.632 123.297 342.762 124.747 342.152 126.007C341.972 126.377 341.812 126.737 341.682 127.067C341.212 128.207 340.992 129.157 341.022 129.927C341.032 130.187 341.052 130.447 341.082 130.687C341.142 131.257 341.252 131.777 341.412 132.237C341.642 132.927 341.972 133.497 342.402 133.967C343.262 134.897 343.942 135.427 344.462 135.587C344.982 135.737 345.412 135.837 345.752 135.897C347.302 135.837 349.192 135.087 351.422 133.647C351.422 133.647 351.432 133.637 351.442 133.637C352.142 133.177 352.882 132.647 353.652 132.057C356.862 129.577 359.132 127.617 360.442 126.167C361.752 124.717 362.832 123.497 363.682 122.507C363.942 122.227 364.122 122.087 364.222 122.087C364.332 122.077 364.382 122.177 364.392 122.387L363.822 128.957C363.872 130.217 364.002 131.237 364.232 132.027C364.382 132.567 364.572 132.997 364.812 133.327C365.382 134.127 366.322 134.497 367.612 134.447C368.282 134.417 369.462 133.877 371.162 132.797C372.732 131.807 374.762 130.347 377.222 128.447C379.062 127.017 381.112 125.337 383.372 123.387C383.492 123.287 383.612 123.187 383.732 123.077C383.952 122.887 384.182 122.687 384.412 122.487C385.832 121.257 387.162 120.097 388.412 118.987C389.522 118.007 390.572 117.067 391.552 116.177C393.632 114.287 395.792 112.317 398.032 110.247C400.272 108.187 401.772 106.797 402.532 106.077C403.292 105.367 403.932 104.767 404.462 104.267C404.992 103.767 405.242 103.177 405.212 102.497C405.192 101.817 404.862 101.247 404.222 100.797ZM360.552 119.767C356.492 123.267 354.052 125.027 353.232 125.057C353.092 125.067 353.022 124.997 353.012 124.867C352.972 123.707 354.402 121.417 357.312 117.997C360.222 114.567 363.692 111.297 367.742 108.177C371.792 105.047 375.102 103.437 377.702 103.337C377.902 103.337 378.002 103.377 378.012 103.487C378.012 103.587 377.882 103.777 377.622 104.057L372.082 109.287C368.462 112.777 364.622 116.267 360.552 119.767Z"
      fill="#94D9F4" />
    <path
      d="M423.162 97.9275C422.282 97.9575 421.612 98.4575 421.172 99.4375C415.952 105.637 408.622 112.237 399.192 119.217C397.992 120.007 397.172 120.417 396.732 120.437C396.282 120.437 396.062 120.257 396.042 119.847C395.992 118.307 397.092 116.027 399.382 112.997C399.622 112.677 399.882 112.347 400.152 112.007C401.382 110.457 402.562 109.037 403.672 107.727C404.782 106.427 405.912 105.167 407.062 103.967C407.482 103.527 407.832 103.157 408.132 102.857C408.632 102.317 408.932 101.997 409.032 101.887C409.192 101.717 409.272 101.457 409.262 101.117C409.252 100.807 409.122 100.517 408.872 100.267C408.492 99.8875 407.852 99.5775 406.942 99.3275C406.742 99.2775 406.532 99.2275 406.312 99.1775C406.042 99.0575 405.802 98.9975 405.592 98.9975C403.382 99.0775 400.232 101.807 396.132 107.167C395.312 108.247 394.442 109.437 393.542 110.727C391.392 113.817 389.682 116.577 388.412 118.987C388.132 119.507 387.882 120.017 387.652 120.507C386.842 122.197 386.282 123.697 385.982 125.007H385.972C385.752 125.947 385.652 126.777 385.682 127.507C385.702 128.097 385.772 128.627 385.892 129.077C386.272 130.617 387.172 131.347 388.592 131.297C389.072 131.277 389.582 131.187 390.132 131.027C392.802 130.257 396.182 127.807 400.282 123.677L402.172 122.067C402.302 122.067 402.362 122.217 402.342 122.527C402.312 122.837 400.242 125.667 396.112 131.007C391.972 136.347 389.572 139.077 388.892 139.167L386.732 138.947C383.412 139.477 379.512 141.107 375.042 143.847C370.572 146.577 366.572 150.057 363.042 154.287C359.522 158.517 357.832 162.537 357.972 166.357C357.992 166.807 358.062 167.227 358.182 167.617C358.482 168.667 359.152 169.507 360.162 170.167C361.562 171.067 363.142 171.487 364.912 171.417C368.352 171.287 371.612 170.217 374.722 168.207H374.732C374.832 168.137 374.932 168.077 375.032 168.007C378.222 165.877 381.612 162.557 385.202 158.047C388.782 153.547 392.282 148.767 395.712 143.717C407.562 126.677 418.082 112.627 427.292 101.557C427.812 100.917 428.062 100.367 428.042 99.8875C428.002 98.7975 426.372 98.1375 423.152 97.9275H423.162ZM386.672 142.627L382.572 148.117C379.842 151.697 376.542 155.527 372.672 159.597C368.802 163.677 365.682 166.127 363.322 166.967C363.052 166.977 362.912 166.887 362.902 166.677C362.842 165.047 364.322 162.187 367.342 158.117C370.362 154.037 373.832 150.257 377.762 146.757C381.692 143.267 384.752 141.477 386.932 141.397C387.132 141.387 387.242 141.447 387.242 141.587C387.242 141.717 387.052 142.067 386.672 142.627Z"
      fill="#94D9F4" />
  </g>
  <defs>
    <filter id="filter0_dd_790_365" x="0" y="0" width="432.043" height="179.425"
      filterUnits="userSpaceOnUse" color-interpolation-filters="sRGB">
      <feFlood flood-opacity="0" result="BackgroundImageFix" />
      <feColorMatrix in="SourceAlpha" type="matrix"
        values="0 0 0 0 0 0 0 0 0 0 0 0 0 0 0 0 0 0 127 0" result="hardAlpha" />
      <feOffset dy="4" />
      <feGaussianBlur stdDeviation="2" />
      <feComposite in2="hardAlpha" operator="out" />
      <feColorMatrix type="matrix" values="0 0 0 0 0 0 0 0 0 0 0 0 0 0 0 0 0 0 0.25 0" />
      <feBlend mode="normal" in2="BackgroundImageFix" result="effect1_dropShadow_790_365" />
      <feColorMatrix in="SourceAlpha" type="matrix"
        values="0 0 0 0 0 0 0 0 0 0 0 0 0 0 0 0 0 0 127 0" result="hardAlpha" />
      <feOffset dy="4" />
      <feGaussianBlur stdDeviation="2" />
      <feComposite in2="hardAlpha" operator="out" />
      <feColorMatrix type="matrix" values="0 0 0 0 0 0 0 0 0 0 0 0 0 0 0 0 0 0 0.25 0" />
      <feBlend mode="normal" in2="effect1_dropShadow_790_365" result="effect2_dropShadow_790_365" />
      <feBlend mode="normal" in="SourceGraphic" in2="effect2_dropShadow_790_365" result="shape" />
    </filter>
  </defs>
</svg>