<svg width="342" height="392" viewBox="0 0 342 392" fill="none" xmlns="http://www.w3.org/2000/svg">
  <g filter="url(#filter0_d_791_4)">
    <g opacity="0.24">
      <path
        d="M171.066 141.821C163.075 149.61 150.285 149.44 142.497 141.449C134.708 133.457 134.878 120.668 142.869 112.879C150.861 105.091 163.65 105.261 171.439 113.252C179.227 121.243 179.057 134.033 171.066 141.821Z"
        fill="#2A3791" />
      <path
        d="M150.842 147.093C147.586 146.083 144.619 144.281 142.169 141.771C138.313 137.816 136.239 132.604 136.303 127.084C136.377 121.564 138.593 116.407 142.547 112.551C146.502 108.696 151.714 106.622 157.234 106.686C162.754 106.76 167.911 108.975 171.767 112.93C175.622 116.885 177.696 122.096 177.632 127.616C177.558 133.136 175.343 138.294 171.398 142.15C167.443 146.005 162.232 148.079 156.712 148.015C154.702 147.986 152.729 147.679 150.852 147.103L150.842 147.093ZM162.822 108.492C156.13 106.429 148.54 107.985 143.182 113.207C135.385 120.81 135.221 133.34 142.824 141.136C150.427 148.933 162.957 149.097 170.754 141.494C174.534 137.814 176.655 132.874 176.722 127.604C176.79 122.334 174.801 117.345 171.121 113.564C168.74 111.126 165.88 109.426 162.832 108.492L162.822 108.492Z"
        fill="#231F20" />
    </g>
    <path d="M140.244 139.26L130.106 149.402L134.774 154.068L144.912 143.926L140.244 139.26Z"
      fill="#66C9CF" />
    <path
      d="M134.782 154.725L129.469 149.415L140.254 138.623L145.567 143.934L134.782 154.725ZM130.76 149.416L134.783 153.445L144.286 143.943L140.263 139.914L130.76 149.416Z"
      fill="#231F20" />
    <path
      d="M172.549 111.568C163.858 102.875 149.763 102.883 141.07 111.575C132.377 120.267 132.385 134.361 141.077 143.055C149.769 151.748 163.863 151.74 172.556 143.048C181.249 134.356 181.241 120.262 172.549 111.568ZM143.281 140.847C135.79 133.354 135.785 121.21 143.279 113.719C150.773 106.229 162.916 106.223 170.407 113.717C177.897 121.211 177.903 133.355 170.409 140.845C162.915 148.336 150.771 148.341 143.281 140.847Z"
      fill="#313D94" />
    <path
      d="M150.076 148.995C146.66 147.941 143.455 146.063 140.749 143.367C131.891 134.509 131.891 120.105 140.748 111.247C149.605 102.389 164.01 102.389 172.868 111.246C181.725 120.103 181.726 134.508 172.869 143.366C166.708 149.528 157.869 151.404 150.066 148.994L150.076 148.995ZM163.28 106.492C155.794 104.18 147.308 105.985 141.393 111.893C132.894 120.4 132.899 134.224 141.395 142.732C149.901 151.231 163.726 151.226 172.234 142.73C180.733 134.224 180.728 120.399 172.232 111.891C169.644 109.297 166.557 107.502 163.28 106.492ZM151.027 146.047C148.019 145.114 145.258 143.466 142.963 141.17C139.252 137.459 137.211 132.528 137.208 127.286C137.205 122.045 139.245 117.113 142.957 113.401C146.668 109.69 151.599 107.649 156.84 107.646C162.082 107.644 167.014 109.684 170.725 113.395C174.436 117.106 176.477 122.037 176.48 127.278C176.483 132.52 174.443 137.452 170.732 141.163C167.021 144.874 162.09 146.915 156.848 146.918C154.847 146.92 152.884 146.622 151.027 146.047ZM162.389 109.392C160.612 108.848 158.749 108.563 156.838 108.557C151.837 108.555 147.138 110.502 143.601 114.047C140.064 117.583 138.12 122.287 138.118 127.288C138.117 132.29 140.064 136.988 143.609 140.525C147.144 144.062 151.849 146.007 156.85 146.008C161.851 146.009 166.55 144.063 170.087 140.517C173.624 136.982 175.568 132.278 175.57 127.276C175.571 122.275 173.624 117.576 170.079 114.039C167.891 111.856 165.259 110.271 162.389 109.392Z"
      fill="#231F20" />
    <path
      d="M111.145 173.278L111.077 173.206C109.104 171.228 109.102 168.027 111.08 166.054L130.805 146.317C132.783 144.344 135.984 144.342 137.957 146.32L138.025 146.392C139.998 148.37 140 151.571 138.021 153.544L118.297 173.281C116.319 175.254 113.118 175.256 111.145 173.278Z"
      fill="#7FD3F2" />
    <path
      d="M113.095 174.966C112.271 174.705 111.492 174.256 110.827 173.6L110.759 173.528C108.611 171.376 108.605 167.885 110.758 165.726L130.483 145.989C132.635 143.84 136.137 143.835 138.285 145.988L138.353 146.059C140.502 148.212 140.507 151.703 138.354 153.862L118.63 173.599C117.133 175.093 114.991 175.552 113.095 174.966ZM111.473 172.956C113.27 174.75 116.191 174.751 117.985 172.954L137.71 153.216C138.581 152.347 139.059 151.188 139.059 149.958C139.059 148.727 138.577 147.575 137.707 146.704L137.639 146.632C135.842 144.838 132.921 144.837 131.127 146.634L111.403 166.372C109.609 168.169 109.608 171.09 111.405 172.884L111.473 172.956Z"
      fill="#231F20" />
    <g style="mix-blend-mode:multiply" opacity="0.33">
      <path
        d="M114.694 169.663L134.419 149.925C135.751 148.597 137.632 148.163 139.332 148.624C139.112 147.798 138.68 147.028 138.036 146.382L137.967 146.31C135.995 144.332 132.784 144.334 130.815 146.307L111.091 166.044C109.113 168.017 109.115 171.228 111.088 173.196L111.156 173.268C111.8 173.914 112.58 174.343 113.395 174.563C112.936 172.871 113.362 170.981 114.695 169.653L114.694 169.663Z"
        fill="#454B9B" />
      <path
        d="M113.095 174.956C112.242 174.695 111.463 174.226 110.828 173.59L110.76 173.518C108.611 171.366 108.606 167.875 110.759 165.716L130.483 145.979C132.636 143.83 136.137 143.825 138.285 145.978L138.354 146.049C139.028 146.726 139.517 147.568 139.765 148.494L139.976 149.26L139.211 149.051C137.611 148.612 135.9 149.071 134.741 150.233L115.017 169.961C113.849 171.123 113.397 172.842 113.838 174.433L114.05 175.199L113.285 174.99C113.225 174.979 113.165 174.957 113.106 174.936L113.095 174.956ZM135.747 145.486C134.168 144.998 132.368 145.374 131.128 146.624L111.403 166.362C109.609 168.159 109.608 171.08 111.405 172.874L111.474 172.946C111.855 173.325 112.307 173.636 112.802 173.868C112.612 172.213 113.183 170.526 114.372 169.335L134.096 149.607C135.295 148.416 136.97 147.836 138.636 148.027C138.408 147.531 138.099 147.084 137.718 146.704L137.649 146.633C137.102 146.089 136.452 145.703 135.756 145.496L135.747 145.486Z"
        fill="#231F20" />
    </g>
    <path
      d="M158.887 147.808C170.288 146.674 178.607 136.513 177.463 125.112C176.329 113.711 166.168 105.392 154.767 106.536C143.366 107.67 135.047 117.831 136.191 129.232C137.325 140.633 147.486 148.952 158.887 147.808ZM143.271 140.847C135.781 133.353 135.775 121.21 143.269 113.719C150.763 106.229 162.907 106.223 170.397 113.717C177.888 121.211 177.893 133.354 170.399 140.845C162.905 148.335 150.762 148.341 143.271 140.847Z"
      fill="white" />
    <path
      d="M150.614 147.427C142.711 144.985 136.618 138.005 135.75 129.271C135.186 123.636 136.85 118.125 140.438 113.741C144.025 109.356 149.102 106.639 154.738 106.075C166.369 104.917 176.766 113.431 177.924 125.063C179.082 136.694 170.568 147.091 158.936 148.249C156.048 148.539 153.225 148.231 150.614 147.417L150.614 147.427ZM162.799 107.781C160.297 107.01 157.593 106.714 154.826 106.987C149.431 107.527 144.576 110.13 141.144 114.318C137.711 118.506 136.113 123.789 136.652 129.183C137.762 140.313 147.718 148.467 158.848 147.357C169.978 146.246 178.132 136.291 177.021 125.161C176.184 116.798 170.364 110.115 162.799 107.781ZM151.027 146.047C148.019 145.114 145.258 143.466 142.963 141.17C139.252 137.459 137.211 132.528 137.208 127.286C137.205 122.045 139.245 117.113 142.957 113.401C146.668 109.69 151.599 107.649 156.84 107.646C162.082 107.644 167.014 109.684 170.725 113.395C174.436 117.106 176.477 122.037 176.48 127.278C176.483 132.52 174.443 137.452 170.732 141.163C167.02 144.874 162.09 146.915 156.848 146.918C154.847 146.92 152.884 146.622 151.027 146.047ZM162.389 109.391C160.612 108.848 158.748 108.563 156.838 108.557C151.837 108.555 147.138 110.502 143.601 114.047C140.064 117.583 138.12 122.287 138.118 127.288C138.117 132.29 140.064 136.988 143.609 140.525C147.144 144.062 151.849 146.007 156.85 146.008C161.851 146.009 166.55 144.063 170.087 140.517C173.624 136.982 175.568 132.278 175.57 127.276C175.571 122.275 173.624 117.576 170.079 114.039C167.891 111.856 165.259 110.271 162.389 109.391Z"
      fill="#231F20" />
    <g opacity="0.57">
      <path
        d="M162.957 113.637C167.01 116.045 168.333 121.289 165.924 125.332C163.515 129.385 158.272 130.708 154.229 128.299C150.176 125.89 148.853 120.647 151.261 116.604C153.67 112.551 158.914 111.228 162.957 113.637Z"
        fill="white" />
      <path
        d="M155.948 129.571C155.273 129.365 154.61 129.069 153.989 128.703C151.928 127.473 150.465 125.517 149.871 123.192C149.277 120.867 149.636 118.445 150.857 116.384C153.391 112.124 158.916 110.728 163.176 113.252C167.436 115.786 168.842 121.311 166.308 125.571C165.078 127.632 163.122 129.095 160.797 129.689C159.176 130.1 157.507 130.059 155.948 129.571ZM160.966 113.248C157.481 112.173 153.586 113.569 151.636 116.833C150.531 118.687 150.218 120.86 150.747 122.953C151.277 125.047 152.594 126.809 154.448 127.904C156.302 129.01 158.475 129.322 160.568 128.793C162.662 128.264 164.424 126.946 165.52 125.092C167.803 121.266 166.533 116.294 162.708 114.011C162.145 113.677 161.561 113.423 160.956 113.238L160.966 113.248Z"
        fill="#6162A8" />
    </g>
    <path
      d="M336.67 137.866L316.957 236.727C316.957 236.727 316.947 236.736 316.957 236.737L316.753 237.732L311.498 248.178L309.806 251.528C309.565 252.002 308.858 251.855 308.821 251.324L308.552 247.586L308.515 247.055L307.846 237.926L307.742 236.443L307.704 235.932L307.897 234.997L327.303 137.638L336.67 137.866Z"
      fill="#90D8F3" />
    <path
      d="M336.161 137.853L316.574 236.037L316.426 236.784L316.277 237.56L316.224 237.669L311.453 247.136L311.222 247.601L310.981 248.065L309.352 251.297L309.08 247.679L309.042 247.158L309.005 246.637L308.25 236.536L308.211 236.074L308.214 235.945L308.284 235.526L308.341 235.237L308.488 234.531L327.803 137.641L326.794 137.616L307.229 235.711L307.185 235.89L307.224 236.341L308.024 247.483L308.3 251.381C308.338 251.842 308.67 252.21 309.117 252.311C309.177 252.323 309.237 252.324 309.297 252.326C309.697 252.335 310.052 252.124 310.231 251.768L311.986 248.29L312.28 247.707L317.177 237.972L317.234 237.694L337.16 137.888L336.15 137.863L336.161 137.853Z"
      fill="#231F20" />
    <path
      d="M331.982 137.752L312.394 236.006L312.394 236.016L312.234 236.822L311.736 236.73L311.617 236.697L308.252 236.035L308.222 236.025L307.704 235.932L307.897 234.997L327.304 137.638L331.982 137.752Z"
      fill="#33A4DD" />
    <path
      d="M331.472 137.74L312.02 235.357L311.873 236.063C311.873 236.063 311.883 236.063 311.872 236.073L311.848 236.233L311.331 236.14L308.702 235.616L308.304 235.537L308.361 235.248L308.508 234.541L327.823 137.651L326.814 137.627L307.249 235.721L307.205 235.9L307.125 236.318L307.244 236.341L307.752 236.433L308.27 236.546L311.654 237.218L311.883 237.264L312.152 237.32L312.401 237.376L312.63 237.422L312.697 237.114L312.847 236.317L312.984 235.61L332.502 137.775L331.472 137.75L331.472 137.74Z"
      fill="#231F20" />
    <path
      d="M316.753 237.732C316.753 237.732 315.919 233.351 312.234 236.832C310.373 232.306 307.714 235.932 307.714 235.932L308.524 247.075L311.75 247.714L316.763 237.732L316.753 237.732Z"
      fill="#B9B7D9" />
    <path
      d="M312.006 248.27L308.034 247.474L307.188 235.77L307.292 235.622C307.343 235.553 308.634 233.874 310.16 234.061C311.038 234.172 311.782 234.821 312.394 236.006C313.496 235.112 314.494 234.796 315.347 235.077C316.816 235.553 317.208 237.543 317.226 237.634L317.262 237.804L311.996 248.28L312.006 248.27ZM308.985 246.646L311.454 247.136L316.215 237.659C316.087 237.166 315.709 236.246 315.044 236.03C314.429 235.835 313.579 236.235 312.565 237.19L312.033 237.688L311.759 237.011C311.41 236.172 310.834 235.148 310.046 235.049C309.319 234.951 308.561 235.663 308.211 236.074L308.975 246.636L308.985 246.646Z"
      fill="#231F20" />
    <path
      d="M311.73 247.703L316.744 237.722C316.744 237.722 315.91 233.34 312.224 236.822L310.117 247.384L311.73 247.703Z"
      fill="#A19ECB" />
    <path
      d="M312.006 248.27L309.528 247.78L311.76 236.571L311.873 236.463C313.183 235.225 314.355 234.753 315.347 235.087C316.816 235.563 317.208 237.553 317.226 237.644L317.261 237.814L311.996 248.29L312.006 248.27ZM310.707 246.988L311.454 247.136L316.215 237.659C316.087 237.166 315.709 236.246 315.044 236.03C314.448 235.846 313.639 236.206 312.678 237.083L310.707 246.988Z"
      fill="#231F20" />
    <path
      d="M42.9038 288.007L6.47128 268.698L33.5165 217.669L69.9491 236.978C71.786 237.952 72.4812 240.22 71.5064 242.057L47.9831 286.45C47.0082 288.286 44.7407 288.982 42.9038 288.007Z"
      fill="#9D9AC9" stroke="#231F20" stroke-width="0.86" stroke-miterlimit="10" />
    <path
      d="M42.4758 285.436L6.03329 266.126L33.0686 215.097L69.5011 234.406C71.338 235.381 72.0332 237.648 71.0584 239.485L47.5351 283.878C46.5602 285.715 44.2927 286.41 42.4558 285.435L42.4758 285.436Z"
      fill="white" stroke="#231F20" stroke-width="0.86" stroke-miterlimit="10" />
    <path
      d="M41.543 282.662L5.11044 263.353L32.1457 212.324L68.5782 231.633C70.4151 232.608 71.1104 234.875 70.1355 236.712L46.6122 281.105C45.6374 282.942 43.3699 283.637 41.533 282.662L41.543 282.662Z"
      fill="#94D9F4" stroke="#231F20" stroke-width="0.86" stroke-miterlimit="10" />
    <path
      d="M34.8462 218.521C34.4374 219.291 33.4799 219.588 32.7096 219.179C31.9393 218.771 31.6424 217.813 32.0512 217.043C32.46 216.273 33.4175 215.976 34.1878 216.384C34.9581 216.793 35.255 217.751 34.8462 218.521Z"
      fill="#9592C4" stroke="#231F20" stroke-width="0.86" stroke-miterlimit="10" />
    <path
      d="M28.9141 216.066L32.6375 218.037C32.9237 218.194 33.2865 218.083 33.4438 217.787C33.601 217.491 33.4898 217.128 33.1935 216.971L29.4702 215C29.1839 214.843 28.8211 214.954 28.6639 215.25C28.5066 215.546 28.6179 215.909 28.9141 216.066Z"
      fill="white" stroke="#231F20" stroke-width="0.86" stroke-miterlimit="10" />
    <path
      d="M32.2886 223.34C31.8798 224.111 30.9223 224.408 30.152 223.999C29.3817 223.59 29.0848 222.633 29.4936 221.862C29.9024 221.092 30.8599 220.795 31.6302 221.204C32.4005 221.613 32.6974 222.57 32.2886 223.34Z"
      fill="#9592C4" stroke="#231F20" stroke-width="0.86" stroke-miterlimit="10" />
    <path
      d="M26.3663 220.886L30.0896 222.857C30.3759 223.014 30.7387 222.903 30.8959 222.606C31.0531 222.31 30.9419 221.947 30.6456 221.79L26.9223 219.819C26.6361 219.662 26.2732 219.774 26.116 220.07C25.9588 220.366 26.07 220.729 26.3663 220.886Z"
      fill="white" stroke="#231F20" stroke-width="0.86" stroke-miterlimit="10" />
    <path
      d="M29.7305 228.17C29.3217 228.94 28.3642 229.237 27.5939 228.828C26.8236 228.419 26.5267 227.462 26.9355 226.692C27.3443 225.921 28.3018 225.624 29.0721 226.033C29.8424 226.442 30.1393 227.4 29.7305 228.17Z"
      fill="#9592C4" stroke="#231F20" stroke-width="0.86" stroke-miterlimit="10" />
    <path
      d="M23.8087 225.706L27.532 227.676C27.8183 227.833 28.1811 227.722 28.3383 227.426C28.4955 227.13 28.3843 226.767 28.088 226.61L24.3647 224.639C24.0784 224.482 23.7156 224.593 23.5584 224.889C23.4012 225.185 23.5124 225.548 23.8087 225.706Z"
      fill="white" stroke="#231F20" stroke-width="0.86" stroke-miterlimit="10" />
    <path
      d="M27.1831 232.99C26.7743 233.76 25.8168 234.057 25.0465 233.648C24.2762 233.239 23.9793 232.282 24.3881 231.511C24.7969 230.741 25.7544 230.444 26.5247 230.853C27.295 231.262 27.5919 232.219 27.1831 232.99Z"
      fill="#9592C4" stroke="#231F20" stroke-width="0.86" stroke-miterlimit="10" />
    <path
      d="M21.2511 230.525L24.9744 232.496C25.2606 232.653 25.6235 232.542 25.7807 232.245C25.9379 231.949 25.8267 231.586 25.5304 231.429L21.8071 229.458C21.5208 229.301 21.158 229.412 21.0008 229.709C20.8436 230.005 20.9548 230.368 21.2511 230.525Z"
      fill="white" stroke="#231F20" stroke-width="0.86" stroke-miterlimit="10" />
    <path
      d="M24.6255 237.809C24.2167 238.579 23.2592 238.876 22.4889 238.467C21.7186 238.059 21.4217 237.101 21.8305 236.331C22.2393 235.56 23.1968 235.264 23.9671 235.672C24.7374 236.081 25.0343 237.039 24.6255 237.809Z"
      fill="#9592C4" stroke="#231F20" stroke-width="0.86" stroke-miterlimit="10" />
    <path
      d="M18.7037 235.345L22.427 237.315C22.7133 237.472 23.0761 237.361 23.2333 237.065C23.3905 236.769 23.2793 236.406 22.983 236.249L19.2597 234.278C18.9735 234.121 18.6106 234.232 18.4534 234.528C18.2962 234.825 18.4074 235.187 18.7037 235.345Z"
      fill="white" stroke="#231F20" stroke-width="0.86" stroke-miterlimit="10" />
    <path
      d="M22.0679 242.628C21.6591 243.399 20.7016 243.695 19.9313 243.287C19.161 242.878 18.8641 241.92 19.2729 241.15C19.6817 240.38 20.6392 240.083 21.4095 240.492C22.1798 240.901 22.4767 241.858 22.0679 242.628Z"
      fill="#9592C4" stroke="#231F20" stroke-width="0.86" stroke-miterlimit="10" />
    <path
      d="M16.1461 240.164L19.8694 242.135C20.1557 242.292 20.5185 242.181 20.6757 241.884C20.8329 241.588 20.7217 241.225 20.4254 241.068L16.7021 239.097C16.4158 238.94 16.053 239.051 15.8958 239.348C15.7386 239.644 15.8498 240.007 16.1461 240.164Z"
      fill="white" stroke="#231F20" stroke-width="0.86" stroke-miterlimit="10" />
    <path
      d="M19.5205 247.448C19.1117 248.218 18.1542 248.515 17.3839 248.106C16.6136 247.698 16.3167 246.74 16.7255 245.97C17.1343 245.199 18.0918 244.903 18.8621 245.311C19.6324 245.72 19.9293 246.678 19.5205 247.448Z"
      fill="#9592C4" stroke="#231F20" stroke-width="0.86" stroke-miterlimit="10" />
    <path
      d="M13.5885 244.983L17.3118 246.954C17.598 247.111 17.9609 247 18.1181 246.704C18.2753 246.407 18.1641 246.045 17.8678 245.887L14.1445 243.917C13.8582 243.76 13.4954 243.871 13.3382 244.167C13.181 244.463 13.2922 244.826 13.5885 244.983Z"
      fill="white" stroke="#231F20" stroke-width="0.86" stroke-miterlimit="10" />
    <path
      d="M16.9629 252.267C16.5541 253.038 15.5966 253.335 14.8263 252.926C14.056 252.517 13.7591 251.559 14.1679 250.789C14.5767 250.019 15.5342 249.722 16.3045 250.131C17.0748 250.54 17.3717 251.497 16.9629 252.267Z"
      fill="#9592C4" stroke="#231F20" stroke-width="0.86" stroke-miterlimit="10" />
    <path
      d="M11.0406 249.813L14.7639 251.784C15.0502 251.941 15.413 251.83 15.5702 251.533C15.7275 251.237 15.6162 250.874 15.32 250.717L11.5966 248.746C11.3104 248.589 10.9476 248.7 10.7903 248.997C10.6331 249.293 10.7443 249.656 11.0406 249.813Z"
      fill="white" stroke="#231F20" stroke-width="0.86" stroke-miterlimit="10" />
    <path
      d="M14.4053 257.087C13.9965 257.857 13.039 258.154 12.2687 257.745C11.4984 257.336 11.2015 256.379 11.6103 255.609C12.0191 254.838 12.9766 254.541 13.7469 254.95C14.5172 255.359 14.8141 256.316 14.4053 257.087Z"
      fill="#9592C4" stroke="#231F20" stroke-width="0.86" stroke-miterlimit="10" />
    <path
      d="M8.483 254.632L12.2063 256.603C12.4926 256.76 12.8554 256.649 13.0126 256.353C13.1698 256.056 13.0586 255.694 12.7623 255.536L9.03903 253.566C8.75275 253.409 8.38994 253.52 8.23271 253.816C8.07548 254.112 8.18672 254.475 8.483 254.632Z"
      fill="white" stroke="#231F20" stroke-width="0.86" stroke-miterlimit="10" />
    <path
      d="M11.8574 261.916C11.4486 262.687 10.4912 262.984 9.72084 262.575C8.95052 262.166 8.65365 261.209 9.06245 260.438C9.47125 259.668 10.4287 259.371 11.199 259.78C11.9694 260.189 12.2662 261.146 11.8574 261.916Z"
      fill="#9592C4" stroke="#231F20" stroke-width="0.86" stroke-miterlimit="10" />
    <path
      d="M5.92538 259.452L9.64869 261.423C9.93496 261.58 10.2978 261.468 10.455 261.172C10.6122 260.876 10.501 260.513 10.2047 260.356L6.48141 258.385C6.19513 258.228 5.83233 258.339 5.6751 258.636C5.51787 258.932 5.6291 259.295 5.92538 259.452Z"
      fill="white" stroke="#231F20" stroke-width="0.86" stroke-miterlimit="10" />
    <path opacity="0.21"
      d="M37.0406 218.992L13.481 263.434L42.6373 278.89L66.197 234.449L37.0406 218.992Z"
      fill="white" stroke="#231F20" stroke-width="0.86" stroke-miterlimit="10" />
    <path
      d="M36.6982 230.004L36.7216 229.96C37.2931 228.882 38.6361 228.462 39.7229 229.038L56.5187 237.942C57.5966 238.514 58.0164 239.857 57.4403 240.944L57.4216 240.979C56.8502 242.057 55.5071 242.477 54.4203 241.901L37.6245 232.997C36.5466 232.425 36.1356 231.087 36.7071 230.009L36.6982 230.004Z"
      fill="#9592C4" stroke="#231F20" stroke-width="0.86" stroke-miterlimit="10" />
    <path
      d="M54.3258 246.812C54.0426 247.355 53.3674 247.559 52.8241 247.275L34.0698 237.328C33.5265 237.045 33.3228 236.369 33.6061 235.826C33.8893 235.283 34.5645 235.079 35.1078 235.362L53.8621 245.31C54.4054 245.593 54.6091 246.268 54.3258 246.812Z"
      fill="#9592C4" stroke="#231F20" stroke-width="0.86" stroke-miterlimit="10" />
    <path
      d="M66.179 234.465C58.8412 249.542 50.9793 264.376 42.6145 278.907C49.9524 263.821 57.8142 248.997 66.179 234.465Z"
      fill="#231F20" />
    <path d="M23.8889 144.043L22.9745 160.296L33.6845 151.353L63.7745 125.325L23.8889 144.043Z"
      fill="#66C9CF" />
    <path
      d="M22.4382 161.373L23.4362 143.732L66.7215 123.416L34.0056 151.721L22.4479 161.384L22.4382 161.373ZM24.3614 144.355L23.5207 159.219L33.3732 150.985L60.8272 127.234L24.3614 144.355Z"
      fill="#231F20" />
    <path d="M63.7741 125.325L29.6905 148.565L48.5167 161.736L63.7741 125.325Z" fill="white" />
    <path
      d="M48.7291 162.471L28.8507 148.555L64.8364 124.01L48.7293 162.461L48.7291 162.471ZM30.5409 148.566L48.3046 161L62.702 126.639L30.5407 148.576L30.5409 148.566Z"
      fill="#231F20" />
    <path d="M7.73665 133.199L23.8884 144.043L63.774 125.325L7.73665 133.199Z" fill="white" />
    <path
      d="M23.8553 144.593L6.42378 132.897L66.8573 124.41L23.8553 144.593ZM9.05016 133.491L23.9422 143.485L60.6914 126.231L9.03992 133.5L9.05016 133.491Z"
      fill="#231F20" />
    <path d="M22.9739 160.296L29.6903 148.565L33.6839 151.353L22.9739 160.296Z" fill="#D4EDEE" />
    <path
      d="M21.2329 162.384L29.5372 147.872L34.465 151.322L21.2229 162.384L21.2329 162.384ZM29.8537 149.26L24.725 158.218L32.8928 151.394L29.8534 149.27L29.8537 149.26Z"
      fill="#231F20" />
    <path
      d="M290.174 175.129C290.19 174.439 287.675 173.798 284.221 173.524C283.682 173.481 283.262 173.041 283.245 172.5C283.139 169.027 282.621 166.494 281.931 166.477C281.241 166.46 280.6 168.975 280.326 172.43C280.283 172.969 279.843 173.388 279.302 173.405C275.829 173.511 273.295 174.03 273.279 174.719C273.262 175.409 275.777 176.05 279.231 176.324C279.77 176.367 280.19 176.808 280.207 177.348C280.313 180.822 280.831 183.355 281.521 183.372C282.211 183.389 282.852 180.873 283.126 177.419C283.169 176.88 283.609 176.46 284.15 176.444C287.623 176.338 290.157 175.819 290.174 175.129Z"
      fill="#7FD3F2" />
    <path
      d="M281.511 183.772C280.192 183.74 279.879 179.731 279.806 177.348C279.794 177.018 279.541 176.742 279.202 176.714C276.826 176.526 272.837 176.019 272.869 174.699C272.901 173.38 276.909 173.067 279.292 172.995C279.622 172.983 279.899 172.729 279.927 172.39C280.114 170.014 280.621 166.025 281.941 166.057C283.26 166.089 283.573 170.098 283.646 172.48C283.658 172.811 283.911 173.087 284.25 173.115C286.627 173.303 290.615 173.81 290.583 175.129C290.551 176.449 286.543 176.762 284.16 176.834C283.83 176.846 283.554 177.099 283.525 177.439C283.338 179.815 282.831 183.804 281.511 183.772ZM281.881 166.866C281.698 167.011 281.05 168.556 280.735 172.46C280.677 173.208 280.073 173.784 279.322 173.806C275.408 173.921 273.834 174.503 273.677 174.759C273.823 174.943 275.368 175.59 279.271 175.905C280.02 175.963 280.596 176.567 280.617 177.318C280.733 181.232 281.315 182.807 281.571 182.963C281.754 182.817 282.402 181.273 282.717 177.369C282.775 176.62 283.379 176.045 284.13 176.023C287.834 175.913 289.447 175.382 289.734 175.109C289.461 174.822 287.875 174.213 284.181 173.924C283.432 173.865 282.856 173.261 282.835 172.51C282.72 168.597 282.138 167.022 281.881 166.866Z"
      fill="#231F20" />
    <path
      d="M258.681 14.4283C258.696 13.7785 256.33 13.181 253.055 12.9215C252.546 12.8791 252.156 12.4696 252.139 11.959C252.038 8.68559 251.546 6.28295 250.906 6.26744C250.266 6.25192 249.659 8.61788 249.399 11.8926C249.357 12.4017 248.947 12.7919 248.437 12.8095C245.163 12.9101 242.761 13.402 242.745 14.0418C242.73 14.6817 245.096 15.2892 248.37 15.5487C248.879 15.591 249.27 16.0006 249.287 16.5112C249.388 19.7846 249.88 22.1872 250.52 22.2028C251.159 22.2183 251.767 19.8523 252.026 16.5776C252.069 16.0685 252.478 15.6783 252.989 15.6607C256.262 15.56 258.665 15.0682 258.681 14.4283Z"
      fill="#7FD3F2" />
    <path
      d="M250.51 22.5926C249.27 22.5626 248.972 18.7842 248.906 16.532C248.894 16.2216 248.65 15.9656 248.341 15.9381C246.094 15.7635 242.335 15.2822 242.365 14.0426C242.395 12.803 246.173 12.5045 248.426 12.4391C248.736 12.4266 248.992 12.1828 249.019 11.8733C249.194 9.6269 249.675 5.86746 250.915 5.89753C252.155 5.9276 252.453 9.70594 252.518 11.9582C252.531 12.2686 252.775 12.5246 253.084 12.5521C255.331 12.7266 259.09 13.2079 259.06 14.4475C259.03 15.6872 255.252 15.9856 252.999 16.0511C252.689 16.0635 252.433 16.3074 252.405 16.6168C252.231 18.8633 251.75 22.6227 250.51 22.5926ZM250.857 6.64634C250.683 6.78218 250.068 8.24768 249.779 11.9217C249.721 12.6306 249.148 13.1768 248.447 13.1898C244.764 13.3006 243.27 13.8445 243.124 14.091C243.26 14.2644 244.725 14.8801 248.399 15.1693C249.108 15.2265 249.654 15.7999 249.667 16.5004C249.778 20.1842 250.322 21.6778 250.569 21.8238C250.742 21.688 251.358 20.2225 251.647 16.5484C251.704 15.8396 252.278 15.2933 252.978 15.2803C256.472 15.175 257.994 14.6818 258.27 14.4184C258.007 14.1419 256.51 13.5755 253.026 13.3009C252.317 13.2437 251.771 12.6703 251.758 11.9698C251.647 8.28599 251.103 6.79236 250.857 6.64634Z"
      fill="#231F20" />
    <path
      d="M101.815 202.86C101.835 202.05 98.8626 201.288 94.7692 200.969C94.1301 200.923 93.6326 200.401 93.6181 199.761C93.4976 195.656 92.8803 192.651 92.0706 192.631C91.2608 192.611 90.4985 195.584 90.1792 199.677C90.1336 200.316 89.6114 200.814 88.9709 200.828C84.8668 200.949 81.8609 201.566 81.8413 202.376C81.8216 203.186 84.794 203.948 88.8875 204.267C89.5266 204.313 90.024 204.835 90.0385 205.475C90.159 209.58 90.7763 212.585 91.5861 212.605C92.3959 212.625 93.1582 209.652 93.4775 205.559C93.523 204.92 94.0452 204.422 94.6858 204.408C98.7899 204.287 101.796 203.67 101.815 202.86Z"
      fill="#DEE7F0" />
    <path
      d="M91.5581 213.345C91.0582 213.332 89.5187 213.295 89.2877 205.497C89.284 205.237 89.0789 205.032 88.8195 205.006C83.6578 204.6 81.0587 203.707 81.0914 202.358C81.1241 201.008 83.7635 200.242 88.9388 200.087C89.1989 200.084 89.4039 199.878 89.4302 199.619C90.049 191.842 91.5786 191.879 92.0784 191.891C93.428 191.924 94.1942 194.563 94.3488 199.738C94.3525 199.998 94.5573 200.213 94.817 200.23C99.9787 200.635 102.578 201.528 102.545 202.878C102.512 204.228 99.873 204.994 94.6977 205.148C94.4376 205.152 94.2225 205.357 94.2062 205.617C93.8009 210.778 92.9077 213.377 91.5581 213.345ZM82.8611 202.391C83.6029 202.739 85.5012 203.245 88.9356 203.518C89.9538 203.603 90.7439 204.432 90.7694 205.443C90.876 208.887 91.2895 210.807 91.6012 211.565C91.9493 210.823 92.4555 208.925 92.7288 205.491C92.8136 204.472 93.643 203.682 94.6539 203.657C98.0975 203.55 100.018 203.137 100.776 202.825C100.034 202.487 98.1358 201.971 94.7014 201.697C93.6832 201.613 92.893 200.783 92.8675 199.772C92.761 196.329 92.3474 194.408 92.0357 193.65C91.6876 194.392 91.1815 196.29 90.9081 199.725C90.8334 200.743 90.004 201.533 88.9831 201.559C85.5395 201.665 83.6189 202.079 82.8611 202.391Z"
      fill="#98CADA" />
    <path
      d="M36.4186 60.4727C36.432 59.9228 34.4337 59.4142 31.6781 59.1974C31.2488 59.1669 30.9173 58.8088 30.9075 58.3884C30.8245 55.6256 30.4134 53.605 29.8635 53.5917C29.3137 53.5784 28.8051 55.5766 28.5882 58.3322C28.5578 58.7616 28.1997 59.093 27.7793 59.1028C25.0165 59.1858 22.9959 59.597 22.9826 60.1468C22.9692 60.6966 24.9675 61.2052 27.723 61.4221C28.1524 61.4525 28.4838 61.8107 28.4937 62.231C28.5767 64.9939 28.9878 67.0144 29.5377 67.0278C30.0875 67.0411 30.5961 65.0428 30.813 62.2873C30.8434 61.8579 31.2015 61.5265 31.6219 61.5167C34.3847 61.4336 36.4053 61.0225 36.4186 60.4727Z"
      fill="#DEE7F0" />
    <path
      d="M29.5255 67.5276C29.1856 67.5194 28.1559 67.4944 27.993 62.2489C27.9971 62.079 27.8506 61.9354 27.6809 61.9213C24.2065 61.6469 22.4606 61.0444 22.4827 60.1347C22.5047 59.225 24.2778 58.7078 27.7614 58.6022C27.9313 58.6064 28.0749 58.4598 28.089 58.2901C28.506 53.0587 29.5357 53.0836 29.8756 53.0919C30.7853 53.1139 31.3025 54.887 31.4081 58.3706C31.4039 58.5405 31.5505 58.6841 31.7202 58.6982C35.1946 58.9726 36.9405 59.5751 36.9184 60.4848C36.8963 61.3945 35.1233 61.9117 31.6397 62.0173C31.4697 62.0131 31.3262 62.1597 31.312 62.3294C31.0377 65.8038 30.4352 67.5497 29.5255 67.5276ZM23.6723 60.1635C24.1668 60.3956 25.4489 60.7368 27.7551 60.9228C28.4439 60.9795 28.9707 61.5324 28.9939 62.2232C29.0679 64.5357 29.3465 65.8328 29.5543 66.338C29.7866 65.8335 30.1276 64.5614 30.3135 62.2552C30.37 61.5764 30.9232 61.0396 31.614 61.0164C33.9264 60.9424 35.2236 60.6638 35.7288 60.456C35.2342 60.2239 33.9521 59.8827 31.646 59.6967C30.9671 59.6403 30.4304 59.0871 30.4071 58.3963C30.3332 56.0838 30.0546 54.7867 29.8467 54.2815C29.6144 54.786 29.2735 56.0581 29.0875 58.3643C29.031 59.0431 28.4779 59.5799 27.7871 59.6031C25.4746 59.6771 24.1775 59.9557 23.6723 60.1635Z"
      fill="#98CADA" />
    <path d="M227.137 93.6148L204.2 96.8918L221.653 219.051L244.59 215.774L227.137 93.6148Z"
      fill="#33A4DD" stroke="#231F20" stroke-width="0.74" stroke-miterlimit="10" />
    <path opacity="0.48"
      d="M211.217 95.8925L204.199 96.8952L221.651 219.055L228.67 218.052L211.217 95.8925Z"
      fill="#313D94" stroke="#231F20" stroke-width="0.74" stroke-miterlimit="10" />
    <path d="M208.643 98.8204L204.564 99.4031L204.74 100.631L208.818 100.048L208.643 98.8204Z"
      fill="#585AA4" stroke="#231F20" stroke-width="0.74" stroke-miterlimit="10" />
    <path d="M209.306 103.467L205.228 104.049L205.403 105.277L209.482 104.694L209.306 103.467Z"
      fill="#585AA4" stroke="#231F20" stroke-width="0.74" stroke-miterlimit="10" />
    <path d="M209.967 108.111L205.888 108.694L206.064 109.922L210.142 109.339L209.967 108.111Z"
      fill="#585AA4" stroke="#231F20" stroke-width="0.74" stroke-miterlimit="10" />
    <path d="M210.628 112.738L206.55 113.321L206.725 114.548L210.804 113.965L210.628 112.738Z"
      fill="#585AA4" stroke="#231F20" stroke-width="0.74" stroke-miterlimit="10" />
    <path d="M211.299 117.383L207.221 117.966L207.396 119.193L211.475 118.61L211.299 117.383Z"
      fill="#585AA4" stroke="#231F20" stroke-width="0.74" stroke-miterlimit="10" />
    <path d="M211.952 122.019L207.874 122.602L208.049 123.829L212.127 123.246L211.952 122.019Z"
      fill="#585AA4" stroke="#231F20" stroke-width="0.74" stroke-miterlimit="10" />
    <path d="M212.623 126.664L208.544 127.247L208.72 128.474L212.798 127.891L212.623 126.664Z"
      fill="#585AA4" stroke="#231F20" stroke-width="0.74" stroke-miterlimit="10" />
    <path d="M213.285 131.3L209.206 131.883L209.381 133.111L213.46 132.528L213.285 131.3Z"
      fill="#585AA4" stroke="#231F20" stroke-width="0.74" stroke-miterlimit="10" />
    <path d="M213.946 135.935L209.867 136.518L210.043 137.745L214.121 137.163L213.946 135.935Z"
      fill="#585AA4" stroke="#231F20" stroke-width="0.74" stroke-miterlimit="10" />
    <path d="M214.618 140.58L210.54 141.163L210.715 142.39L214.794 141.808L214.618 140.58Z"
      fill="#585AA4" stroke="#231F20" stroke-width="0.74" stroke-miterlimit="10" />
    <path d="M215.27 145.226L211.191 145.809L211.366 147.036L215.445 146.454L215.27 145.226Z"
      fill="#585AA4" stroke="#231F20" stroke-width="0.74" stroke-miterlimit="10" />
    <path d="M215.94 149.861L211.862 150.444L212.037 151.671L216.116 151.089L215.94 149.861Z"
      fill="#585AA4" stroke="#231F20" stroke-width="0.74" stroke-miterlimit="10" />
    <path d="M216.592 154.497L212.513 155.08L212.689 156.308L216.767 155.725L216.592 154.497Z"
      fill="#585AA4" stroke="#231F20" stroke-width="0.74" stroke-miterlimit="10" />
    <path d="M217.263 159.132L213.185 159.715L213.36 160.943L217.439 160.36L217.263 159.132Z"
      fill="#585AA4" stroke="#231F20" stroke-width="0.74" stroke-miterlimit="10" />
    <path d="M217.926 163.779L213.847 164.361L214.023 165.589L218.101 165.006L217.926 163.779Z"
      fill="#585AA4" stroke="#231F20" stroke-width="0.74" stroke-miterlimit="10" />
    <path d="M218.587 168.413L214.508 168.996L214.684 170.224L218.762 169.641L218.587 168.413Z"
      fill="#585AA4" stroke="#231F20" stroke-width="0.74" stroke-miterlimit="10" />
    <path d="M219.248 173.06L215.169 173.643L215.345 174.87L219.423 174.287L219.248 173.06Z"
      fill="#585AA4" stroke="#231F20" stroke-width="0.74" stroke-miterlimit="10" />
    <path d="M219.909 177.695L215.831 178.277L216.006 179.505L220.085 178.922L219.909 177.695Z"
      fill="#585AA4" stroke="#231F20" stroke-width="0.74" stroke-miterlimit="10" />
    <path d="M220.572 182.341L216.493 182.924L216.669 184.151L220.747 183.568L220.572 182.341Z"
      fill="#585AA4" stroke="#231F20" stroke-width="0.74" stroke-miterlimit="10" />
    <path d="M221.233 186.986L217.154 187.568L217.33 188.796L221.408 188.213L221.233 186.986Z"
      fill="#585AA4" stroke="#231F20" stroke-width="0.74" stroke-miterlimit="10" />
    <path d="M221.914 191.611L217.835 192.194L218.011 193.421L222.089 192.839L221.914 191.611Z"
      fill="#585AA4" stroke="#231F20" stroke-width="0.74" stroke-miterlimit="10" />
    <path d="M222.565 196.257L218.486 196.84L218.662 198.067L222.74 197.485L222.565 196.257Z"
      fill="#585AA4" stroke="#231F20" stroke-width="0.74" stroke-miterlimit="10" />
    <path d="M223.228 200.902L219.149 201.485L219.324 202.712L223.403 202.129L223.228 200.902Z"
      fill="#585AA4" stroke="#231F20" stroke-width="0.74" stroke-miterlimit="10" />
    <path d="M223.889 205.538L219.811 206.121L219.986 207.348L224.065 206.766L223.889 205.538Z"
      fill="#585AA4" stroke="#231F20" stroke-width="0.74" stroke-miterlimit="10" />
    <path d="M224.55 210.183L220.471 210.766L220.647 211.993L224.725 211.411L224.55 210.183Z"
      fill="#585AA4" stroke="#231F20" stroke-width="0.74" stroke-miterlimit="10" />
    <path d="M225.211 214.809L221.133 215.392L221.308 216.62L225.387 216.037L225.211 214.809Z"
      fill="#585AA4" stroke="#231F20" stroke-width="0.74" stroke-miterlimit="10" />
    <path d="M227.501 96.1163L220.484 97.1165" stroke="#231F20" stroke-width="0.74"
      stroke-miterlimit="10" />
    <path d="M227.877 98.7362L223.662 99.3342" stroke="#231F20" stroke-width="0.74"
      stroke-miterlimit="10" />
    <path d="M228.254 101.346L224.038 101.954" stroke="#231F20" stroke-width="0.74"
      stroke-miterlimit="10" />
    <path d="M228.621 103.966L224.405 104.564" stroke="#231F20" stroke-width="0.74"
      stroke-miterlimit="10" />
    <path d="M228.998 106.576L224.782 107.184" stroke="#231F20" stroke-width="0.74"
      stroke-miterlimit="10" />
    <path d="M229.374 109.196L222.348 110.196" stroke="#231F20" stroke-width="0.74"
      stroke-miterlimit="10" />
    <path d="M229.751 111.806L225.535 112.413" stroke="#231F20" stroke-width="0.74"
      stroke-miterlimit="10" />
    <path d="M230.118 114.425L225.902 115.033" stroke="#231F20" stroke-width="0.74"
      stroke-miterlimit="10" />
    <path d="M230.494 117.045L226.278 117.643" stroke="#231F20" stroke-width="0.74"
      stroke-miterlimit="10" />
    <path d="M230.871 119.655L226.655 120.263" stroke="#231F20" stroke-width="0.74"
      stroke-miterlimit="10" />
    <path d="M231.237 122.275L224.221 123.275" stroke="#231F20" stroke-width="0.74"
      stroke-miterlimit="10" />
    <path d="M231.614 124.885L227.398 125.492" stroke="#231F20" stroke-width="0.74"
      stroke-miterlimit="10" />
    <path d="M231.991 127.504L227.776 128.102" stroke="#231F20" stroke-width="0.74"
      stroke-miterlimit="10" />
    <path d="M232.368 130.124L228.152 130.722" stroke="#231F20" stroke-width="0.74"
      stroke-miterlimit="10" />
    <path d="M232.734 132.734L228.518 133.342" stroke="#231F20" stroke-width="0.74"
      stroke-miterlimit="10" />
    <path d="M233.111 135.354L226.085 136.354" stroke="#231F20" stroke-width="0.74"
      stroke-miterlimit="10" />
    <path d="M233.488 137.964L229.272 138.572" stroke="#231F20" stroke-width="0.74"
      stroke-miterlimit="10" />
    <path d="M233.855 140.583L229.639 141.181" stroke="#231F20" stroke-width="0.74"
      stroke-miterlimit="10" />
    <path d="M234.231 143.193L230.015 143.801" stroke="#231F20" stroke-width="0.74"
      stroke-miterlimit="10" />
    <path d="M234.608 145.813L230.392 146.421" stroke="#231F20" stroke-width="0.74"
      stroke-miterlimit="10" />
    <path d="M234.984 148.433L227.958 149.433" stroke="#231F20" stroke-width="0.74"
      stroke-miterlimit="10" />
    <path d="M235.351 151.043L231.135 151.651" stroke="#231F20" stroke-width="0.74"
      stroke-miterlimit="10" />
    <path d="M235.728 153.663L231.512 154.261" stroke="#231F20" stroke-width="0.74"
      stroke-miterlimit="10" />
    <path d="M236.105 156.273L231.889 156.881" stroke="#231F20" stroke-width="0.74"
      stroke-miterlimit="10" />
    <path d="M236.471 158.892L232.255 159.49" stroke="#231F20" stroke-width="0.74"
      stroke-miterlimit="10" />
    <path d="M236.848 161.512L229.822 162.512" stroke="#231F20" stroke-width="0.74"
      stroke-miterlimit="10" />
    <path d="M237.225 164.122L233.009 164.73" stroke="#231F20" stroke-width="0.74"
      stroke-miterlimit="10" />
    <path d="M237.601 166.742L233.385 167.34" stroke="#231F20" stroke-width="0.74"
      stroke-miterlimit="10" />
    <path d="M237.968 169.352L233.752 169.96" stroke="#231F20" stroke-width="0.74"
      stroke-miterlimit="10" />
    <path d="M238.345 171.972L234.129 172.57" stroke="#231F20" stroke-width="0.74"
      stroke-miterlimit="10" />
    <path d="M238.721 174.591L231.695 175.591" stroke="#231F20" stroke-width="0.74"
      stroke-miterlimit="10" />
    <path d="M239.088 177.201L234.872 177.809" stroke="#231F20" stroke-width="0.74"
      stroke-miterlimit="10" />
    <path d="M239.465 179.821L235.249 180.419" stroke="#231F20" stroke-width="0.74"
      stroke-miterlimit="10" />
    <path d="M239.841 182.431L235.625 183.039" stroke="#231F20" stroke-width="0.74"
      stroke-miterlimit="10" />
    <path d="M240.218 185.051L236.003 185.649" stroke="#231F20" stroke-width="0.74"
      stroke-miterlimit="10" />
    <path d="M240.585 187.66L233.569 188.671" stroke="#231F20" stroke-width="0.74"
      stroke-miterlimit="10" />
    <path d="M240.961 190.28L236.746 190.878" stroke="#231F20" stroke-width="0.74"
      stroke-miterlimit="10" />
    <path d="M241.338 192.9L237.122 193.498" stroke="#231F20" stroke-width="0.74"
      stroke-miterlimit="10" />
    <path d="M241.705 195.51L237.489 196.118" stroke="#231F20" stroke-width="0.74"
      stroke-miterlimit="10" />
    <path d="M242.082 198.13L237.866 198.728" stroke="#231F20" stroke-width="0.74"
      stroke-miterlimit="10" />
    <path d="M242.458 200.74L235.432 201.75" stroke="#231F20" stroke-width="0.74"
      stroke-miterlimit="10" />
    <path d="M242.835 203.36L238.619 203.958" stroke="#231F20" stroke-width="0.74"
      stroke-miterlimit="10" />
    <path d="M243.202 205.979L238.986 206.577" stroke="#231F20" stroke-width="0.74"
      stroke-miterlimit="10" />
    <path d="M243.578 208.589L239.362 209.197" stroke="#231F20" stroke-width="0.74"
      stroke-miterlimit="10" />
    <path d="M243.955 211.209L239.739 211.807" stroke="#231F20" stroke-width="0.74"
      stroke-miterlimit="10" />
    <path d="M244.322 213.819L240.106 214.427" stroke="#231F20" stroke-width="0.74"
      stroke-miterlimit="10" />
    <path
      d="M145.255 227.721L157.065 203.13C158.656 199.818 157.262 195.853 153.949 194.262L153.831 194.199C150.518 192.608 146.553 194.002 144.963 197.315L127.485 233.722C126.157 236.48 127.327 239.79 130.076 241.107L130.175 241.159C132.934 242.486 136.243 241.316 137.56 238.567L150.993 210.585C152.056 208.38 151.12 205.737 148.915 204.673L148.836 204.631C146.631 203.577 143.988 204.503 142.924 206.708L131.936 229.598"
      stroke="white" stroke-width="1.11" stroke-miterlimit="10" />
    <path
      d="M188.615 221.67L168.677 191.658C165.994 187.622 160.549 186.52 156.513 189.202L156.36 189.299C152.324 191.982 151.222 197.427 153.905 201.463L183.426 245.902C185.665 249.267 190.204 250.177 193.559 247.948L193.681 247.871C197.046 245.632 197.957 241.093 195.728 237.738L173.039 203.577C171.254 200.883 167.621 200.155 164.926 201.94L164.825 202.008C162.131 203.793 161.402 207.426 163.188 210.12L181.746 238.059"
      stroke="#7FD3F2" stroke-width="1.47" stroke-miterlimit="10" />
    <path
      d="M211.909 292.306L145.66 272.064L112.108 381.872L211.909 292.316L211.909 292.306ZM154.751 287.809L187.28 297.75L138.198 341.793L154.751 287.809Z"
      fill="#66C9CF" stroke="#231F20" stroke-miterlimit="10" />
    <path opacity="0.74"
      d="M151.241 273.769L145.66 272.064L112.108 381.872L120.513 374.334L151.241 273.769Z"
      fill="#7FD3F2" stroke="#231F20" stroke-miterlimit="10" />
    <path d="M116.996 365.867L116.681 366.9L122.256 368.603L122.572 367.57L116.996 365.867Z"
      fill="white" stroke="#231F20" stroke-miterlimit="10" />
    <path d="M119.829 356.582L119.513 357.615L125.089 359.318L125.404 358.285L119.829 356.582Z"
      fill="white" stroke="#231F20" stroke-miterlimit="10" />
    <path d="M122.671 347.3L122.355 348.333L127.931 350.036L128.247 349.003L122.671 347.3Z"
      fill="white" stroke="#231F20" stroke-miterlimit="10" />
    <path d="M125.504 338.007L125.188 339.04L130.764 340.744L131.079 339.711L125.504 338.007Z"
      fill="white" stroke="#231F20" stroke-miterlimit="10" />
    <path d="M128.348 328.726L128.033 329.759L133.608 331.462L133.924 330.429L128.348 328.726Z"
      fill="white" stroke="#231F20" stroke-miterlimit="10" />
    <path d="M131.181 319.441L130.865 320.474L136.441 322.177L136.756 321.144L131.181 319.441Z"
      fill="white" stroke="#231F20" stroke-miterlimit="10" />
    <path d="M134.013 310.149L133.698 311.181L139.273 312.885L139.589 311.852L134.013 310.149Z"
      fill="white" stroke="#231F20" stroke-miterlimit="10" />
    <path d="M136.855 300.876L136.54 301.909L142.115 303.613L142.431 302.58L136.855 300.876Z"
      fill="white" stroke="#231F20" stroke-miterlimit="10" />
    <path d="M139.697 291.594L139.382 292.627L144.957 294.331L145.273 293.298L139.697 291.594Z"
      fill="white" stroke="#231F20" stroke-miterlimit="10" />
    <path d="M142.53 282.292L142.215 283.325L147.79 285.028L148.106 283.996L142.53 282.292Z"
      fill="white" stroke="#231F20" stroke-miterlimit="10" />
    <path
      d="M274.256 280.404L265.286 241.955L248.355 245.906L257.325 284.355C248.675 290.017 244.046 300.668 246.528 311.311C249.709 324.932 263.328 333.405 276.949 330.224C290.57 327.043 299.043 313.425 295.862 299.804C293.379 289.15 284.509 281.653 274.246 280.404L274.256 280.404Z"
      fill="#F1F5F9" stroke="#231F20" stroke-width="1.25" stroke-miterlimit="10" />
    <path
      d="M249.56 306.353C249.571 307.944 249.752 309.559 250.123 311.178C252.859 322.908 264.586 330.194 276.316 327.458C288.046 324.722 295.332 312.995 292.596 301.265C292.215 299.645 291.662 298.121 290.966 296.684L249.56 306.343L249.56 306.353Z"
      fill="#7FD3F2" stroke="#231F20" stroke-width="1.25" stroke-miterlimit="10" />
    <path
      d="M290.966 296.694C291.319 298.203 282.335 301.586 270.897 304.26C259.459 306.923 249.903 307.872 249.549 306.363C249.196 304.854 258.181 301.471 269.619 298.797C281.057 296.134 290.612 295.185 290.966 296.694Z"
      fill="#898DC5" stroke="#231F20" stroke-width="1.25" stroke-miterlimit="10" />
    <path opacity="0.73"
      d="M254.506 309.454C252.023 298.801 256.653 288.16 265.303 282.498L256.332 244.049L248.365 245.906L257.335 284.355C248.685 290.017 244.056 300.668 246.539 311.311C249.719 324.932 263.338 333.405 276.959 330.224C278.317 329.907 279.618 329.479 280.87 328.969C268.697 329.804 257.369 321.717 254.506 309.454Z"
      fill="white" stroke="#231F20" stroke-width="1.25" stroke-miterlimit="10" />
    <path
      d="M269.664 314.253C269.344 315.485 268.086 316.225 266.853 315.905C265.621 315.585 264.881 314.327 265.201 313.094C265.521 311.862 266.779 311.122 268.012 311.442C269.244 311.762 269.984 313.02 269.664 314.253Z"
      fill="#898DC5" stroke="#231F20" stroke-width="1.25" stroke-miterlimit="10" />
    <path
      d="M284.141 310.033C283.821 311.265 282.563 312.005 281.33 311.685C280.097 311.365 279.358 310.107 279.678 308.874C279.998 307.641 281.256 306.902 282.488 307.222C283.721 307.542 284.461 308.8 284.141 310.033Z"
      fill="#898DC5" stroke="#231F20" stroke-width="1.25" stroke-miterlimit="10" />
    <path
      d="M288.703 304.221C288.482 305.076 287.609 305.595 286.754 305.375C285.9 305.154 285.381 304.281 285.601 303.426C285.822 302.571 286.695 302.052 287.55 302.273C288.405 302.494 288.924 303.367 288.703 304.221Z"
      fill="#898DC5" stroke="#231F20" stroke-width="1.25" stroke-miterlimit="10" />
    <path
      d="M287.337 316.422C287.116 317.277 286.243 317.796 285.388 317.575C284.533 317.354 284.014 316.481 284.235 315.627C284.456 314.772 285.329 314.253 286.184 314.473C287.039 314.694 287.558 315.567 287.337 316.422Z"
      fill="#898DC5" stroke="#231F20" stroke-width="1.25" stroke-miterlimit="10" />
    <path
      d="M274.761 309.495C274.54 310.35 273.667 310.869 272.813 310.648C271.958 310.427 271.439 309.554 271.659 308.7C271.88 307.845 272.753 307.326 273.608 307.546C274.463 307.767 274.982 308.64 274.761 309.495Z"
      fill="#898DC5" stroke="#231F20" stroke-width="1.25" stroke-miterlimit="10" />
    <path
      d="M266.026 320.727C265.805 321.581 264.933 322.1 264.078 321.88C263.223 321.659 262.704 320.786 262.925 319.931C263.145 319.076 264.018 318.557 264.873 318.778C265.728 318.999 266.247 319.872 266.026 320.727Z"
      fill="#898DC5" stroke="#231F20" stroke-width="1.25" stroke-miterlimit="10" />
    <path
      d="M279.077 320.423C278.757 321.655 277.499 322.395 276.266 322.075C275.034 321.755 274.294 320.497 274.614 319.264C274.934 318.032 276.192 317.292 277.425 317.612C278.658 317.932 279.397 319.19 279.077 320.423Z"
      fill="#898DC5" stroke="#231F20" stroke-width="1.25" stroke-miterlimit="10" />
    <g style="mix-blend-mode:multiply">
      <path d="M265.913 244.618L248.986 248.517L250.056 253.165L266.983 249.267L265.913 244.618Z"
        fill="#EAEFF5" />
      <path d="M265.913 244.618L248.986 248.517L250.056 253.165L266.983 249.267L265.913 244.618Z"
        stroke="#231F20" stroke-width="1.25" stroke-miterlimit="10" />
    </g>
    <path
      d="M268.829 240.621C269.237 242.381 268.144 244.135 266.383 244.553L249.121 248.575C247.36 248.983 245.606 247.89 245.189 246.129C244.781 244.369 245.874 242.615 247.635 242.197L264.897 238.175C266.658 237.767 268.412 238.86 268.829 240.621Z"
      fill="#EAEFF5" stroke="#231F20" stroke-width="1.25" stroke-miterlimit="10" />
    <path opacity="0.73"
      d="M249.936 245.044C249.601 243.616 250.165 242.199 251.256 241.365L247.634 242.207C245.874 242.615 244.781 244.379 245.188 246.139C245.596 247.9 247.36 248.993 249.12 248.585L252.692 247.752C251.368 247.46 250.262 246.452 249.936 245.044Z"
      fill="white" stroke="#231F20" stroke-width="1.25" stroke-miterlimit="10" />
    <g style="mix-blend-mode:overlay">
      <path d="M274.919 285.222C274.919 285.222 290.8 291.589 289.236 308.646" stroke="#231F20"
        stroke-width="1.25" stroke-miterlimit="10" stroke-linecap="round" />
    </g>
    <path d="M272.612 101.74L266.117 115.327L270.827 117.578L277.322 103.991L272.612 101.74Z"
      fill="#7FD3F2" stroke="#231F20" stroke-width="0.77" stroke-miterlimit="10" />
    <path
      d="M275.57 119.389C274.959 120.664 273.426 121.207 272.14 120.596L263.082 116.265C261.807 115.654 261.264 114.12 261.875 112.835C262.486 111.559 264.02 111.016 265.306 111.628L274.363 115.958C275.639 116.57 276.182 118.103 275.57 119.389Z"
      fill="#33A4DD" stroke="#231F20" stroke-width="0.77" stroke-miterlimit="10" />
    <path
      d="M270.647 105.855C272.031 106.549 273.673 107.289 275.449 107.912L277.324 103.987L272.617 101.742L270.647 105.855Z"
      fill="#F2F5F9" stroke="#231F20" stroke-width="0.77" stroke-miterlimit="10" />
    <path d="M311.907 68.4248L261.09 89.1087" stroke="#231F20" stroke-width="0.77"
      stroke-miterlimit="10" stroke-linecap="round" />
    <path
      d="M285.571 100.65C298.21 100.934 308.686 90.9194 308.971 78.2808C309.255 65.6422 299.24 55.166 286.601 54.8815C273.963 54.5971 263.487 64.6121 263.202 77.2507C262.918 89.8893 272.933 100.365 285.571 100.65Z"
      fill="#A0DDF5" stroke="#231F20" stroke-width="0.77" stroke-miterlimit="10" />
    <path
      d="M309.719 63.7804C314.206 71.3914 314.952 81.0223 310.853 89.5955C304.31 103.271 287.924 109.065 274.239 102.521C266.813 98.9704 261.718 92.5249 259.645 85.1825"
      stroke="#231F20" stroke-width="0.77" stroke-miterlimit="10" stroke-linecap="round" />
    <mask id="mask0_791_4" style="mask-type:luminance" maskUnits="userSpaceOnUse" x="263" y="55"
      width="46" height="46">
      <path
        d="M285.581 100.19C297.966 100.469 308.232 90.6551 308.51 78.2705C308.789 65.8859 298.975 55.6202 286.591 55.3414C274.206 55.0627 263.941 64.8764 263.662 77.261C263.383 89.6456 273.197 99.9113 285.581 100.19Z"
        fill="white" />
    </mask>
    <g mask="url(#mask0_791_4)">
      <path
        d="M272.014 61.8756L273.16 62.4736C273.16 62.4736 273.209 62.4848 273.24 62.4755C273.552 62.383 273.88 62.491 274.084 62.736L274.297 63.0013C274.297 63.0013 274.317 63.0218 274.337 63.0323L276.018 63.8333C276.018 63.8333 276.087 63.8449 276.118 63.8357L276.635 63.5381C276.635 63.5381 276.697 63.4496 276.678 63.3991L276.343 62.7708C276.343 62.7708 276.325 62.6904 276.346 62.6609L276.666 62.2485C276.666 62.2485 276.747 62.2005 276.797 62.2217L277.331 62.4747C277.331 62.4747 277.399 62.5464 277.388 62.5961L277.231 63.3025C277.231 63.3025 277.23 63.3225 277.23 63.3325L277.313 64.0447C277.321 64.1149 277.4 64.1569 277.471 64.1286L277.633 64.0325C277.714 63.9844 277.803 64.0566 277.791 64.1463L277.667 64.7135C277.645 64.803 277.733 64.8652 277.814 64.8271L278.381 64.5508C278.381 64.5508 278.442 64.5022 278.443 64.4622L278.451 64.1423C278.463 64.0526 278.574 64.0153 278.632 64.0767L279.287 64.7128C279.346 64.7742 279.313 64.8735 279.233 64.8915L279.122 64.9089C279.072 64.9176 279.031 64.9667 279.04 65.0169L279.06 65.4375C279.06 65.4375 279.027 65.5267 278.987 65.5458L278.271 65.7685C278.271 65.7685 278.2 65.8168 278.199 65.8667L278.188 66.3266C278.188 66.3266 278.136 66.4154 278.095 66.4244L277.653 66.5237C277.653 66.5237 277.563 66.5215 277.544 66.471L277.352 66.1563C277.352 66.1563 277.334 66.0758 277.354 66.0463L277.479 65.8593C277.541 65.7708 277.444 65.6584 277.343 65.7059L277.16 65.7915C277.16 65.7915 277.14 65.7911 277.13 65.8008L276.538 65.8665C276.478 65.865 276.437 65.924 276.446 65.9843L276.462 66.1147C276.47 66.2049 276.379 66.2627 276.31 66.221L276.034 66.0643C276.034 66.0643 275.984 66.0431 275.954 66.0624L275.088 66.3014C275.088 66.3014 275.027 66.34 275.016 66.3697L274.852 66.9459C274.83 67.0154 274.888 67.0868 274.969 67.0788C275.049 67.0707 275.107 67.1421 275.085 67.2216L274.915 67.6476C274.893 67.7071 274.922 67.7778 274.991 67.7895L275.27 67.8563C275.27 67.8563 275.3 67.867 275.319 67.8775L276.777 69.2333C276.777 69.2333 276.815 69.3042 276.804 69.3339L276.618 70.0196C276.618 70.0196 276.616 70.0796 276.626 70.0998L276.971 70.7184C277.019 70.7996 277.129 70.7923 277.161 70.703L277.429 69.9793L278.245 69.749C278.245 69.749 278.326 69.691 278.317 69.6407L278.209 68.7578C278.209 68.7578 278.231 68.6583 278.282 68.6496L278.625 68.5278C278.625 68.5278 278.696 68.4596 278.697 68.4096L278.587 67.6167C278.578 67.5464 278.64 67.4879 278.7 67.4994L279.746 67.6448C279.746 67.6448 279.796 67.666 279.815 67.6865L280.668 68.8175C280.668 68.8175 280.696 68.9082 280.665 68.9474L280.376 69.3005C280.376 69.3005 280.345 69.3498 280.354 69.38L280.405 69.7514C280.405 69.7514 280.453 69.8426 280.503 69.8438L281.093 69.8581C281.093 69.8581 281.153 69.8595 281.174 69.84L281.44 69.5864C281.511 69.5181 281.62 69.5708 281.618 69.6608L281.581 71.1903C281.581 71.1903 281.6 71.2408 281.619 71.2613L282.135 71.8539L282.777 73.0298C282.805 73.0906 282.773 73.1698 282.703 73.1881L281.928 73.3594C281.928 73.3594 281.898 73.3586 281.888 73.3584L280.932 73.2152C280.932 73.2152 280.912 73.2147 280.902 73.2144L279.868 73.3494C279.868 73.3494 279.777 73.3972 279.776 73.4472L279.746 73.8566C279.744 73.9066 279.773 73.9573 279.823 73.9685L280.558 74.1764C280.618 74.1978 280.656 74.2688 280.625 74.328L280.519 74.5555C280.519 74.5555 280.447 74.6238 280.408 74.6129L279.671 74.465C279.671 74.465 279.631 74.464 279.621 74.4637L278.935 74.6872C278.865 74.7155 278.786 74.6536 278.798 74.5738L278.822 74.3944C278.822 74.3944 278.844 74.3349 278.864 74.3254L279.109 74.1412C279.19 74.0832 279.153 73.9623 279.063 73.9501L278.206 73.8392C278.206 73.8392 278.146 73.8378 278.115 73.8671L277.654 74.326C277.654 74.326 277.603 74.3548 277.573 74.3541L276.874 74.2971C276.874 74.2971 276.804 74.3054 276.783 74.3349L275.917 75.4242C275.917 75.4242 275.866 75.463 275.836 75.4623L274.483 75.5395C274.483 75.5395 274.402 75.5775 274.391 75.6173L274.017 77.0186C274.017 77.0186 273.996 77.0681 273.976 77.0776L273.701 77.261C273.63 77.3093 273.531 77.2569 273.534 77.1669L273.557 76.1972C273.557 76.1972 273.539 76.1268 273.509 76.106L272.2 75.244C272.121 75.1921 272.029 75.2599 272.037 75.3401C272.045 75.4403 271.924 75.4974 271.855 75.4257L271.377 74.924C271.377 74.924 271.308 74.8823 271.278 74.8916L269.778 75.2753C269.778 75.2753 269.707 75.3236 269.696 75.3634L269.517 76.9895C269.517 76.9895 269.525 77.0597 269.555 77.0804L270.271 77.628C270.271 77.628 270.351 77.6599 270.381 77.6306L270.959 77.3446C270.959 77.3446 271.009 77.3258 271.029 77.3463L271.675 77.512C271.744 77.5337 271.772 77.6044 271.741 77.6736L271.178 78.6102C271.147 78.6595 271.165 78.73 271.214 78.7512L271.964 79.1795C272.024 79.2109 272.032 79.2812 272.001 79.3304L271.4 80.1561L271.465 80.7879L272.512 81.3634C272.63 81.4363 272.78 81.4399 272.911 81.3831L273.295 81.2224C273.416 81.1753 273.556 81.1787 273.675 81.2316L274.259 81.5058C274.338 81.5477 274.416 81.6096 274.454 81.6906L274.55 81.853C274.617 81.9746 274.736 82.0475 274.875 82.0709L275.582 82.1881C275.702 82.211 275.8 82.2734 275.878 82.3653L277.663 84.6493C277.731 84.7309 277.769 84.8419 277.766 84.9519L277.743 85.8916C277.74 86.0315 277.786 86.1727 277.895 86.2554L280.51 88.5294C280.667 88.6633 280.721 88.8947 280.627 89.0824L280.289 89.7945C280.226 89.933 280.104 90.02 279.953 90.0564L278.978 90.2428C278.857 90.2699 278.746 90.3372 278.683 90.4357L277.585 92.0195C277.481 92.1671 277.309 92.2429 277.14 92.2188L275.634 92.0122C275.505 91.9991 275.374 92.0359 275.272 92.1135L273.383 93.6882C273.25 93.795 273.069 93.8306 272.911 93.7667L272.643 93.6602C272.415 93.5747 272.163 93.6786 272.058 93.8961C271.984 94.0443 271.852 94.1411 271.691 94.1573L269.845 94.3826C269.745 94.4001 269.644 94.4377 269.572 94.516L267.717 96.3515C267.645 96.4198 267.593 96.5186 267.58 96.6183L267.483 97.3162C267.434 97.6951 266.98 97.8541 266.696 97.5972L266.442 97.3609C266.315 97.2478 266.269 97.0666 266.313 96.8977L267.083 94.0155C267.094 93.9658 267.116 93.9163 267.147 93.877L269.408 90.5508L270.901 88.3764C271.005 88.2189 271.01 88.0189 270.913 87.8666L270.461 87.1354C270.422 87.0744 270.404 87.004 270.396 86.9337L270.128 84.3865C270.129 84.3065 270.131 84.2365 270.163 84.1673L270.482 83.3748C270.546 83.2263 270.668 83.1192 270.829 83.0931L271.744 82.9152C271.894 82.8889 272.017 82.7918 272.08 82.6533L272.27 82.2578C272.386 82.0205 272.282 81.7479 272.045 81.6322L271.669 81.453C271.6 81.4213 271.551 81.3801 271.502 81.3189L270.833 80.4624L270.717 79.4693L269.886 79.0691L269.467 78.2086C269.467 78.2086 269.458 78.1884 269.448 78.1782L267.571 76.3721C267.571 76.3721 267.542 76.3314 267.543 76.3114L267.276 73.6742C267.26 73.5438 267.079 73.5494 267.067 73.6691L267.015 74.148C267.002 74.2677 266.832 74.2736 266.804 74.1629L266.31 71.8602L265.75 68.9658L267.15 66.9192L265.711 64.7936L265.325 62.5736L263.634 60.9421C263.634 60.9421 263.555 60.8902 263.506 60.879L261.143 60.5616C261.143 60.5616 261.093 60.5604 261.073 60.5399L260.411 60.2238C260.411 60.2238 260.332 60.1718 260.313 60.1314L259.437 58.6897C259.351 58.5476 259.445 58.3698 259.606 58.3437L260.77 58.1819C260.951 58.1563 261.026 57.948 260.919 57.8054L260.696 57.5299C260.541 57.3361 260.757 57.0712 260.975 57.1765C261.192 57.2819 261.409 57.017 261.253 56.8332L260.836 56.2929C260.71 56.1298 260.846 55.893 261.045 55.9279L262.48 56.1328C262.999 56.2053 263.484 56.3972 263.917 56.6978L266.622 58.6039C267.123 58.9562 267.719 59.1507 268.339 59.1657C269.038 59.1827 269.703 59.4288 270.242 59.872L272.037 61.356C272.037 61.356 272.085 61.4272 272.074 61.4669L272.008 61.7054C272.008 61.7054 272.016 61.8056 272.065 61.8268L272.014 61.8756ZM278.673 62.4172L278.56 62.5245C278.365 62.7199 278.378 63.0402 278.583 63.2253L280.012 64.5103C280.012 64.5103 280.09 64.6022 280.119 64.6529L280.462 65.3415C280.519 65.4629 280.526 65.6131 280.483 65.7321L280.078 66.7426C280.015 66.8911 280.041 67.0617 280.127 67.1939L281.123 68.6384C281.287 68.8825 281.626 68.9207 281.841 68.7259L282.199 68.3945C282.199 68.3945 282.291 68.3267 282.351 68.2981L282.856 68.1103C283.179 67.9881 283.269 67.5702 283.025 67.3242L282.586 66.8834C282.439 66.7398 282.404 66.5189 282.489 66.3409C282.563 66.1826 282.547 66.0022 282.45 65.8598L281.542 64.5274C281.542 64.5274 281.485 64.436 281.476 64.3758L281.238 63.4697C281.201 63.3288 281.104 63.2164 280.985 63.1635L279.225 62.3206C279.037 62.236 278.826 62.2709 278.673 62.4172ZM277.811 61.6461L277.534 61.5093C277.396 61.446 277.235 61.5021 277.171 61.6406L277.118 61.7493C277.055 61.8878 277.111 62.0492 277.25 62.1126L277.428 62.197C277.497 62.2287 277.577 62.2306 277.648 62.2023L277.799 62.136C278.012 62.0411 278.019 61.7412 277.811 61.6461ZM276.21 62.1074L276.594 61.9367C276.685 61.8989 276.747 61.8103 276.749 61.7204L276.776 61.4209C276.79 61.2812 276.703 61.1591 276.563 61.1257L275.926 61.0002C275.717 60.9551 275.552 61.1612 275.618 61.3528L275.833 61.9582C275.889 62.1096 276.048 62.1835 276.199 62.1172L276.21 62.1074ZM273.234 59.8046L271.419 58.3701C271.242 58.2358 271.002 58.23 270.829 58.3658L270.584 58.56C270.411 58.6958 270.355 58.9345 270.44 59.1366L270.487 59.2478C270.554 59.3895 270.672 59.4823 270.821 59.516L271.169 59.5844C271.289 59.6073 271.387 59.6698 271.455 59.7714L271.784 60.2195C271.784 60.2195 271.832 60.2907 271.841 60.331L272.208 61.3001C272.264 61.4515 272.402 61.5649 272.571 61.599L273.567 61.7732C273.657 61.7854 273.746 61.8276 273.814 61.8992L274.459 62.5051C274.557 62.5975 274.696 62.6509 274.836 62.6343C275.167 62.6023 275.366 62.247 275.213 61.9432L274.965 61.467C274.917 61.3758 274.9 61.2654 274.922 61.1559L274.991 60.7975C275.037 60.5485 274.893 60.3049 274.654 60.2391L273.382 59.8882C273.323 59.8667 273.264 59.8453 273.214 59.8041L273.234 59.8046ZM272.094 57.7363L273.35 59.1672C273.35 59.1672 273.418 59.2289 273.468 59.2401L274.711 59.5403C274.95 59.5961 275.098 59.2896 274.911 59.135L274.038 58.4337C274.038 58.4337 274.008 58.4129 273.999 58.3927L273.291 57.4853C273.252 57.4343 273.193 57.4029 273.123 57.4012L272.283 57.3608C272.084 57.356 271.968 57.5932 272.094 57.7463L272.094 57.7363ZM274.103 57.8151L274.121 57.8955C274.149 57.9962 274.227 58.0781 274.336 58.0908L274.924 58.1951C275.043 58.218 275.165 58.1509 275.218 58.0422L275.249 57.9729C275.323 57.8146 275.228 57.6223 275.049 57.5879L274.411 57.4724C274.222 57.4378 274.058 57.6139 274.103 57.8051L274.103 57.8151ZM276.271 59.5781L276.521 60.3845C276.54 60.4449 276.579 60.4859 276.618 60.5268L277.297 61.0034C277.474 61.1278 277.716 61.0136 277.722 60.7937L277.726 60.6137C277.729 60.5038 277.671 60.4023 277.572 60.3599L277.365 60.2649C277.276 60.2227 277.218 60.1313 277.21 60.041L277.189 59.6804C277.191 59.5805 277.123 59.4988 277.034 59.4566L276.629 59.2667C276.411 59.1614 276.186 59.366 276.251 59.5877L276.271 59.5781ZM278.244 61.5366L280.825 62.7695C280.825 62.7695 280.935 62.7722 280.956 62.7227L281.177 62.2679C281.177 62.2679 281.18 62.1679 281.14 62.147L280.46 61.7303C280.46 61.7303 280.44 61.7199 280.42 61.7194L279.194 61.5396C279.194 61.5396 279.115 61.4977 279.116 61.4577L279.093 61.187C279.094 61.1271 279.135 61.078 279.185 61.0793L279.636 61.0702C279.636 61.0702 279.676 61.0711 279.685 61.0814L281.419 62.1837C281.419 62.1837 281.529 62.1864 281.56 62.1471L281.75 61.7516C281.75 61.7516 281.781 61.7124 281.811 61.7031L282.808 61.4072C282.889 61.3791 282.902 61.2694 282.813 61.2272C282.714 61.1848 282.757 61.0359 282.857 61.0383L283.616 61.0867C283.616 61.0867 283.616 61.0867 283.626 61.0869L285.008 61.0204L286.437 61.0951C286.527 61.0973 286.58 60.9785 286.501 60.9166L284.244 59.1313C284.244 59.1313 284.224 59.1209 284.205 59.1104L280.04 58.0191C279.96 57.9971 279.888 58.0754 279.926 58.1564L280.164 58.6823C280.164 58.6823 280.183 58.7127 280.203 58.7232L281.554 59.5162C281.554 59.5162 281.574 59.5167 281.584 59.5269L281.912 59.5849C282.022 59.6076 282.018 59.7675 281.908 59.7749L281.407 59.8027C281.407 59.8027 281.377 59.802 281.367 59.8018L280.654 59.5144C280.654 59.5144 280.634 59.5039 280.624 59.4937L279.618 58.499C279.618 58.499 279.608 58.4887 279.599 58.4785L279.321 57.9716C279.321 57.9716 279.272 57.9204 279.242 57.9197L278.103 57.8721C278.033 57.8704 277.981 57.9391 278.01 57.9998L278.363 59.0887C278.363 59.0887 278.373 59.119 278.382 59.1292L279.212 59.9996C279.212 59.9996 279.251 60.0305 279.281 60.0313L280.161 60.0326C280.261 60.035 280.298 60.166 280.207 60.2138L279.659 60.5006C279.659 60.5006 279.629 60.5098 279.619 60.5096L278.668 60.5466C278.668 60.5466 278.608 60.5451 278.589 60.5146L277.897 59.7376C277.849 59.6864 277.768 59.6945 277.737 59.7637L277.61 60.0308C277.61 60.0308 277.608 60.1207 277.637 60.1514L278.236 60.6361C278.236 60.6361 278.275 60.6871 278.274 60.727L278.166 61.4646C278.166 61.4646 278.184 61.5451 278.223 61.5661L278.244 61.5366ZM276.089 58.4034C276.108 58.4639 276.137 58.5146 276.196 58.556L276.805 59.0009C276.992 59.1355 277.245 58.9916 277.231 58.7612L277.233 58.6712C277.215 58.5808 277.167 58.4996 277.088 58.4576L276.487 58.1029C276.28 57.9779 276.025 58.1718 276.089 58.4034ZM277.675 59.012L277.674 59.042C277.672 59.152 277.719 59.2632 277.828 59.3058L277.848 59.3063C278.045 59.4111 278.27 59.2365 278.225 59.0154L278.226 58.9854C278.198 58.9047 278.149 58.8335 278.07 58.7915C277.902 58.7074 277.7 58.8226 277.685 59.0023L277.675 59.012ZM283.693 63.2792L285.194 64.0858C285.273 64.1278 285.341 64.1994 285.369 64.2901L286.262 66.6825C286.29 66.7632 286.298 66.8434 286.266 66.9226L285.209 70.4681C285.188 70.5376 285.186 70.6076 285.204 70.678L285.416 71.4234C285.49 71.6852 285.808 71.783 286.022 71.6181L287.257 70.6078C287.369 70.5105 287.53 70.4943 287.658 70.5575L288.271 70.8524C288.37 70.8948 288.48 70.8975 288.581 70.8599L289.622 70.435C289.682 70.4065 289.742 70.398 289.802 70.4094L291.668 70.6047C291.758 70.6069 291.858 70.5893 291.93 70.531L293.844 69.157C293.925 69.099 293.988 69.0005 294 68.9008L294.232 67.1659C294.257 66.9864 294.4 66.8499 294.57 66.834L296.385 66.6579C296.726 66.6262 296.857 66.1892 296.582 65.9725L295.453 65.0949C295.453 65.0949 295.433 65.0844 295.433 65.0744L292.017 62.8209C292.017 62.8209 291.948 62.7792 291.908 62.7682L287.288 61.4858C287.228 61.4744 287.168 61.4629 287.118 61.4817L285.299 61.8377C285.299 61.8377 285.219 61.8458 285.179 61.8348L283.743 61.6399C283.484 61.6036 283.268 61.8285 283.312 62.0796L283.47 62.9837C283.487 63.1042 283.565 63.1961 283.664 63.2585L283.693 63.2792ZM291.25 71.7749L291.919 73.0515L293.214 73.6731L294.311 73.0095L292.617 71.8781L291.26 71.7752L291.25 71.7749ZM289.903 83.1756L289.347 83.4222C289.347 83.4222 289.306 83.4412 289.296 83.451L287.432 84.4161C287.108 84.5783 286.91 84.9135 286.901 85.2734L286.897 85.4434C286.89 85.7433 286.763 86.0203 286.528 86.2047C286.202 86.4668 286.071 86.9038 286.211 87.3073L286.914 89.2549C286.999 89.4971 287.184 89.6916 287.411 89.8072L288.163 90.1655L288.519 90.3342C288.647 90.3973 288.786 90.4307 288.936 90.4343L289.917 90.4381C289.987 90.4398 290.036 90.471 290.064 90.5317L290.369 91.1793C290.369 91.1793 290.417 91.2405 290.447 91.2612L290.852 91.4611C290.931 91.503 290.969 91.6039 290.927 91.6829L290.41 92.7607C290.379 92.83 290.357 92.9095 290.365 92.9897L290.399 94.8811C290.396 95.0111 290.353 95.14 290.26 95.2378L289.285 96.2645C289.193 96.3523 289.15 96.4813 289.147 96.6112L289.143 97.6014C289.141 97.6714 289.129 97.7511 289.097 97.8204L288.707 98.6412C288.665 98.7302 288.653 98.8299 288.66 98.9301L288.976 101.168C289.002 101.339 289.109 101.482 289.257 101.545L290.572 102.177C290.72 102.251 290.891 102.245 291.033 102.169L292.34 101.45C292.432 101.402 292.503 101.324 292.556 101.225L292.724 100.879C292.819 100.681 293.042 100.567 293.261 100.602L293.401 100.626C293.62 100.661 293.843 100.546 293.938 100.348L294.169 99.874C294.222 99.7552 294.324 99.6577 294.455 99.6208L295.717 99.1713C295.838 99.1242 295.94 99.0367 296.003 98.9182L296.551 97.7711C296.593 97.6921 296.605 97.6024 296.597 97.5221L296.558 97.0511C296.544 96.8206 296.679 96.6139 296.901 96.5392L299.513 95.6523C299.604 95.6245 299.675 95.5662 299.737 95.4977L300.252 94.89C300.561 94.5174 300.364 93.9524 299.897 93.8611C299.538 93.7824 299.265 93.5057 299.194 93.1538L299.103 92.7415L298.649 92.1103L298.944 88.9966C298.946 88.9366 299.036 88.9288 299.044 88.989L299.565 91.0422L299.577 92.603C299.586 93.0733 299.946 93.4722 300.415 93.5135L302.441 93.6927C302.511 93.6944 302.582 93.6761 302.633 93.6374L303.539 92.9891C303.63 92.9213 303.673 92.8123 303.656 92.7019L303.476 91.8473C303.45 91.6966 303.312 91.6032 303.162 91.6196L302.49 91.7033C302.319 91.7292 302.172 91.5956 302.166 91.4254L302.126 90.1841C302.121 89.9739 302.345 89.8293 302.533 89.9138C302.622 89.956 302.68 90.0374 302.688 90.1277L302.792 90.7904C302.809 90.8908 302.877 90.9725 302.967 91.0047L303.729 91.3233C303.808 91.3552 303.867 91.4166 303.885 91.4971L304.035 91.9208C304.063 91.9916 304.112 92.0527 304.181 92.0844L305.526 92.7272C305.595 92.7589 305.653 92.8204 305.672 92.9008L306.125 94.4223C306.125 94.4223 306.133 94.4825 306.133 94.5125L306.063 97.3716C306.058 97.6016 306.324 97.7481 306.518 97.6127L307.871 96.6653C307.871 96.6653 307.942 96.627 307.972 96.6177L310.597 96.0512C310.788 96.0058 310.964 96.1701 310.939 96.3596L310.823 97.4271C310.81 97.5668 310.887 97.6887 311.026 97.7321L311.324 97.8193C311.463 97.8627 311.549 98.0148 311.516 98.1541L311.305 99.0192C311.305 99.0192 311.294 99.0589 311.283 99.0787L310.967 99.7412C310.967 99.7412 310.945 99.8207 310.945 99.8507L310.918 100.96C310.918 100.96 310.916 101.03 310.925 101.061L311 101.282C311.093 101.555 311.504 101.525 311.551 101.236L311.645 100.668C311.645 100.668 311.647 100.588 311.648 100.558L311.475 99.8536C311.456 99.7931 311.468 99.7234 311.499 99.6641C311.626 99.4071 311.994 99.4661 312.037 99.7472L312.122 100.379C312.148 100.55 312.315 100.664 312.487 100.608L313.605 100.265C313.706 100.238 313.798 100.16 313.84 100.061L314.062 99.5962C314.125 99.4677 314.108 99.3173 314.031 99.2054L313.76 98.8187C313.625 98.6253 313.691 98.3669 313.884 98.2515L313.915 98.2323C314.067 98.1459 314.246 98.1703 314.374 98.2834L314.784 98.6635C314.873 98.7456 314.992 98.7785 315.112 98.7614L317.312 98.3847C317.402 98.3669 317.494 98.3191 317.556 98.2405L318.608 96.9157C318.659 96.8569 318.691 96.7776 318.693 96.6977L318.743 95.8686C318.746 95.7487 318.809 95.6402 318.901 95.5724L319.237 95.3304C319.389 95.2241 319.589 95.229 319.726 95.3523L320.157 95.7329C320.255 95.8153 320.302 95.9465 320.279 96.0759L320.229 96.4748C320.193 96.744 320.447 96.9703 320.709 96.9066C320.92 96.8517 321.046 96.6347 320.99 96.4333L320.899 96.091C320.853 95.9198 320.937 95.7318 321.09 95.6455L321.657 95.3391C321.769 95.2818 321.899 95.275 322.007 95.3276L322.739 95.6755C322.868 95.7386 323.018 95.7223 323.14 95.6352L324.871 94.3768C324.871 94.3768 324.953 94.2988 324.985 94.2495L325.385 93.419C325.469 93.2409 325.394 93.0391 325.216 92.9547C324.929 92.8177 324.959 92.3983 325.262 92.3056L326.784 91.8324C326.864 91.8044 326.954 91.8165 327.033 91.8485L328.714 92.6495C328.774 92.6809 328.853 92.6928 328.924 92.6746L330.571 92.4144C330.641 92.4061 330.711 92.4178 330.78 92.4395L331.215 92.6501C331.502 92.7871 331.472 93.2065 331.169 93.2992L329.305 93.8641C329.194 93.9015 329.112 93.9795 329.07 94.0885L328.691 95.2797C328.604 95.5676 328.887 95.8246 329.161 95.7012L331.01 94.9158C331.091 94.8877 331.153 94.8192 331.184 94.74L331.437 94.2159C331.501 94.0774 331.653 94.0011 331.802 94.0247L333.088 94.216L334.696 94.295L335.26 94.5587L337.519 93.8233C337.781 93.7396 337.869 93.4017 337.674 93.1969L335.283 90.7282C335.205 90.6462 335.096 90.6036 334.976 90.6107L334.054 90.6883C333.984 90.6866 333.904 90.6847 333.835 90.643L332.216 89.7535C332.137 89.7116 332.068 89.6399 332.041 89.5492L331.47 87.9349C331.432 87.8439 331.364 87.7623 331.275 87.7201L328.644 86.4659C328.555 86.4238 328.455 86.4214 328.365 86.4492L327.407 86.746C327.286 86.7831 327.157 86.76 327.059 86.6876L325.851 85.748C325.714 85.6346 325.668 85.4435 325.742 85.2852L325.858 85.048C325.932 84.8897 325.886 84.6986 325.759 84.5854L324.965 83.936C324.837 83.8329 324.667 83.8187 324.535 83.9056L324.241 84.0785C324.089 84.1648 323.909 84.1405 323.782 84.0273L322.902 83.1758C322.668 82.95 322.807 82.5533 323.138 82.5213L323.289 82.5049C323.439 82.4886 323.561 82.4015 323.615 82.2628L323.658 82.1438C323.722 81.9753 323.656 81.7836 323.499 81.6898L320.175 79.7286C320.116 79.6972 320.046 79.6755 319.976 79.6738L316.774 79.7561C316.634 79.7527 316.501 79.8396 316.438 79.9681L316.438 79.9881C316.365 80.1163 316.233 80.2032 316.083 80.1995L314.643 80.1846C314.503 80.1812 314.365 80.0978 314.307 79.9764L314.165 79.6729C314.108 79.5514 313.98 79.4683 313.84 79.4649L312.281 79.3871C312.111 79.383 311.949 79.4891 311.905 79.6481C311.818 79.906 311.496 79.9982 311.29 79.8232L310.458 79.0928C310.301 78.959 310.071 78.9734 309.927 79.1199L309.917 79.1197C309.814 79.2472 309.653 79.2834 309.504 79.2297L307.908 78.6408C307.848 78.6194 307.789 78.608 307.728 78.6165L304.638 79.0117C304.528 79.029 304.429 78.9666 304.381 78.8654L304.211 78.4812C304.135 78.2993 304.28 78.1127 304.469 78.1373L305.396 78.2798C305.396 78.2798 305.446 78.2811 305.476 78.2818C305.657 78.2562 305.742 78.0382 305.626 77.8853L303.326 74.9387C303.278 74.8775 303.189 74.8353 303.109 74.8434L299.609 75.1886C299.609 75.1886 299.559 75.1974 299.539 75.2069L296.718 76.4289C296.617 76.4764 296.555 76.575 296.572 76.6854L296.681 77.5583C296.698 77.6688 296.786 77.7609 296.896 77.7736L297.734 77.8739C297.873 77.8873 297.98 78.0299 297.946 78.1692L297.812 78.7761C297.779 78.9053 297.856 79.0272 297.975 79.0601L298.461 79.212C298.541 79.2339 298.631 79.2161 298.692 79.1676L299.663 78.3508C299.663 78.3508 299.735 78.2626 299.746 78.2028L299.83 77.6147C299.843 77.525 299.915 77.4467 300.005 77.4189L301.537 76.9459C301.598 76.9273 301.658 76.9288 301.717 76.9502L301.885 77.0243C302.083 77.1192 302.066 77.3988 301.864 77.474L300.765 77.8674C300.664 77.905 300.602 77.9935 300.599 78.1035L300.59 78.4634C300.608 78.5638 300.666 78.6452 300.755 78.6874L301.616 79.0484C301.695 79.0803 301.754 79.1618 301.761 79.252L301.761 79.272C301.786 79.4627 301.583 79.5978 301.415 79.5137L301.059 79.345C300.94 79.2921 300.809 79.3389 300.736 79.4472L300.528 79.8022C300.486 79.8813 300.395 79.9291 300.305 79.9269L298.286 79.8379C298.286 79.8379 298.216 79.8362 298.187 79.8055L296.755 79.0605C296.755 79.0605 296.675 79.0286 296.625 79.0374L295.433 79.1085C295.433 79.1085 295.413 79.108 295.403 79.1078L293.975 79.4132C293.462 79.5208 293.15 80.0334 293.278 80.5367C293.296 80.5971 293.275 80.6566 293.234 80.6957L292.875 81.0571C292.824 81.1058 292.753 81.1241 292.684 81.0924L292.18 80.8501C291.755 80.6498 291.25 80.8476 291.079 81.2836L290.876 81.8188C290.854 81.8783 290.873 81.9488 290.912 81.9997L291.635 82.6975C291.635 82.6975 291.704 82.7392 291.744 82.7401L292.703 82.7934C292.773 82.7951 292.834 82.7566 292.865 82.6973L292.991 82.4403C293.181 82.0448 293.587 81.7945 294.017 81.805L295.017 81.8292C295.437 81.8394 295.716 82.2663 295.557 82.6526C295.557 82.6526 295.545 82.7423 295.554 82.7825L296.055 83.975C296.083 84.0457 296.162 84.0877 296.233 84.0794L296.393 84.0532C296.484 84.0454 296.545 83.9669 296.538 83.8767L296.435 82.3537C296.436 82.2938 296.457 82.2443 296.508 82.2055L296.844 81.9536C296.967 81.8665 297.134 81.9606 297.111 82.1101L297.026 82.7082C297.026 82.7082 297.025 82.7482 297.025 82.7682L297.232 83.7235C297.232 83.7235 297.231 83.7335 297.231 83.7435L297.357 85.1369C297.365 85.2272 297.453 85.2993 297.544 85.2915L297.845 85.2588C297.915 85.2605 297.966 85.2017 297.988 85.1322C298.042 84.9535 298.301 84.9798 298.317 85.1602L298.371 85.8217C298.377 85.9719 298.484 86.0946 298.623 86.1379L299.636 86.4626C300.063 86.603 300.22 87.1269 299.922 87.4698L299.613 87.8324C299.51 87.96 299.329 87.9956 299.18 87.922L298.231 87.4688C298.231 87.4688 298.192 87.4478 298.172 87.4374L296.707 86.3715C296.53 86.2472 296.301 86.2316 296.117 86.3572C295.894 86.4919 295.615 86.4551 295.44 86.2608L294.281 84.9423C294.223 84.8809 294.225 84.7809 294.286 84.7224L294.626 84.3405C294.708 84.2524 294.671 84.1115 294.562 84.0689L292.195 83.1212L292.056 83.0678C291.352 82.8106 290.581 82.832 289.904 83.1356L289.903 83.1756ZM301.959 84.7084L301.937 84.7779C301.904 84.9071 301.931 85.0478 302.018 85.15L302.543 85.7929C302.718 86.0072 302.64 86.3254 302.397 86.4495C302.255 86.5161 302.086 86.502 301.958 86.4089L300.572 85.395C300.572 85.395 300.533 85.364 300.503 85.3533L299.771 85.0054C299.484 84.8684 299.444 84.4773 299.699 84.2835L300.32 83.8084C300.443 83.7113 300.613 83.6955 300.762 83.7691L301.721 84.2325C301.909 84.317 302.003 84.5294 301.949 84.7181L301.959 84.7084ZM304.774 87.4174L304.321 88.3567C304.216 88.5643 303.964 88.6582 303.756 88.5531L303.578 88.4688C303.371 88.3637 303.277 88.1113 303.382 87.9038L303.635 87.3698C303.666 87.3106 303.678 87.2408 303.68 87.1808L303.663 86.2201C303.659 85.97 303.864 85.7749 304.113 85.7909L304.633 85.8236C304.893 85.8299 305.077 86.0844 305.031 86.3333L304.826 87.3287C304.826 87.3287 304.805 87.3982 304.794 87.4279L304.774 87.4174ZM297.257 99.5788L296.459 99.8995C296.358 99.9371 296.277 100.005 296.214 100.104L295.54 101.088C295.353 101.363 295.454 101.746 295.761 101.893L295.929 101.977C296.146 102.083 296.407 102.029 296.572 101.853L297.866 100.464C297.938 100.386 297.99 100.287 298.003 100.187C298.073 99.7586 297.651 99.4183 297.257 99.5788ZM310.033 101.559L310.09 102.521C310.09 102.521 310.098 102.581 310.117 102.611L310.604 103.584C310.671 103.715 310.83 103.749 310.952 103.672L311.369 103.382C311.471 103.314 311.504 103.175 311.437 103.074L310.495 101.46C310.495 101.46 310.496 101.45 310.496 101.44C310.382 101.207 310.029 101.299 310.053 101.56L310.033 101.559ZM311.415 103.963C311.221 104.129 311.204 104.418 311.379 104.603L311.935 105.196C312.043 105.309 312.201 105.363 312.352 105.326L312.543 105.281C312.825 105.218 312.972 104.911 312.849 104.648L312.715 104.385C312.667 104.294 312.599 104.232 312.51 104.19L311.897 103.895C311.739 103.821 311.558 103.847 311.425 103.954L311.415 103.963ZM312.361 102.916L312.502 103.7C312.51 103.76 312.549 103.821 312.588 103.862L313.174 104.426C313.282 104.529 313.452 104.543 313.574 104.456L314.602 103.711C314.684 103.652 314.736 103.554 314.728 103.454L314.723 102.863C314.726 102.733 314.799 102.615 314.93 102.568C315.121 102.503 315.197 102.275 315.091 102.112L314.985 101.939C314.889 101.787 314.67 101.752 314.527 101.868L313.822 102.461C313.822 102.461 313.731 102.519 313.68 102.528L313.148 102.625C313.148 102.625 313.058 102.623 313.018 102.622L312.76 102.556C312.541 102.5 312.336 102.685 312.381 102.906L312.361 102.916ZM317.448 98.538L317.247 98.5932C317.176 98.6115 317.125 98.6702 317.133 98.7404L317.124 99.1303C317.122 99.1903 317.161 99.2513 317.22 99.2727C317.299 99.3146 317.39 99.2768 317.432 99.1978L317.643 98.7528C317.696 98.6341 317.589 98.5014 317.468 98.5385L317.448 98.538ZM316.671 100.05L316.261 100.48C316.261 100.48 316.198 100.578 316.207 100.629L316.223 100.819C316.229 100.949 316.357 101.042 316.478 101.005C316.529 100.986 316.58 100.948 316.601 100.898L316.706 100.681C316.706 100.681 316.748 100.612 316.788 100.593L317.062 100.429C317.205 100.343 317.189 100.142 317.051 100.069L316.913 100.005C316.834 99.9635 316.743 99.9814 316.681 100.05L316.671 100.05ZM315.896 102.341C315.823 102.46 315.889 102.611 316.018 102.645L316.058 102.646C316.148 102.668 316.216 102.749 316.214 102.839L316.227 103.13C316.223 103.26 316.351 103.343 316.472 103.316L316.885 103.216C316.965 103.198 317.017 103.139 317.039 103.059L317.118 102.651C317.141 102.542 317.074 102.44 316.964 102.417L316.108 102.247C316.028 102.235 315.938 102.262 315.896 102.341ZM316.61 101.349L316.694 101.601C316.694 101.601 316.703 101.651 316.692 101.671L316.632 102.099C316.63 102.159 316.659 102.22 316.708 102.251L316.758 102.272C316.827 102.304 316.918 102.276 316.949 102.207L317.065 101.97C317.065 101.97 317.087 101.9 317.068 101.86L316.863 101.245C316.835 101.154 316.726 101.111 316.644 101.169C316.593 101.208 316.562 101.277 316.59 101.338L316.61 101.349ZM314.948 103.869L314.193 104.501C314.193 104.501 314.172 104.53 314.162 104.54L313.924 105.275C313.924 105.275 313.922 105.365 313.971 105.386L314.041 105.417C314.041 105.417 314.14 105.42 314.162 105.37L314.351 104.985C314.393 104.906 314.513 104.919 314.531 105.009L314.573 105.31C314.573 105.31 314.621 105.391 314.661 105.392L314.901 105.398C314.961 105.4 315.002 105.351 314.994 105.29L314.927 104.759C314.927 104.759 314.939 104.679 314.979 104.66L315.172 104.565C315.242 104.526 315.245 104.426 315.176 104.395L314.988 104.31C314.988 104.31 314.968 104.31 314.948 104.309C314.858 104.307 314.83 104.196 314.892 104.138L314.983 104.07C314.983 104.07 315.054 104.042 315.093 104.073L315.596 104.405C315.596 104.405 315.655 104.426 315.686 104.407L316.1 104.207C316.161 104.178 316.173 104.099 316.124 104.058L315.978 103.914C315.978 103.914 315.888 103.882 315.848 103.911L315.684 104.057C315.684 104.057 315.623 104.085 315.584 104.074L315.049 103.851C315.049 103.851 314.979 103.85 314.958 103.869L314.948 103.869ZM318.312 106.241L317.692 106.226C317.692 106.226 317.613 106.184 317.594 106.144L317.576 106.063C317.576 106.063 317.577 106.013 317.578 105.993L317.715 105.707C317.715 105.707 317.717 105.617 317.688 105.586L317.237 105.175C317.237 105.175 317.218 105.164 317.208 105.154L317.04 105.07C316.99 105.049 316.93 105.067 316.899 105.117L316.898 105.147C316.898 105.147 316.876 105.226 316.895 105.257L317.089 105.511C317.089 105.511 317.108 105.542 317.108 105.562L317.124 105.722C317.124 105.722 317.143 105.783 317.172 105.803L317.29 105.876C317.29 105.876 317.358 105.958 317.327 106.007L317.326 106.037C317.326 106.037 317.296 106.067 317.275 106.076L317.143 106.173C317.072 106.231 317.099 106.342 317.189 106.354L317.249 106.355C317.249 106.355 317.278 106.366 317.298 106.387L317.671 106.666L317.691 106.686L318.067 107.266C318.105 107.327 318.074 107.396 318.013 107.424L317.811 107.489C317.721 107.517 317.718 107.637 317.807 107.679L318.212 107.869C318.212 107.869 318.252 107.9 318.261 107.93L318.401 108.324C318.401 108.324 318.47 108.396 318.52 108.387L319.153 108.272C319.153 108.272 319.233 108.274 319.252 108.315L319.416 108.549C319.416 108.549 319.444 108.619 319.424 108.649L319.371 108.758C319.371 108.758 319.369 108.848 319.398 108.878L319.986 109.393C320.064 109.465 320.186 109.388 320.148 109.287L319.879 108.45C319.879 108.45 319.881 108.37 319.901 108.34L320.065 108.184C320.116 108.136 320.099 108.045 320.039 108.014L319.822 107.908C319.822 107.908 319.753 107.847 319.765 107.797L319.823 107.458C319.823 107.458 319.825 107.378 319.785 107.357L318.342 106.232C318.342 106.232 318.303 106.211 318.283 106.211L318.312 106.241ZM312.647 108.415L311.239 108.32C311.079 108.316 310.947 108.413 310.903 108.562L310.159 111.205C310.115 111.364 310.191 111.526 310.33 111.589L311.655 112.222C311.655 112.222 311.754 112.254 311.804 112.255L313.316 112.212C313.436 112.215 313.554 112.278 313.612 112.379L314.101 113.251C314.168 113.363 314.296 113.436 314.427 113.419L314.597 113.403C314.798 113.378 314.974 113.542 314.969 113.742L314.942 114.832C314.939 114.962 315.016 115.084 315.135 115.137L315.966 115.537C315.966 115.537 316.055 115.569 316.095 115.57L316.955 115.591C317.025 115.593 317.095 115.584 317.146 115.546L318.529 114.619C318.529 114.619 318.621 114.541 318.642 114.482L319.327 113.038C319.369 112.949 319.372 112.859 319.334 112.768L318.559 110.879C318.559 110.879 318.541 110.818 318.532 110.788L318.385 109.414C318.352 109.133 318.014 109.015 317.819 109.22L317.327 109.738C317.163 109.904 316.884 109.858 316.789 109.645L316.59 109.2C316.542 109.099 316.555 108.979 316.607 108.891L316.846 108.516C316.95 108.349 316.886 108.127 316.708 108.043L316.203 107.801C316.124 107.769 316.044 107.757 315.964 107.785L314.845 108.128C314.704 108.174 314.555 108.121 314.478 107.999C314.381 107.856 314.202 107.812 314.051 107.888L313.625 108.108C313.625 108.108 313.595 108.127 313.575 108.127L312.778 108.388C312.778 108.388 312.698 108.406 312.658 108.405L312.647 108.415ZM322.417 117.644L322.336 118.492C322.334 118.552 322.303 118.602 322.253 118.63L322.09 118.737C322.029 118.775 321.997 118.854 322.015 118.935L322.106 119.317C322.142 119.458 322.321 119.512 322.424 119.395L322.702 119.071C322.702 119.071 322.794 119.004 322.844 119.005L323.224 119.014C323.294 119.016 323.365 118.967 323.396 118.908L323.428 118.849C323.48 118.74 323.423 118.619 323.304 118.596L322.906 118.496C322.827 118.474 322.768 118.403 322.77 118.313L322.786 117.663C322.788 117.593 322.74 117.522 322.68 117.49C322.562 117.438 322.43 117.514 322.417 117.634L322.417 117.644ZM321.557 119.264L321.4 119.14C321.4 119.14 321.301 119.087 321.241 119.106L319.903 119.424C319.762 119.46 319.717 119.639 319.825 119.742L320.236 120.122C320.304 120.184 320.394 120.186 320.466 120.128L320.995 119.75C320.995 119.75 321.025 119.731 321.046 119.721L321.489 119.582C321.63 119.536 321.665 119.356 321.547 119.263L321.557 119.264Z"
        fill="#33A4DD" />
    </g>
    <g style="mix-blend-mode:multiply" opacity="0.46">
      <path
        d="M282.889 95.6192C271.488 90.1711 266.658 76.5 272.106 65.0987C274.066 60.9951 277.096 57.7376 280.701 55.5143C274.241 57.0782 268.514 61.4306 265.426 67.8876C259.978 79.2889 264.798 92.9597 276.209 98.408C283.507 101.896 291.737 101.175 298.135 97.2193C293.194 98.4199 287.823 97.9895 282.889 95.6192Z"
        fill="#B9B7D9" />
    </g>
    <g style="mix-blend-mode:overlay" opacity="0.64">
      <path
        d="M303.476 65.8696C306.545 70.9255 307.29 76.0751 305.138 77.3833C302.985 78.6915 298.758 75.6481 295.69 70.5922C292.621 65.5363 291.876 60.3867 294.028 59.0785C296.181 57.7703 300.408 60.8137 303.476 65.8696Z"
        fill="white" />
      <path
        d="M303.476 65.8696C306.545 70.9255 307.29 76.0751 305.138 77.3833C302.985 78.6915 298.758 75.6481 295.69 70.5922C292.621 65.5363 291.876 60.3867 294.028 59.0785C296.181 57.7703 300.408 60.8137 303.476 65.8696Z"
        stroke="#231F20" stroke-width="0.77" stroke-miterlimit="10" />
    </g>
    <path
      d="M186.146 51.6705L179.003 49.6367L189.247 13.7446L189.305 13.796C193.038 17.0475 194.564 22.166 193.198 26.9342L186.136 51.6803L186.146 51.6705Z"
      fill="#DEE7F0" stroke="#231F20" stroke-width="0.67" stroke-miterlimit="10" />
    <path d="M186.146 51.6705L188.616 43.0179L181.462 41.0438L179.003 49.6367L186.146 51.6705Z"
      fill="#7FD3F2" stroke="#231F20" stroke-width="0.67" stroke-miterlimit="10" />
    <path
      d="M196.34 49.167L201.716 44.0458L175.984 17.0039L175.952 17.0832C174.149 21.7008 175.183 26.9374 178.597 30.5213L196.34 49.157L196.34 49.167Z"
      fill="#DEE7F0" stroke="#231F20" stroke-width="0.67" stroke-miterlimit="10" />
    <path d="M196.34 49.167L190.136 42.6446L195.551 37.5744L201.716 44.0458L196.34 49.167Z"
      fill="#7FD3F2" stroke="#231F20" stroke-width="0.67" stroke-miterlimit="10" />
    <path
      d="M188.639 33.8558C188.811 34.5701 188.374 35.2997 187.659 35.4725C186.945 35.6452 186.215 35.2074 186.042 34.493C185.87 33.7786 186.307 33.049 187.022 32.8763C187.736 32.7035 188.466 33.1414 188.639 33.8558Z"
      fill="#6364A9" stroke="#231F20" stroke-width="0.67" stroke-miterlimit="10" />
    <path d="M185.519 26.798L191.415 33.2229" stroke="#231F20" stroke-width="0.67"
      stroke-miterlimit="10" />
    <path d="M183.064 35.221L189.043 41.5078" stroke="#231F20" stroke-width="0.67"
      stroke-miterlimit="10" />
    <path
      d="M182.376 60.7018C179.84 61.3305 177.267 59.7776 176.639 57.2316C176.01 54.6957 177.563 52.1226 180.109 51.4941C182.645 50.8654 185.218 52.4183 185.846 54.9642C186.475 57.5002 184.922 60.0733 182.376 60.7018ZM179.299 48.1835C174.921 49.2577 172.253 53.6743 173.328 58.0516C174.402 62.4289 178.818 65.0968 183.196 64.0226C187.573 62.9485 190.241 58.5318 189.167 54.1545C188.093 49.7772 183.676 47.1093 179.299 48.1835Z"
      fill="#7FD3F2" stroke="#231F20" stroke-width="0.67" stroke-miterlimit="10" />
    <path
      d="M194.812 52.761C195.886 57.1383 200.303 59.8062 204.68 58.732C209.057 57.6578 211.725 53.2412 210.651 48.8639C209.577 44.4866 205.16 41.8187 200.783 42.8929C196.406 43.967 193.738 48.3837 194.812 52.761ZM198.133 51.9413C197.504 49.4053 199.057 46.8322 201.603 46.2037C204.139 45.575 206.712 47.1279 207.341 49.6739C207.969 52.2099 206.416 54.783 203.87 55.4114C201.334 56.0401 198.761 54.4873 198.133 51.9413Z"
      fill="#7FD3F2" stroke="#231F20" stroke-width="0.67" stroke-miterlimit="10" />
    <mask id="mask1_791_4" style="mask-type:luminance" maskUnits="userSpaceOnUse" x="82" y="48"
      width="51" height="50">
      <path
        d="M94.4801 93.6903C82.9333 86.4082 79.4822 71.15 86.7641 59.6132C94.0462 48.0664 109.304 44.6153 120.841 51.8972C132.388 59.1793 135.839 74.4375 128.557 85.9743C121.275 97.5211 106.017 100.972 94.4801 93.6903Z"
        fill="white" />
    </mask>
    <g mask="url(#mask1_791_4)">
      <path
        d="M94.4801 93.6903C82.9333 86.4082 79.4822 71.15 86.7641 59.6132C94.0462 48.0664 109.304 44.6153 120.841 51.8972C132.388 59.1793 135.839 74.4375 128.557 85.9743C121.275 97.5211 106.017 100.972 94.4801 93.6903Z"
        fill="#66C9CF" stroke="#231F20" stroke-width="0.94" stroke-miterlimit="10" />
      <path
        d="M83.842 92.2419C71.507 84.4606 68.4768 67.112 77.0695 53.4963C85.6621 39.8807 102.622 35.1405 114.957 42.9219C127.292 50.7032 130.322 68.0518 121.73 81.6675C113.137 95.2831 96.1769 100.023 83.842 92.2419Z"
        stroke="#231F20" stroke-width="0.94" stroke-miterlimit="10" />
      <path d="M133.138 88.8662L79.3159 54.9112" stroke="#231F20" stroke-width="0.94"
        stroke-miterlimit="10" />
      <path
        d="M134.772 73.0812C134.772 73.0812 130.657 82.2841 123.692 75.8034C118.733 71.1917 117.371 50.6427 87.8638 48.5066"
        stroke="#231F20" stroke-width="0.94" stroke-miterlimit="10" />
      <path
        d="M119.604 97.1305C119.604 97.1305 126.142 89.4568 117.284 85.961C110.993 83.4677 91.852 91.0958 77.2212 65.3835"
        stroke="#231F20" stroke-width="0.94" stroke-miterlimit="10" />
    </g>
    <path
      d="M94.4801 93.6903C82.9333 86.4082 79.4822 71.15 86.7641 59.6132C94.0462 48.0664 109.304 44.6153 120.841 51.8972C132.388 59.1793 135.839 74.4375 128.557 85.9743C121.275 97.5211 106.017 100.972 94.4801 93.6903Z"
      stroke="#231F20" stroke-width="0.94" stroke-miterlimit="10" />
    <g style="mix-blend-mode:multiply" opacity="0.32">
      <path
        d="M132.189 73.1786C131.433 75.4509 130.27 77.6234 128.682 79.5954C121.545 88.455 108.568 89.8507 99.7083 82.7038C90.8488 75.5669 89.453 62.5892 96.5899 53.7297C98.1782 51.7576 100.058 50.1527 102.118 48.9323C96.8379 50.1046 91.9061 53.0059 88.2451 57.5385C79.685 68.164 81.3583 83.7192 91.9839 92.2793C102.609 100.839 118.165 99.1662 126.725 88.5406C130.386 83.998 132.168 78.5597 132.19 73.1486L132.189 73.1786Z"
        fill="#010101" />
      <path
        d="M132.189 73.1786C131.433 75.4509 130.27 77.6234 128.682 79.5954C121.545 88.455 108.568 89.8507 99.7083 82.7038C90.8488 75.5669 89.453 62.5892 96.5899 53.7297C98.1782 51.7576 100.058 50.1527 102.118 48.9323C96.8379 50.1046 91.9061 53.0059 88.2451 57.5385C79.685 68.164 81.3583 83.7192 91.9839 92.2793C102.609 100.839 118.165 99.1662 126.725 88.5406C130.386 83.998 132.168 78.5597 132.19 73.1486L132.189 73.1786Z"
        stroke="#231F20" stroke-width="0.94" stroke-miterlimit="10" />
    </g>
    <g style="mix-blend-mode:multiply" opacity="0.15">
      <path
        d="M106.31 96.2979C107.01 96.745 107.731 97.1326 108.472 97.4807C109.113 97.4562 109.764 97.412 110.396 97.3473C108.555 96.9625 106.74 96.3183 105.012 95.4061C105.434 95.7165 105.867 96.0171 106.31 96.3079L106.31 96.2979Z"
        fill="#6162A8" />
      <path
        d="M106.31 96.2979C107.01 96.745 107.731 97.1326 108.472 97.4807C109.113 97.4562 109.764 97.412 110.396 97.3473C108.555 96.9625 106.74 96.3183 105.012 95.4061C105.434 95.7165 105.867 96.0171 106.31 96.3079L106.31 96.2979Z"
        stroke="#231F20" stroke-width="0.94" stroke-miterlimit="10" />
    </g>
    <g style="mix-blend-mode:multiply" opacity="0.15">
      <path
        d="M126.92 60.6572C128.493 61.8256 129.86 63.1892 130.994 64.6771C130.779 64.0717 130.543 63.4658 130.288 62.8794C129.66 62.3741 128.991 61.8877 128.292 61.4406C127.838 61.1596 127.385 60.8985 126.92 60.6572Z"
        fill="#6162A8" />
      <path
        d="M126.92 60.6572C128.493 61.8256 129.86 63.1892 130.994 64.6771C130.779 64.0717 130.543 63.4658 130.288 62.8794C129.66 62.3741 128.991 61.8877 128.292 61.4406C127.838 61.1596 127.385 60.8985 126.92 60.6572Z"
        stroke="#231F20" stroke-width="0.94" stroke-miterlimit="10" />
    </g>
    <path
      d="M94.4801 93.6903C82.9333 86.4082 79.4822 71.15 86.7641 59.6132C94.0462 48.0664 109.304 44.6153 120.841 51.8972C132.388 59.1793 135.839 74.4375 128.557 85.9743C121.275 97.5211 106.017 100.972 94.4801 93.6903Z"
      stroke="#231F20" stroke-width="0.94" stroke-miterlimit="10" />
    <path
      d="M102.143 271.828C102.159 271.189 99.8124 270.592 96.5778 270.333C96.0786 270.291 95.6884 269.881 95.6706 269.381C95.5692 266.137 95.0866 263.765 94.4468 263.749C93.807 263.734 93.2099 266.08 92.9514 269.315C92.9093 269.814 92.4997 270.204 91.9991 270.222C88.7557 270.323 86.3833 270.806 86.3678 271.446C86.3523 272.086 88.6985 272.683 91.9331 272.941C92.4323 272.983 92.8225 273.393 92.8403 273.894C92.9417 277.137 93.4243 279.509 94.0641 279.525C94.704 279.54 95.301 277.194 95.5595 273.959C95.6016 273.46 96.0112 273.07 96.5118 273.052C99.7552 272.951 102.128 272.468 102.143 271.828Z"
      fill="#7FD3F2" stroke="#231F20" stroke-width="0.76" stroke-miterlimit="10" />
    <path
      d="M326.424 289.372C326.437 288.822 324.439 288.313 321.684 288.096C321.254 288.066 320.923 287.708 320.913 287.287C320.83 284.525 320.419 282.504 319.869 282.491C319.319 282.477 318.81 284.476 318.594 287.231C318.563 287.661 318.205 287.992 317.785 288.002C315.022 288.085 313.001 288.496 312.988 289.046C312.975 289.596 314.973 290.104 317.728 290.321C318.158 290.352 318.489 290.71 318.499 291.13C318.582 293.893 318.993 295.913 319.543 295.927C320.093 295.94 320.601 293.942 320.818 291.186C320.849 290.757 321.207 290.426 321.627 290.416C324.39 290.333 326.411 289.922 326.424 289.372Z"
      fill="#7FD3F2" stroke="#231F20" stroke-miterlimit="10" />
  </g>
  <defs>
    <filter id="filter0_d_791_4" x="0.529297" y="5.89734" width="340.631" height="385.547"
      filterUnits="userSpaceOnUse" color-interpolation-filters="sRGB">
      <feFlood flood-opacity="0" result="BackgroundImageFix" />
      <feColorMatrix in="SourceAlpha" type="matrix"
        values="0 0 0 0 0 0 0 0 0 0 0 0 0 0 0 0 0 0 127 0" result="hardAlpha" />
      <feOffset dy="4" />
      <feGaussianBlur stdDeviation="2" />
      <feComposite in2="hardAlpha" operator="out" />
      <feColorMatrix type="matrix" values="0 0 0 0 0 0 0 0 0 0 0 0 0 0 0 0 0 0 0.25 0" />
      <feBlend mode="normal" in2="BackgroundImageFix" result="effect1_dropShadow_791_4" />
      <feBlend mode="normal" in="SourceGraphic" in2="effect1_dropShadow_791_4" result="shape" />
    </filter>
  </defs>
</svg>