<svg width="333" height="367" viewBox="0 0 333 367" fill="none" xmlns="http://www.w3.org/2000/svg">
  <path
    d="M140.313 281.989L148.954 289.034C148.954 289.034 155.487 273.113 155.516 266.287C155.546 259.462 151.225 251.508 150.082 246.953C148.94 242.398 152.587 239.322 157.362 245.987L158.724 247.642L161.36 231.706C161.536 230.637 162.547 229.919 163.616 230.08C164.597 230.241 165.301 231.091 165.271 232.087L164.861 245.987L168.684 231.486C169.021 230.212 170.339 229.465 171.613 229.831C172.741 230.153 173.459 231.266 173.283 232.438L171.233 245.987L175.158 236.612C175.495 235.792 176.432 235.411 177.252 235.734C178.043 236.056 178.439 236.92 178.19 237.726L176.681 242.413C176.681 242.413 178.732 247.188 175.539 254.921C173.034 262.875 168.494 272.205 167.351 283.571C166.209 294.937 164.568 314.784 155.502 317.142C146.435 319.5 127.848 301.762 127.848 301.762L140.298 281.974L140.313 281.989Z"
    fill="#F9A67C" />
  <path
    d="M128.039 260.619C128.039 260.619 143.726 279.953 145.089 282.223C143.272 295.405 136.945 307.24 131.804 308.822C126.663 310.418 128.025 260.619 128.025 260.619H128.039Z"
    fill="white" />
  <path d="M176.696 242.427L173.312 252.578" stroke="#E3734A" stroke-width="0.820232"
    stroke-miterlimit="10" />
  <path d="M158.724 247.656C158.724 247.656 166.223 251.537 165.125 261.483" stroke="#E3734A"
    stroke-width="0.820232" stroke-miterlimit="10" />
  <path d="M148.954 289.034L145.6 299.214" stroke="#E3734A" stroke-width="0.820232"
    stroke-miterlimit="10" />
  <path
    d="M163.455 307.064C161.947 306.302 160.248 305.863 158.446 305.863C152.719 305.863 148.003 310.184 147.358 315.735C150.376 317.068 153.246 317.742 155.517 317.156C159.266 316.175 161.756 312.205 163.455 307.064Z"
    fill="#EC8558" />
  <g style="mix-blend-mode:multiply" opacity="0.5">
    <path
      d="M140.767 276.51C139.493 282.648 136.051 297.046 130.001 306.727C130.485 308.251 131.085 309.056 131.803 308.822C136.944 307.225 143.272 295.405 145.088 282.223C144.678 281.534 142.964 279.293 140.767 276.51Z"
      fill="#E6E7E8" />
  </g>
  <path
    d="M123.937 200.581C123.937 200.581 138.042 188.98 137.119 183.986C136.211 178.976 145.761 178.976 128.258 180.353C110.755 181.715 96.8842 181.95 96.8842 181.95C96.8842 181.95 91.7284 176.574 79.9815 189.273L75.9682 195.366C75.9682 195.366 74.152 190.357 71.413 189.566C68.6887 188.775 71.413 198.925 71.413 198.925C71.413 198.925 70.7246 198.779 66.6381 199.687C62.5516 200.595 71.8671 204.916 71.8671 204.916C71.8671 204.916 66.184 216.736 71.1787 225.378C76.1879 234.02 93.1345 248.33 94.0426 250.834C99.0519 238.78 121.755 202.485 123.937 200.595V200.581Z"
    fill="#B42F26" />
  <path
    d="M100.063 249.707C100.063 249.707 77.2865 251.875 65.5982 261.483C53.9099 271.091 51.8593 320.657 50.0431 334.762C48.2268 348.867 69.5968 347.49 78.0188 345.674C86.4262 343.858 100.077 249.707 100.077 249.707H100.063Z"
    fill="#598CAF" />
  <path
    d="M63.094 305.863C63.094 305.863 59.8277 330.865 59.4908 336.431C59.1686 341.983 61.2924 346.362 61.2924 346.362"
    stroke="#80CCEA" stroke-width="0.776291" stroke-miterlimit="10" />
  <path d="M135.333 351.108L133.019 367H74.8555V347.139L135.333 351.108Z" fill="#ED1C24" />
  <path
    d="M108.016 253.105C108.016 253.105 125.974 259.242 128.024 260.604C130.075 261.966 138.936 328.142 140.298 352.25C105.058 364.525 70.9448 354.521 70.9448 354.521L75.9541 261.468L97.2362 252.197L108.016 253.105Z"
    fill="white" />
  <path
    d="M95.3169 201.65L77.5941 205.341C77.5941 205.341 90.6738 195.22 88.6525 192.246C86.6313 189.273 75.9682 195.366 75.9682 195.366C75.9682 195.366 74.152 190.357 71.413 189.566C68.6887 188.775 71.413 198.925 71.413 198.925C71.413 198.925 70.7246 198.779 66.6381 199.687C62.5516 200.595 71.8671 204.916 71.8671 204.916C71.8671 204.916 66.184 216.736 71.1787 225.378C76.1879 234.02 93.1345 248.33 94.0426 250.834C94.8922 248.784 96.2543 246.03 97.9387 242.881L95.3023 201.65H95.3169Z"
    fill="#9A2F22" />
  <path
    d="M54.1304 283.351C54.1304 283.351 55.6683 301.264 74.3725 309.276C76.7014 297.852 70.784 283.351 54.1304 283.351Z"
    fill="#D59739" />
  <g style="mix-blend-mode:multiply" opacity="0.5">
    <path
      d="M111.488 265.452C117.756 264.925 117.625 259.623 115.838 255.844C111.649 254.35 108.016 253.105 108.016 253.105L97.236 252.197L88.6382 255.946C91.1868 259.052 98.5249 266.243 111.488 265.452Z"
      fill="#E6E7E8" />
  </g>
  <path
    d="M108.69 242.764L109.95 255.155C109.95 255.155 118.709 262.2 107.328 261.41C95.9621 260.619 93.7943 253.676 93.7943 253.676C93.7943 253.676 94.7171 242.163 92.3296 238.092C89.9422 234.02 103.564 237.652 103.564 237.652L108.661 242.764H108.69Z"
    fill="#F9A67C" />
  <path
    d="M109.51 250.82L108.69 242.764L107.108 241.167H96.0938C96.0938 241.167 100.634 248.579 109.525 250.82H109.51Z"
    fill="#9F2C21" />
  <path
    d="M116.877 194.458C117.917 194.297 118.972 194.707 119.631 195.542C121.052 197.344 123.483 200.903 124.86 205.824C126.911 213.104 128.946 219.695 131.231 223.327C133.502 226.96 128.961 239.703 121.901 243.335C114.856 246.968 98.7004 246.514 93.9255 240.831C85.7378 226.506 85.7378 227.648 85.7378 227.648C85.7378 227.648 88.0081 223.84 86.1918 219.944C84.4049 216.106 84.3756 199.541 116.877 194.458Z"
    fill="#F9A67C" />
  <path
    d="M103.593 208.549C103.593 208.549 96.65 211.273 93.0176 216.619C90.2932 220.486 89.722 215.828 90.7473 211.844C91.7726 207.86 99.0522 201.386 103.593 208.549Z"
    fill="#B42F26" />
  <path
    d="M121.096 197.593C116.043 197.973 115.091 201.855 116.087 204.667C118.474 203.056 121.492 202.309 123.469 201.972C122.707 200.229 121.872 198.764 121.096 197.593Z"
    fill="#B42F26" />
  <path
    d="M104.501 213.88C104.501 213.88 96.3131 216.268 97.3384 224.338C103.475 219.68 108.031 218.055 108.031 218.055C108.031 218.055 106.551 214.334 104.501 213.88Z"
    fill="#FFF6EA" />
  <path
    d="M104.501 213.88C104.501 213.88 102.187 214.569 100.166 216.414C100.092 216.736 100.063 217.059 100.063 217.395C100.063 218.933 100.81 220.296 101.938 221.174C105.614 218.919 108.016 218.055 108.016 218.055C108.016 218.055 106.537 214.334 104.486 213.88H104.501Z"
    fill="#B42F26" />
  <path
    d="M117.566 221.965C117.566 221.965 119.119 222.156 120.422 222.112C121.067 222.082 121.506 222.8 121.125 223.327C120.495 224.177 119.25 225.012 117.566 225.378"
    stroke="#E3734A" stroke-width="0.776291" stroke-miterlimit="10" />
  <path
    d="M125.622 227.062C125.534 226.447 124.816 226.184 124.333 226.579C122.795 227.824 118.914 230.007 110.301 230.256C106.552 230.49 110.418 234.459 119.28 232.76C125.3 231.603 125.871 228.762 125.622 227.062Z"
    fill="#FFF6EA" />
  <path d="M97.3389 224.352C97.3389 224.352 95.8596 217.073 104.501 213.895" stroke="#9C2B28"
    stroke-width="0.776291" stroke-miterlimit="10" />
  <path
    d="M118.826 213.324C118.826 213.324 121.901 210.834 126.076 210.057C123.718 206.791 120.993 207.362 117.463 209.061C118.298 212.723 118.826 213.324 118.826 213.324Z"
    fill="#FFF6EA" />
  <path
    d="M118.914 208.402C118.87 208.636 118.84 208.871 118.84 209.12C118.84 210.394 119.368 211.537 120.232 212.357C121.521 211.566 123.601 210.511 126.061 210.043C124.04 207.245 121.74 207.26 118.914 208.402Z"
    fill="#B42F26" />
  <path d="M117.463 209.046C117.463 209.046 122.912 205.238 126.076 210.042" stroke="#9C2B28"
    stroke-width="0.776291" stroke-miterlimit="10" />
  <path
    d="M91.9399 242.775C95.0264 239.263 94.6814 233.914 91.1693 230.828C87.6572 227.741 82.308 228.086 79.2215 231.598C76.1349 235.11 76.4799 240.459 79.992 243.546C83.5041 246.632 88.8533 246.287 91.9399 242.775Z"
    fill="#F9A67C" />
  <path
    d="M82.6767 234.166C80.5675 234.166 78.6341 234.942 77.1548 236.217C77.1108 236.539 77.0962 236.861 77.0962 237.198C77.0962 241.87 80.8898 245.664 85.5622 245.664C87.6713 245.664 89.6047 244.888 91.0841 243.613C91.128 243.291 91.1427 242.969 91.1427 242.632C91.1427 237.96 87.3491 234.166 82.6767 234.166Z"
    fill="#EC8558" />
  <path
    d="M72.0283 334.557L71.5156 344.224C83.0135 345.308 113.963 347.417 139.507 341.719C139.243 338.805 138.936 335.641 138.584 332.345C125.49 333.737 97.4701 336.153 72.0429 334.572L72.0283 334.557Z"
    fill="white" />
  <path
    d="M73.1708 313.275L72.6436 322.971C84.5809 324.04 113.011 325.769 137.295 320.818C136.929 317.654 136.548 314.446 136.138 311.224C122.443 312.616 96.8111 314.622 73.1708 313.26V313.275Z"
    fill="white" />
  <path
    d="M74.3134 291.992L73.7861 301.733C85.8699 302.773 111.766 304.164 134.688 299.99C134.249 296.621 133.795 293.325 133.356 290.162C119.397 291.494 96.1082 293.15 74.3134 291.992Z"
    fill="white" />
  <path
    d="M75.456 270.696L74.9287 280.465C86.8807 281.432 110.287 282.575 131.744 279.133C131.159 275.324 130.602 271.926 130.104 269.099C116.233 270.344 95.3027 271.648 75.4706 270.681L75.456 270.696Z"
    fill="white" />
  <path
    d="M84.1275 256.298C84.1275 256.298 127.805 293.135 69.8174 328.61L70.0517 320.203C70.0517 320.203 94.0875 304.281 92.0808 286.998C90.0742 269.715 82.3406 263.343 73.9185 262.889C75.7348 257.66 84.1275 256.298 84.1275 256.298Z"
    fill="#598CAF" />
  <path
    d="M60.2671 281.769L51.8597 289.722C51.8597 289.722 38.8971 278.576 36.3924 274.489C33.8878 270.403 34.3419 262.215 34.7959 258.348C35.25 254.481 35.4843 247.436 33.4337 246.748C31.3832 246.059 27.5164 249.472 27.2967 255.609L18.1276 238.663C17.4099 237.344 15.7695 236.861 14.4512 237.579C13.2209 238.252 12.7229 239.761 13.2795 241.035L19.3287 254.686L8.10908 242.5C7.01055 241.314 5.16503 241.226 3.96398 242.295C2.86545 243.276 2.64575 244.917 3.46598 246.147L10.4672 256.737L3.96398 251.64C2.90939 250.805 1.37146 250.981 0.52193 252.035H0.536577C-0.16648 252.914 -0.181127 254.174 0.507283 255.082L3.18768 258.553C3.18768 258.553 1.37146 262.186 7.05449 267.883C12.7375 273.566 24.5577 282.662 27.9704 288.799C31.3832 294.936 49.1207 320.642 54.1153 322.004C59.1246 323.366 77.0965 299.726 77.0965 299.726C77.0965 299.726 67.3123 283.805 60.2671 281.769Z"
    fill="#F9A67C" />
  <path d="M51.8599 289.722L61.4097 299.272" stroke="#E3734A" stroke-width="0.820232"
    stroke-miterlimit="10" />
  <path
    d="M52.7679 312.235C50.2779 312.235 47.993 313.084 46.1475 314.476C49.5309 318.547 52.5043 321.565 54.1301 322.004C55.7266 322.444 58.6706 320.305 61.9223 317.2C59.9742 314.212 56.6054 312.22 52.7679 312.22V312.235Z"
    fill="#EC8558" />
  <path d="M3.1875 258.568L10.4671 265.613" stroke="#E3734A" stroke-width="0.820232"
    stroke-miterlimit="10" />
  <path d="M27.2964 255.61C27.2964 255.61 19.3431 261.527 20.925 270.169" stroke="#E3734A"
    stroke-width="0.820232" stroke-miterlimit="10" />
  <path d="M22.2879 253.573C22.2879 253.573 14.3345 255.624 10.0137 267.444" stroke="#E3734A"
    stroke-width="0.820232" stroke-miterlimit="10" />
  <path
    d="M75.9544 261.469C75.9544 261.469 59.125 276.072 54.1304 283.351C66.4046 286.984 74.1382 297.676 74.3725 309.276L87.7892 287.218C87.7892 287.218 90.7479 263.695 75.9691 261.469H75.9544Z"
    fill="white" />
  <g style="mix-blend-mode:multiply" opacity="0.5">
    <path
      d="M58.8321 277.741C56.8987 279.806 55.2289 281.754 54.1304 283.351C66.4046 286.983 74.1382 297.676 74.3725 309.276C76.4524 305.849 78.2247 302.948 79.704 300.502C75.2953 284.815 63.3287 279.279 58.8321 277.726V277.741Z"
      fill="#E6E7E8" />
  </g>
  <path d="M79.7036 300.517C79.7036 300.517 92.4026 285.343 86.5731 270.169" stroke="#D59739"
    stroke-width="1.03994" stroke-miterlimit="10" />
  <g style="mix-blend-mode:multiply" opacity="0.5">
    <path
      d="M121.77 300.4C121.77 300.4 111.854 332.579 90.264 340.723C68.6889 348.867 121.638 357.464 121.77 300.4Z"
      fill="#E6E7E8" />
  </g>
  <path
    d="M107.606 225.158C108.221 226.711 106.375 228.908 103.49 230.05C100.59 231.193 97.7481 230.871 97.1329 229.303C96.5178 227.751 98.3633 225.554 101.249 224.411C104.149 223.269 106.99 223.591 107.606 225.158Z"
    fill="#D34F4F" />
  <path
    d="M129.18 219.197C128.492 217.513 127.804 215.594 127.145 213.514C124.318 214.671 122.531 216.824 123.131 218.362C123.732 219.871 126.398 220.208 129.18 219.212V219.197Z"
    fill="#D34F4F" />
  <path d="M91.626 283.893H99.9015" stroke="#80CCEA" stroke-width="0.776291" stroke-miterlimit="10" />
  <path d="M130.646 283.893H133.81" stroke="#80CCEA" stroke-width="0.776291" stroke-miterlimit="10" />
  <path d="M90.835 296.313H98.9348" stroke="#80CCEA" stroke-width="0.776291" stroke-miterlimit="10" />
  <path d="M129.838 271.123L118.738 273.632L119.51 277.047L130.61 274.537L129.838 271.123Z"
    fill="#ED1C24" stroke="#231F20" stroke-width="0.219705" stroke-miterlimit="10" />
  <path d="M130.603 274.475L119.502 276.985L120.274 280.4L131.375 277.89L130.603 274.475Z"
    fill="white" stroke="#231F20" stroke-width="0.219705" stroke-miterlimit="10" />
  <path
    d="M118.855 256.928C118.855 256.928 133.297 283.776 134.762 300.4C135.319 278.356 128.039 260.619 128.039 260.619C128.039 260.619 125.403 256.283 118.855 256.928Z"
    fill="#598CAF" />
  <path
    d="M214.925 229.347C214.925 229.347 195.254 328.229 193.892 365.974H315.316C315.316 365.974 302.133 267.093 287.574 229.347C227.99 225.261 214.925 229.347 214.925 229.347Z"
    fill="#D3B177" />
  <path
    d="M213.006 366.311H241.641V227.868C235.518 227.868 230.67 228.014 226.862 228.234C222.937 253.764 213.811 331.173 213.006 366.311Z"
    fill="#D3B177" />
  <path
    d="M259.569 227.868L270.92 365.989H299.965C296.157 343.154 284.894 263.416 274.274 228.527C268.928 228.234 264.051 228.014 259.583 227.868H259.569Z"
    fill="#D3B177" />
  <path
    d="M321.686 142.256C321.686 142.256 317.292 153.403 289.697 160.448C295.527 146.123 318.039 141.348 321.686 142.256Z"
    fill="#598CAF" />
  <path
    d="M218.001 147.778L204.394 187.223C201.684 195.073 193.364 199.497 185.338 197.358L142.51 185.919C142.51 185.919 135.684 187.97 129.782 183.195C114.769 185.919 112.044 186.153 113.641 180.924C108.412 182.975 104.779 187.062 102.494 188.424C100.224 189.786 99.0816 182.506 105.673 176.823C112.264 171.14 130.455 164.315 142.51 164.549C154.564 164.783 182.98 170.686 182.98 170.686L192.075 142.256C192.075 142.256 209.125 141.231 218.001 147.778Z"
    fill="#F9A67C" />
  <path
    d="M227.316 94.2871C227.316 94.2871 209.359 95.6493 192.075 142.271C207.308 144.541 221.179 151.132 221.179 151.132L227.316 94.2871Z"
    fill="#D3B177" stroke="#BC9B4E" stroke-width="1.4647" stroke-miterlimit="10" />
  <path
    d="M222.16 142.095C212.713 137.95 201.025 135.899 194.902 135.035C193.965 137.32 193.013 139.708 192.075 142.256C207.308 144.526 221.179 151.118 221.179 151.118L222.16 142.095Z"
    fill="#D3B177" stroke="#BC9B4E" stroke-width="1.4647" stroke-miterlimit="10" />
  <path
    d="M241.889 96.3231L227.33 94.2725C227.33 94.2725 212.771 140.66 208.904 154.076C205.038 167.493 216.638 176.354 216.638 176.354C215.305 197.973 213.958 219.607 212.625 241.226C219.846 242.925 228.429 244.302 238.111 244.624C260.125 245.342 278.068 240.23 289.727 235.748C283.194 207.538 283.238 185.333 284.542 170.071C285.552 158.28 285.083 149.404 288.496 131.784C291.221 117.678 288.496 87.6667 288.496 87.6667C280.88 89.5562 272.751 91.3285 264.168 92.8957C256.419 94.3018 248.993 95.4297 241.889 96.3085V96.3231Z"
    fill="#D3B177" stroke="#BC9B4E" stroke-width="1.4647" stroke-miterlimit="10" />
  <path d="M113.626 180.924C113.626 180.924 116.35 177.511 125.446 175.241" stroke="#DA5C5B"
    stroke-width="0.820232" stroke-miterlimit="10" />
  <g style="mix-blend-mode:multiply" opacity="0.52">
    <path
      d="M255.233 250.849H294.253C292.1 242.603 289.859 235.235 287.588 229.347C272.692 228.322 260.696 227.809 251.088 227.619V246.704C251.088 248.989 252.948 250.849 255.233 250.849Z"
      fill="#76B8E4" />
  </g>
  <path d="M182.979 170.686L189.805 172.283" stroke="#DA5C5B" stroke-width="0.820232"
    stroke-miterlimit="10" />
  <path
    d="M187.491 197.754C194.8 198.662 201.919 194.37 204.394 187.223L205.243 184.762C204.452 184.645 203.647 184.557 202.827 184.557C195.049 184.557 188.619 190.284 187.506 197.754H187.491Z"
    fill="#EC8558" />
  <path
    d="M256.888 178.083C240.747 178.42 216.638 176.384 216.638 176.384L216.389 183.942C219.304 184.161 224.753 184.44 234.376 184.571C251.205 184.806 273.029 177.746 256.888 178.097V178.083Z"
    fill="#BC9B4E" />
  <path
    d="M249.433 167.508H256.889V244.375H249.433C247.148 244.375 245.288 242.515 245.288 240.23V171.653C245.288 169.368 247.148 167.508 249.433 167.508Z"
    fill="#F26B2D" />
  <path d="M299.862 167.508H256.888V244.375H299.862V167.508Z" fill="#E8602E" />
  <g style="mix-blend-mode:multiply">
    <path
      d="M245.288 222.742C248.964 222.961 256.64 223.738 265.647 226.403C273.63 228.776 289.361 234.415 299.877 238.253V222.2L245.303 210.145V222.742H245.288Z"
      fill="#DD502C" />
  </g>
  <path
    d="M315.169 139.766C315.169 139.766 327.546 190.108 331.164 207.377C334.796 224.66 331.383 239.586 315.169 237.022C298.955 234.459 282.111 225.29 268.46 221.658C254.809 218.025 250.546 219.314 246.064 217.82C241.582 216.326 242.432 211.419 241.582 205.868C240.733 200.317 238.17 200.742 237.95 197.768C237.73 194.795 240.938 193.565 246.914 194.282C252.89 195 255.878 195.205 255.878 195.205C255.878 195.205 253.827 192.217 253.886 189.024C253.945 185.831 255.233 185.524 258.646 188.014C262.059 190.518 263.553 193.931 267.391 195.85C271.228 197.768 271.872 202.031 275.066 203.32C278.259 204.594 305.78 207.802 305.78 207.802C305.78 207.802 293.023 156.244 291.705 153.403C290.386 150.561 302.792 140.176 315.169 139.752V139.766Z"
    fill="#F9A67C" />
  <path d="M305.78 207.802C305.78 207.802 316.238 209.574 322.375 211.61" stroke="#DA5C5B"
    stroke-width="0.820232" stroke-miterlimit="10" />
  <path
    d="M331.793 225.832C329.699 224.47 327.209 223.664 324.529 223.664C317.41 223.664 311.624 229.245 311.258 236.275C312.562 236.554 313.865 236.817 315.154 237.022C324.953 238.575 330.065 233.727 331.793 225.832Z"
    fill="#EC8558" />
  <path
    d="M284.144 75.308C289.032 67.4591 286.631 57.1344 278.782 52.2471C270.933 47.3597 260.609 49.7605 255.721 57.6093C250.834 65.4581 253.235 75.7828 261.084 80.6701C268.932 85.5575 279.257 83.1568 284.144 75.308Z"
    fill="#963025" />
  <path
    d="M268.299 71.1742C268.299 75.744 270.13 79.8745 273.103 82.9064C280.837 81.4271 286.695 74.6455 286.695 66.4725C286.695 61.9026 284.865 57.7722 281.891 54.7402C274.158 56.2196 268.299 63.0011 268.299 71.1742Z"
    fill="#B42F26" />
  <path
    d="M242.973 104.731C242.973 104.731 239.942 117.81 250.517 120.095C261.092 122.366 264.168 92.925 264.168 92.925L242.973 104.745V104.731Z"
    fill="#FFF6EA" />
  <path
    d="M242.974 104.731C242.974 104.731 239.722 115.086 231.651 115.877C223.581 116.668 230.172 98.1394 240.293 95.6348C242.563 102.68 242.988 104.716 242.988 104.716L242.974 104.731Z"
    fill="#FFF6EA" />
  <path
    d="M258.851 73.3715C268.097 73.3715 275.593 65.876 275.593 56.63C275.593 47.3839 268.097 39.8884 258.851 39.8884C249.605 39.8884 242.11 47.3839 242.11 56.63C242.11 65.876 249.605 73.3715 258.851 73.3715Z"
    fill="#FFF6EA" />
  <path
    d="M218.659 50.5365C218.659 50.5365 211.629 41.2943 216.858 25.6073C222.087 9.92037 239.37 -5.54687 266.204 1.9524C293.037 9.45167 277.599 54.8134 259.964 68.8013C246.65 62.8839 218.659 50.5219 218.659 50.5219V50.5365Z"
    fill="#B42F26" />
  <path
    d="M261.883 47.2117C261.883 47.2117 260.521 78.5856 264.153 92.925C254.369 106.107 235.269 110.428 240.278 95.6493C243.691 83.3751 242.549 64.2754 242.549 64.2754L251.41 44.8389L261.868 47.2263L261.883 47.2117Z"
    fill="#F9A67C" />
  <path
    d="M241.89 87.2277C252.802 80.0653 254.735 63.9829 254.735 63.9829L242.681 67.3371C242.798 71.5847 242.842 79.6113 241.89 87.2277Z"
    fill="#9F2C21" />
  <path
    d="M270.979 48.2225C267.45 53.1879 261.298 54.8723 257.27 51.9868C253.227 49.1014 252.817 42.7446 256.362 37.7939C259.892 32.8285 266.043 31.1441 270.071 34.0296C274.114 36.9151 274.524 43.2719 270.979 48.2225Z"
    fill="#F9A67C" />
  <path
    d="M262.367 41.426C259.584 45.3367 259.247 50.097 261.21 53.3486C264.652 53.583 268.474 51.7228 270.979 48.2075C273.762 44.2968 274.099 39.5365 272.136 36.2849C268.694 36.0505 264.871 37.9107 262.367 41.426Z"
    fill="#EC8558" />
  <path
    d="M222.995 17.1858C222.995 17.1858 215.496 31.9646 217.986 46.7434C220.491 61.5223 224.577 78.3517 229.806 81.7644C235.035 85.1772 251.865 70.6181 255.497 62.4304C257.46 58.007 256.976 46.9485 256.112 37.7209C237.496 33.444 222.981 17.1858 222.981 17.1858H222.995Z"
    fill="#F9A67C" />
  <g style="mix-blend-mode:overlay" opacity="0.49">
    <path
      d="M266.204 1.95258C250.121 -2.54405 237.481 1.20558 228.81 8.30938C236.353 16.0576 252.406 27.9949 280.382 28.9909C281.847 16.4971 278.361 5.35068 266.218 1.95258H266.204Z"
      fill="#FFF6EA" />
  </g>
  <path
    d="M229.997 49.3651C229.997 49.3651 229.982 37.4424 245.01 43.5649C238.023 48.8524 229.997 49.3651 229.997 49.3651Z"
    fill="#FFF6EA" />
  <path
    d="M231.519 44.6046C229.981 46.7577 229.981 49.3649 229.981 49.3649C229.981 49.3649 235.386 49.0133 241.186 45.9667C240.059 44.1652 238.052 42.9641 235.782 42.9641C234.141 42.9641 232.647 43.5939 231.519 44.6046Z"
    fill="#B42F26" />
  <path
    d="M229.997 49.365C229.997 49.365 229.748 37.4277 245.01 43.5648L247.998 41.7779C247.998 41.7779 230.26 35.465 230.011 49.365H229.997Z"
    fill="#B42F26" />
  <path
    d="M221.545 50.9908C221.545 50.9908 220.403 48.0028 218 46.7871C218.249 48.2958 218.528 49.819 218.821 51.357L221.56 50.9908H221.545Z"
    fill="#B42F26" />
  <path
    d="M228.458 39.1413C228.458 39.1413 232.984 31.979 243.984 35.3038C236.558 31.8911 231.71 32.0668 228.121 35.9043C228.209 38.2918 228.458 39.1413 228.458 39.1413Z"
    fill="#B42F26" />
  <path
    d="M225.221 54.2278C225.221 54.2278 224.533 60.9654 225.983 64.6272C228.707 63.265 229.132 62.8402 229.132 62.8402"
    stroke="#DA5C5B" stroke-width="0.776291" stroke-miterlimit="10" />
  <path d="M227.858 68.4646C227.858 68.4646 233.058 66.8387 237.745 60.6138" stroke="#DA5C5B"
    stroke-width="0.776291" stroke-miterlimit="10" />
  <path
    d="M248.656 51.0344C249.228 52.8506 247.133 55.1209 243.999 56.1023C240.849 57.0836 237.847 56.3952 237.276 54.579C236.704 52.7628 238.799 50.4925 241.933 49.5111C245.082 48.5298 248.085 49.2182 248.656 51.0344Z"
    fill="#D34F4F" />
  <path
    d="M267.17 52.6165C267.17 53.8468 266.174 54.8282 264.959 54.8282C263.743 54.8282 262.747 53.8322 262.747 52.6165C262.747 51.4008 263.743 50.4048 264.959 50.4048C266.174 50.4048 267.17 51.4008 267.17 52.6165Z"
    fill="#FFF6EA" />
  <path
    d="M315.169 139.766C302.792 140.191 290.386 150.576 291.704 153.417C292.202 154.501 294.356 162.615 296.831 172.268C301.137 159.027 311.947 152.07 317.483 149.287C316.077 143.501 315.154 139.766 315.154 139.766H315.169Z"
    fill="#EC8558" />
  <path
    d="M288.497 87.6814C288.497 87.6814 315.096 104.511 321.702 142.256C306.923 146.577 289.713 160.448 289.713 160.448C289.713 160.448 278.947 129.528 281.217 111.556C283.488 93.5988 288.497 87.6814 288.497 87.6814Z"
    fill="#D3B177" stroke="#BC9B4E" stroke-width="1.4647" stroke-miterlimit="10" />
  <path
    d="M320.149 135.109C311.917 137.599 298.837 143.003 287.706 154.15C288.863 158.031 289.712 160.463 289.712 160.463C289.712 160.463 306.922 146.592 321.701 142.271C321.262 139.796 320.749 137.408 320.149 135.109Z"
    fill="#D3B177" stroke="#BC9B4E" stroke-width="1.4647" stroke-miterlimit="10" />
  <path
    d="M276.208 265.628C276.208 265.628 262.337 332.14 227.316 337.603C192.295 343.067 247.895 335.216 276.208 265.628Z"
    fill="#BC9B4E" />
  <path
    d="M242.095 106.869C240.205 129.836 238.667 152.875 238.301 175.915C237.891 196.04 238.213 216.282 241.26 236.217L242.973 244.697C236.778 222.39 236.617 198.882 236.792 175.886C237.32 152.802 239.004 129.733 242.109 106.869H242.095Z"
    fill="#BC9B4E" />
  <path d="M238.99 2.43604C238.99 2.43604 254.941 17.0391 280.427 19.5291" stroke="#B42F26"
    stroke-width="0.995996" stroke-miterlimit="10" />
</svg>