<svg id="Layer_1" data-name="Layer 1" xmlns="http://www.w3.org/2000/svg" viewBox="0 0 849.59 849.59">
 <defs>
  <style>
   .cls-1,
   .cls-2 {
    fill: #fff;
   }

   .cls-2 {
    font-size: 228.54px;
    font-family: Poppins-SemiBold, Poppins;
    font-weight: 600;
    letter-spacing: 0em;
   }
  </style>
 </defs>
 <path class="cls-1" d="M251.73,261.49h-42.6L123.94,450H81l85.19-188.54H112l16-35.27h139.7Z" />
 <path class="cls-1"
  d="M750.61,364.23q-.15,3.06-.15,6.26,0,6,.69,13.74a109.93,109.93,0,0,0,2.67,16.11,71.49,71.49,0,0,0,4.88,14.35c1.93,4,4.13,6.69,6.57,8l-19.7,36.8A40.22,40.22,0,0,1,735,452.4a55.54,55.54,0,0,1-8.32-9.85,72.3,72.3,0,0,1-6.33-11.75A121.87,121.87,0,0,1,715.65,418a136.3,136.3,0,0,1-19.39,17.1,134.83,134.83,0,0,1-23.13,13.51,138.74,138.74,0,0,1-26.41,9,147,147,0,0,1-29.23,3.74h-3.82a114.9,114.9,0,0,1-25.34-2.82,105.26,105.26,0,0,1-23.74-8.4A99.73,99.73,0,0,1,544.43,437a91.37,91.37,0,0,1-15.19-16.26,71.26,71.26,0,0,1-9.54-18.09,55.49,55.49,0,0,1-3.28-18.4q0-15,5-25.42a55.06,55.06,0,0,1,12.83-17.55,64.74,64.74,0,0,1,17.7-11.38,115,115,0,0,1,19.7-6.56,151.38,151.38,0,0,1,18.62-3.21c5.86-.61,10.71-1.07,14.58-1.37l2.14-.15q9.31-.76,21.45-1.3t25.57-.76q13.44-.24,27.41-.23t26.94.15q0-8.7-6-18.09A66.61,66.61,0,0,0,686,281.11a91.94,91.94,0,0,0-24.65-13A90.54,90.54,0,0,0,630.62,263a101.57,101.57,0,0,0-18.86,1.83,100.47,100.47,0,0,0-19.69,5.95,131.85,131.85,0,0,0-20.23,10.61,143.71,143.71,0,0,0-20.31,15.8l-26.86-24.27a126.69,126.69,0,0,1,24.19-21.22A149.07,149.07,0,0,1,604,228.9a142.2,142.2,0,0,1,26.65-2.68q22.59,0,40.3,4.74A128.1,128.1,0,0,1,702,243.4a98.92,98.92,0,0,1,22.59,17.48,106.41,106.41,0,0,1,15,19.84A84.2,84.2,0,0,1,748,300.27a64.06,64.06,0,0,1,2.6,16.64c0,.1-.07.15-.23.15s-.23.05-.23.15h.46Zm-183.5,40.92A72.12,72.12,0,0,0,591.69,420a83.08,83.08,0,0,0,27.78,4.73,95.27,95.27,0,0,0,30.84-5.19,100.32,100.32,0,0,0,28-14.73,94.24,94.24,0,0,0,21.76-22.9A76.65,76.65,0,0,0,712,352q-13-.15-27.1-.15t-27.71.23q-13.59.22-25.8.68T610,354l-2.29.16a214.39,214.39,0,0,0-25.34,3.51q-9.93,2.15-15.72,5.65a19.51,19.51,0,0,0-8.09,8.62,29.89,29.89,0,0,0-2.29,12.29,21.4,21.4,0,0,0,3,10.92A49.62,49.62,0,0,0,567.11,405.15Z" />
 <text class="cls-2" transform="translate(415.15 559.08)">Fourty</text>
 <path class="cls-1" d="M313.63,413.16V263.09H371.4V226.15H274.7V450l100.76.15V413.16Z" />
 <path class="cls-1" d="M454.1,263V450h40.31V226.22H394V263Z" />
 <rect class="cls-1" x="332.45" y="310.13" width="100.46" height="45.03" />
</svg>