<svg width="153" height="154" viewBox="0 0 153 154" fill="none" xmlns="http://www.w3.org/2000/svg">
  <path
    d="M116.707 44.7591C114.07 41.4725 99.8029 48.3783 82.596 60.696C79.9093 62.6167 76.2178 62.2118 74.0112 59.7543C59.8454 43.952 47.4522 34.1653 44.1656 36.8022C40.879 39.4391 47.785 53.7065 60.1026 70.9133C62.0233 73.6001 61.6184 77.2916 59.1609 79.4981C43.3587 93.664 33.5719 106.057 36.2088 109.344C38.8457 112.63 53.1131 105.724 70.3199 93.4067C73.0067 91.486 76.6982 91.8909 78.9047 94.3484C93.0706 110.151 105.464 119.938 108.75 117.301C112.037 114.664 105.131 100.396 92.8134 83.1893C90.8926 80.5026 91.2975 76.8111 93.755 74.6046C109.557 60.4387 119.344 48.0458 116.707 44.7591Z"
    fill="#7FD3F2" />
  <path
    d="M110.278 119.207C103.99 124.251 86.7511 106.765 77.0366 95.9253C75.6802 94.4299 73.4099 94.1373 71.714 95.3414C59.8807 103.818 39.261 117.151 34.2165 110.863C29.1721 104.576 46.6581 87.3368 57.4978 77.6222C58.9932 76.2658 59.2857 73.9956 58.0816 72.2997C49.6055 60.4664 36.272 39.8467 42.5595 34.8023C48.8469 29.7578 66.0862 47.2438 75.8008 58.0835C77.1571 59.5789 79.4274 59.8713 81.1233 58.6673C92.9566 50.1912 113.576 36.8578 118.621 43.1452C123.665 49.4327 106.179 66.6719 95.3395 76.3865C93.8441 77.7428 93.5517 80.0131 94.7558 81.7091C103.232 93.5423 116.565 114.162 110.278 119.207ZM45.4645 38.8132C45.1804 40.2156 48.2364 49.9775 62.1309 69.4424C64.8065 73.1677 64.2509 78.2327 60.8313 81.2894C43.0097 97.232 37.9485 106.147 38.2276 107.959C39.63 108.243 49.3917 105.187 68.8566 91.2922C72.5819 88.6165 77.647 89.1721 80.7037 92.5917C96.6463 110.413 105.561 115.475 107.373 115.195C107.657 113.793 104.601 104.031 90.7065 84.5663C88.0308 80.8411 88.5864 75.776 92.006 72.7193C108.866 57.6268 114.308 48.7973 114.572 46.3936C112.168 46.1299 102.369 49.5293 83.9807 62.7165C80.2554 65.3922 75.1904 64.8366 72.1337 61.4171C56.191 43.5954 47.2762 38.5341 45.4645 38.8132Z"
    fill="#231F20" />
</svg>