<svg width="303" height="396" viewBox="0 0 303 396" fill="none" xmlns="http://www.w3.org/2000/svg">
  <g filter="url(#filter0_d_794_285)">
    <path
      d="M250.243 384.889L8.88916 366.615L34.4834 28.5425L275.837 46.8167C287.986 47.7511 297.071 58.3419 296.188 70.49L273.917 364.59C272.982 376.738 262.391 385.823 250.243 384.941V384.889Z"
      fill="#9D9AC9" stroke="#231F20" stroke-width="5.0877" stroke-miterlimit="10" />
    <path
      d="M241.885 372.117L0.53125 353.843L26.1255 15.771L267.531 34.0451C279.68 34.9796 288.765 45.5703 287.882 57.7185L265.611 351.818C264.676 363.967 254.085 373.052 241.937 372.169L241.885 372.117Z"
      fill="white" stroke="#231F20" stroke-width="5.0877" stroke-miterlimit="10" />
    <path
      d="M230.413 359.346L-10.9414 341.072L14.6009 3L255.955 21.2742C268.103 22.2086 277.188 32.7994 276.306 44.9475L254.034 339.047C253.1 351.196 242.509 360.281 230.361 359.398L230.413 359.346Z"
      fill="#94D9F4" stroke="#231F20" stroke-width="5.0877" stroke-miterlimit="10" />
    <path
      d="M43.6731 29.9961C43.3097 35.1357 38.845 38.9255 33.7053 38.5621C28.5657 38.1987 24.7759 33.734 25.1393 28.5944C25.5027 23.4548 29.9674 19.6649 35.1071 20.0283C40.2467 20.3918 44.0365 24.8565 43.6731 29.9961Z"
      fill="#9592C4" stroke="#231F20" stroke-width="5.0877" stroke-miterlimit="10" />
    <path
      d="M5.98263 30.7228L30.6424 32.5917C32.5632 32.7475 34.2245 31.2938 34.3803 29.373C34.536 27.4002 33.0824 25.687 31.1615 25.5832L6.50178 23.7142C4.58091 23.5585 2.91962 25.0121 2.76388 26.933C2.60813 28.9057 4.06176 30.6189 5.98263 30.7228Z"
      fill="white" stroke="#231F20" stroke-width="5.0877" stroke-miterlimit="10" />
    <path
      d="M41.2317 61.9755C40.8683 67.1151 36.4035 70.9049 31.2639 70.5415C26.1243 70.1781 22.3345 65.7134 22.6979 60.5738C23.0613 55.4342 27.526 51.6444 32.6656 52.0078C37.8053 52.3712 41.5951 56.8359 41.2317 61.9755Z"
      fill="#9592C4" stroke="#231F20" stroke-width="5.0877" stroke-miterlimit="10" />
    <path
      d="M3.59493 62.6501L28.2547 64.5191C30.1755 64.6748 31.8368 63.2212 31.9926 61.3003C32.1483 59.3276 30.6947 57.6144 28.7738 57.5105L4.11408 55.6416C2.19322 55.4858 0.531929 56.9395 0.376183 58.8603C0.220437 60.8331 1.67407 62.5463 3.59493 62.6501Z"
      fill="white" stroke="#231F20" stroke-width="5.0877" stroke-miterlimit="10" />
    <path
      d="M38.8445 93.9035C38.481 99.0431 34.0163 102.833 28.8767 102.47C23.7371 102.106 19.9473 97.6414 20.3107 92.5018C20.6741 87.3622 25.1388 83.5724 30.2784 83.9358C35.418 84.2992 39.2079 88.7639 38.8445 93.9035Z"
      fill="#9592C4" stroke="#231F20" stroke-width="5.0877" stroke-miterlimit="10" />
    <path
      d="M1.15303 94.5782L25.8128 96.4472C27.7336 96.6029 29.3949 95.1493 29.5507 93.2284C29.7064 91.2556 28.2528 89.5424 26.3319 89.4386L1.67219 87.5697C-0.248679 87.4139 -1.90997 88.8676 -2.06571 90.7884C-2.22146 92.7612 -0.767831 94.4744 1.15303 94.5782Z"
      fill="white" stroke="#231F20" stroke-width="5.0877" stroke-miterlimit="10" />
    <path
      d="M36.4031 125.831C36.0396 130.971 31.5749 134.761 26.4353 134.397C21.2957 134.034 17.5059 129.569 17.8693 124.43C18.2327 119.29 22.6974 115.5 27.837 115.864C32.9766 116.227 36.7665 120.692 36.4031 125.831Z"
      fill="#9592C4" stroke="#231F20" stroke-width="5.0877" stroke-miterlimit="10" />
    <path
      d="M-1.23466 126.506L23.4251 128.375C25.346 128.531 27.0072 127.077 27.163 125.156C27.3187 123.183 25.8651 121.47 23.9442 121.366L-0.715507 119.497C-2.63637 119.342 -4.29766 120.795 -4.45341 122.716C-4.60915 124.689 -3.15552 126.402 -1.23466 126.506Z"
      fill="white" stroke="#231F20" stroke-width="5.0877" stroke-miterlimit="10" />
    <path
      d="M34.0178 157.759C33.6544 162.898 29.1897 166.688 24.0501 166.325C18.9105 165.961 15.1206 161.497 15.484 156.357C15.8475 151.218 20.3122 147.428 25.4518 147.791C30.5914 148.155 34.3812 152.619 34.0178 157.759Z"
      fill="#9592C4" stroke="#231F20" stroke-width="5.0877" stroke-miterlimit="10" />
    <path
      d="M-3.67363 158.434L20.9861 160.303C22.907 160.458 24.5683 159.005 24.724 157.084C24.8798 155.111 23.4261 153.398 21.5053 153.294L-3.15447 151.425C-5.07534 151.269 -6.73663 152.723 -6.89237 154.644C-7.04812 156.617 -5.59449 158.33 -3.67363 158.434Z"
      fill="white" stroke="#231F20" stroke-width="5.0877" stroke-miterlimit="10" />
    <path
      d="M31.5764 189.688C31.213 194.827 26.7483 198.617 21.6087 198.254C16.4691 197.89 12.6792 193.425 13.0426 188.286C13.4061 183.146 17.8708 179.356 23.0104 179.72C28.15 180.083 31.9398 184.548 31.5764 189.688Z"
      fill="#9592C4" stroke="#231F20" stroke-width="5.0877" stroke-miterlimit="10" />
    <path
      d="M-6.11405 190.362L18.5457 192.231C20.4666 192.387 22.1278 190.933 22.2836 189.012C22.4393 187.04 20.9857 185.327 19.0648 185.223L-5.5949 183.354C-7.51577 183.198 -9.17706 184.652 -9.3328 186.572C-9.48855 188.545 -8.03492 190.258 -6.11405 190.362Z"
      fill="white" stroke="#231F20" stroke-width="5.0877" stroke-miterlimit="10" />
    <path
      d="M29.135 221.667C28.7716 226.806 24.3069 230.596 19.1673 230.233C14.0276 229.869 10.2378 225.405 10.6012 220.265C10.9646 215.126 15.4294 211.336 20.569 211.699C25.7086 212.063 29.4984 216.527 29.135 221.667Z"
      fill="#9592C4" stroke="#231F20" stroke-width="5.0877" stroke-miterlimit="10" />
    <path
      d="M-8.50224 222.341L16.1575 224.21C18.0784 224.366 19.7397 222.912 19.8954 220.992C20.0512 219.019 18.5975 217.306 16.6767 217.202L-7.98309 215.333C-9.90395 215.177 -11.5652 216.631 -11.721 218.552C-11.8767 220.524 -10.4231 222.238 -8.50224 222.341Z"
      fill="white" stroke="#231F20" stroke-width="5.0877" stroke-miterlimit="10" />
    <path
      d="M26.7502 253.596C26.3868 258.735 21.9221 262.525 16.7825 262.162C11.6429 261.798 7.85306 257.334 8.21647 252.194C8.57988 247.054 13.0446 243.265 18.1842 243.628C23.3238 243.991 27.1136 248.456 26.7502 253.596Z"
      fill="#9592C4" stroke="#231F20" stroke-width="5.0877" stroke-miterlimit="10" />
    <path
      d="M-10.9407 254.27L13.719 256.139C15.6399 256.295 17.3012 254.841 17.4569 252.921C17.6127 250.948 16.159 249.235 14.2382 249.131L-10.4216 247.262C-12.3424 247.106 -14.0037 248.56 -14.1595 250.481C-14.3152 252.453 -12.8616 254.167 -10.9407 254.27Z"
      fill="white" stroke="#231F20" stroke-width="5.0877" stroke-miterlimit="10" />
    <path
      d="M24.3088 285.523C23.9454 290.662 19.4807 294.452 14.3411 294.089C9.20147 293.725 5.41166 289.261 5.77507 284.121C6.13847 278.982 10.6032 275.192 15.7428 275.555C20.8824 275.919 24.6722 280.383 24.3088 285.523Z"
      fill="#9592C4" stroke="#231F20" stroke-width="5.0877" stroke-miterlimit="10" />
    <path
      d="M-13.3289 286.197L11.3308 288.066C13.2517 288.222 14.913 286.768 15.0687 284.848C15.2245 282.875 13.7709 281.162 11.85 281.058L-12.8097 279.189C-14.7306 279.033 -16.3919 280.487 -16.5476 282.408C-16.7034 284.38 -15.2498 286.094 -13.3289 286.197Z"
      fill="white" stroke="#231F20" stroke-width="5.0877" stroke-miterlimit="10" />
    <path
      d="M21.9211 317.45C21.5577 322.59 17.093 326.38 11.9534 326.016C6.81377 325.653 3.02396 321.188 3.38737 316.049C3.75078 310.909 8.21549 307.119 13.3551 307.483C18.4947 307.846 22.2845 312.311 21.9211 317.45Z"
      fill="#9592C4" stroke="#231F20" stroke-width="5.0877" stroke-miterlimit="10" />
    <path
      d="M-15.7698 318.125L8.88993 319.994C10.8108 320.15 12.4721 318.696 12.6278 316.775C12.7836 314.802 11.3299 313.089 9.40909 312.985L-15.2507 311.116C-17.1715 310.96 -18.8328 312.414 -18.9886 314.335C-19.1443 316.308 -17.6907 318.021 -15.7698 318.125Z"
      fill="white" stroke="#231F20" stroke-width="5.0877" stroke-miterlimit="10" />
    <path opacity="0.21"
      d="M56.593 27.4667L34.1953 321.91L227.333 336.602L249.731 42.1583L56.593 27.4667Z"
      fill="white" stroke="#231F20" stroke-width="5.0877" stroke-miterlimit="10" />
    <path
      d="M80.6358 87.5651L80.6555 87.3063C81.1989 80.1626 87.4416 74.7541 94.637 75.3015L205.882 83.7636C213.025 84.307 218.382 90.5458 217.839 97.6895L217.819 97.9483C217.275 105.092 211.033 110.5 203.837 109.953L92.5928 101.491C85.4491 100.948 80.0924 94.7088 80.6358 87.5651Z"
      fill="#9592C4" stroke="#231F20" stroke-width="5.0877" stroke-miterlimit="10" />
    <path
      d="M214.942 136.422C214.683 140.004 211.568 142.704 207.986 142.392L83.7525 132.944C80.1704 132.684 77.4708 129.569 77.7823 125.987C78.0419 122.405 81.1568 119.705 84.7389 120.017L208.972 129.465C212.554 129.725 215.254 132.84 214.942 136.422Z"
      fill="#9592C4" stroke="#231F20" stroke-width="5.0877" stroke-miterlimit="10" />
    <path
      d="M249.725 42.1443C245.675 140.524 238.199 238.747 227.349 336.608C231.399 238.228 238.874 140.005 249.725 42.1443Z"
      fill="#231F20" />
  </g>
  <defs>
    <filter id="filter0_d_794_285" x="-25.5439" y="0.271317" width="328.335" height="395.273"
      filterUnits="userSpaceOnUse" color-interpolation-filters="sRGB">
      <feFlood flood-opacity="0" result="BackgroundImageFix" />
      <feColorMatrix in="SourceAlpha" type="matrix"
        values="0 0 0 0 0 0 0 0 0 0 0 0 0 0 0 0 0 0 127 0" result="hardAlpha" />
      <feOffset dy="4" />
      <feGaussianBlur stdDeviation="2" />
      <feComposite in2="hardAlpha" operator="out" />
      <feColorMatrix type="matrix" values="0 0 0 0 0 0 0 0 0 0 0 0 0 0 0 0 0 0 0.25 0" />
      <feBlend mode="normal" in2="BackgroundImageFix" result="effect1_dropShadow_794_285" />
      <feBlend mode="normal" in="SourceGraphic" in2="effect1_dropShadow_794_285" result="shape" />
    </filter>
  </defs>
</svg>