<svg width="227" height="274" viewBox="0 0 227 274" fill="none" xmlns="http://www.w3.org/2000/svg">
  <path
    d="M113.095 244.154C113.095 244.154 85.1332 253.723 54.3517 249.731C54.3517 249.731 47.2496 257.41 42.0155 261.999C76.1271 275.155 114.06 273.621 146.74 258.48C147.906 254.83 148.558 252.117 148.558 252.117C148.558 252.117 124.419 249.1 113.142 244.154L113.095 244.154Z"
    fill="#F2F5F9" />
  <path
    d="M151.362 250.103L150.804 252.583C150.804 252.583 150.152 255.437 148.939 259.18L148.613 260.116L147.724 260.537C114.296 276.006 75.4746 277.308 41.2226 264.105L37.6663 262.752L40.5639 260.27C45.6579 255.821 52.6665 248.237 52.7132 248.19L53.5075 247.301L54.677 247.44C84.5697 251.292 112.111 242.05 112.391 241.956L113.233 241.675L114.028 242.048C124.885 246.808 148.602 249.778 148.836 249.825L151.362 250.15L151.362 250.103ZM144.867 256.798C145.194 255.769 145.473 254.786 145.707 253.991C139.298 253.109 122.596 250.459 113.051 246.54C108.094 248.088 83.1705 255.41 55.2897 252.07C53.701 253.755 50.0097 257.641 46.4115 261.059C78.3228 272.3 113.917 270.768 144.914 256.751L144.867 256.798Z"
    fill="#231F20" />
  <path
    d="M103.977 105.992C102.679 118.014 91.1205 159.842 91.1205 159.842C104.185 174.282 131.202 202.507 131.202 202.507C131.202 202.507 158.835 192.002 179.736 184.685C194.025 160.582 192.262 128.075 192.262 128.075C187.019 123.964 155.457 87.6051 155.457 87.6051C155.457 87.6051 113.091 99.2941 104.023 105.945L103.977 105.992Z"
    fill="white" />
  <path
    d="M194.604 131.862C194.614 141.31 193.422 166.102 181.701 185.899L181.281 186.601L180.486 186.883C159.866 194.107 132.279 204.565 131.999 204.659L130.596 205.221L129.566 204.1C129.285 203.819 102.362 175.735 89.4379 161.388L88.595 160.453L88.9212 159.237C89.0143 158.816 100.433 117.456 101.684 105.761L101.777 104.779L102.571 104.17C111.873 97.3314 153.023 85.9242 154.753 85.4547L156.156 85.0791L157.092 86.154C165.849 96.2018 189.45 123.074 193.616 126.297L194.459 126.951L194.46 127.98C194.507 128.26 194.602 129.617 194.604 131.815L194.604 131.862ZM178.144 182.863C190.144 161.989 190.117 134.673 189.971 129.247C183.463 123.36 159.815 96.2078 154.617 90.3194C147.51 92.3378 115.151 101.631 106.129 107.394C104.504 119.463 95.5564 152.448 93.6923 159.326C105.352 172.177 126.844 194.654 131.807 199.888C137.652 197.684 160.282 189.148 178.19 182.909L178.144 182.863Z"
    fill="#231F20" />
  <path
    d="M-1.53923 113.3C2.76499 114.278 6.69492 115.163 9.68922 115.908C10.7185 116.188 11.6075 116.421 12.4029 116.654C12.6368 116.654 12.8239 116.747 13.0111 116.794C13.245 116.794 13.3854 116.887 13.5726 116.98C15.0697 117.353 15.9119 117.586 15.9119 117.586C15.9119 117.586 16.2403 118.568 16.8968 120.251C18.3042 124.413 21.3999 133.016 24.7763 141.713C25.1514 142.648 25.5265 143.536 25.8549 144.471C26.23 145.407 26.6051 146.295 26.9801 147.183C27.5428 148.586 28.1523 150.035 28.715 151.391C30.1217 154.945 31.5749 158.124 32.8404 160.695C33.2154 161.49 33.5902 162.144 33.9651 162.799C34.2932 163.453 34.6679 164.061 34.9958 164.529C35.3706 165.136 35.7453 165.65 36.0731 165.977C36.2604 166.211 36.4009 166.351 36.5881 166.491C36.5881 166.491 36.2147 167.287 35.608 168.597C34.5811 170.75 32.9944 174.4 31.1745 178.799C30.8012 179.688 30.3812 180.577 30.0079 181.513C29.6813 182.355 29.3079 183.15 28.9346 184.04C27.6747 187.081 26.3683 190.357 25.1554 193.585C24.7355 194.661 24.3623 195.644 23.9891 196.72C23.4759 198.03 23.0095 199.341 22.6366 200.604C21.284 204.534 20.1183 208.231 19.3265 211.552C19.0934 212.395 18.9071 213.143 18.7676 213.938C18.2998 213.939 17.5047 213.94 16.4754 213.707C12.5926 213.149 5.34076 211.379 -1.39652 209.609L-1.49255 113.207L-1.53923 113.3Z"
    fill="white" />
  <path
    d="M33.782 166.914C33.1287 168.365 31.9619 170.985 30.5152 174.308C30.3285 174.729 30.1418 175.15 29.9552 175.618C28.1352 179.829 25.9888 185.024 23.8893 190.405C23.3761 191.715 22.9096 192.978 22.4431 194.288C22.2099 194.944 21.9766 195.552 21.7434 196.16C21.2302 197.517 20.7638 198.874 20.3442 200.184C19.6911 201.962 19.1316 203.74 18.6655 205.425C18.2924 206.547 17.9661 207.624 17.6866 208.746C17.4069 209.776 17.174 210.712 16.9411 211.647C17.7831 211.787 18.2509 211.833 18.4847 211.786L19.2798 211.692C20.0717 208.37 21.1906 204.674 22.5899 200.743C23.0096 199.433 23.476 198.17 23.9425 196.86C24.3156 195.783 24.6888 194.801 25.1087 193.724C26.3216 190.449 27.628 187.174 28.8879 184.179C29.2612 183.29 29.6346 182.494 29.9612 181.652C30.3345 180.716 30.7546 179.827 31.1279 178.938C32.9477 174.539 34.5812 170.889 35.5613 168.737L35.14 168.41C34.8591 168.176 34.5314 167.849 34.1567 167.382C34.063 167.241 33.9693 167.101 33.8289 166.961C33.6884 166.774 33.5479 166.587 33.4073 166.353C33.5011 166.587 33.6416 166.774 33.7821 166.961L33.782 166.914ZM33.782 166.914C33.782 166.914 33.5478 166.54 33.4072 166.306C33.501 166.54 33.6415 166.727 33.782 166.914ZM33.782 166.914C33.1287 168.365 31.9619 170.985 30.5152 174.308C30.3285 174.729 30.1418 175.15 29.9552 175.618C28.1352 179.829 25.9888 185.024 23.8893 190.405C23.3761 191.715 22.9096 192.978 22.4431 194.288C22.2099 194.944 21.9766 195.552 21.7434 196.16C21.2302 197.517 20.7638 198.874 20.3442 200.184C19.6911 201.962 19.1316 203.74 18.6655 205.425C18.2924 206.547 17.9661 207.624 17.6866 208.746C17.4069 209.776 17.174 210.712 16.9411 211.647C17.7831 211.787 18.2509 211.833 18.4847 211.786L19.2798 211.692C20.0717 208.37 21.1906 204.674 22.5899 200.743C23.0096 199.433 23.476 198.17 23.9425 196.86C24.3156 195.783 24.6888 194.801 25.1087 193.724C26.3216 190.449 27.628 187.174 28.8879 184.179C29.2612 183.29 29.6346 182.494 29.9612 181.652C30.3345 180.716 30.7546 179.827 31.1279 178.938C32.9477 174.539 34.5812 170.889 35.5613 168.737L35.14 168.41C34.8591 168.176 34.5314 167.849 34.1567 167.382C34.063 167.241 33.9693 167.101 33.8289 166.961C33.6884 166.774 33.5479 166.587 33.4073 166.353C33.5011 166.587 33.6416 166.774 33.7821 166.961L33.782 166.914ZM33.782 166.914C33.1287 168.365 31.9619 170.985 30.5152 174.308C30.3285 174.729 30.1418 175.15 29.9552 175.618C28.1352 179.829 25.9888 185.024 23.8893 190.405C23.3761 191.715 22.9096 192.978 22.4431 194.288C22.2099 194.944 21.9766 195.552 21.7434 196.16C21.2302 197.517 20.7638 198.874 20.3442 200.184C19.6911 201.962 19.1316 203.74 18.6655 205.425C18.2924 206.547 17.9661 207.624 17.6866 208.746C17.4069 209.776 17.174 210.712 16.9411 211.647C17.7831 211.787 18.2509 211.833 18.4847 211.786L19.2798 211.692C20.0717 208.37 21.1906 204.674 22.5899 200.743C23.0096 199.433 23.476 198.17 23.9425 196.86C24.3156 195.783 24.6888 194.801 25.1087 193.724C26.3216 190.449 27.628 187.174 28.8879 184.179C29.2612 183.29 29.6346 182.494 29.9612 181.652C30.3345 180.716 30.7546 179.827 31.1279 178.938C32.9477 174.539 34.5812 170.889 35.5613 168.737L35.14 168.41C34.8591 168.176 34.5314 167.849 34.1567 167.382C34.063 167.241 33.9693 167.101 33.8289 166.961C33.6884 166.774 33.5479 166.587 33.4073 166.353C33.5011 166.587 33.6416 166.774 33.7821 166.961L33.782 166.914ZM33.782 166.914C33.1287 168.365 31.9619 170.985 30.5152 174.308C30.3285 174.729 30.1418 175.15 29.9552 175.618C28.1352 179.829 25.9888 185.024 23.8893 190.405C23.3761 191.715 22.9096 192.978 22.4431 194.288C22.2099 194.944 21.9766 195.552 21.7434 196.16C21.2302 197.517 20.7638 198.874 20.3442 200.184C19.6911 201.962 19.1316 203.74 18.6655 205.425C18.2924 206.547 17.9661 207.624 17.6866 208.746C17.4069 209.776 17.174 210.712 16.9411 211.647C17.7831 211.787 18.2509 211.833 18.4847 211.786L19.2798 211.692C20.0717 208.37 21.1906 204.674 22.5899 200.743C23.0096 199.433 23.476 198.17 23.9425 196.86C24.3156 195.783 24.6888 194.801 25.1087 193.724C26.3216 190.449 27.628 187.174 28.8879 184.179C29.2612 183.29 29.6346 182.494 29.9612 181.652C30.3345 180.716 30.7546 179.827 31.1279 178.938C32.9477 174.539 34.5812 170.889 35.5613 168.737L35.14 168.41C34.8591 168.176 34.5314 167.849 34.1567 167.382C34.063 167.241 33.9693 167.101 33.8289 166.961C33.6884 166.774 33.5479 166.587 33.4073 166.353C33.5011 166.587 33.6416 166.774 33.7821 166.961L33.782 166.914ZM30.5152 174.308C30.3285 174.729 30.1418 175.15 29.9552 175.618C28.1352 179.829 25.9888 185.024 23.8893 190.405C23.3761 191.715 22.9096 192.978 22.4431 194.288C22.2099 194.944 21.9766 195.552 21.7434 196.16C21.2302 197.517 20.7638 198.874 20.3442 200.184C19.6911 201.962 19.1316 203.74 18.6655 205.425C18.2924 206.547 17.9661 207.624 17.6866 208.746C17.4069 209.776 17.174 210.712 16.9411 211.647C17.7831 211.787 18.2509 211.833 18.4847 211.786L19.2798 211.692C20.0717 208.37 21.1906 204.674 22.5899 200.743C23.0096 199.433 23.476 198.17 23.9425 196.86C24.3156 195.783 24.6888 194.801 25.1087 193.724C26.3216 190.449 27.628 187.174 28.8879 184.179C29.2612 183.29 29.6346 182.494 29.9612 181.652C30.3345 180.716 30.7546 179.827 31.1279 178.938C32.9477 174.539 34.5812 170.889 35.5613 168.737L35.14 168.41C34.8591 168.176 34.5314 167.849 34.1567 167.382C34.063 167.241 33.9693 167.101 33.8289 166.961C33.6884 166.774 33.5479 166.587 33.4073 166.353C33.5011 166.587 33.6416 166.774 33.7821 166.961C33.1287 168.412 31.962 171.032 30.5153 174.355L30.5152 174.308ZM-1.44086 212.087C0.103117 212.506 1.55349 212.879 2.81677 213.252C2.91032 213.252 3.00387 213.251 3.09742 213.251C4.64139 213.671 6.04496 213.997 7.26141 214.323C7.96322 214.509 8.57142 214.649 9.17963 214.789C10.1153 215.022 10.8639 215.161 11.6124 215.348C12.6885 215.581 13.5774 215.767 14.3727 215.906C14.513 215.906 14.7002 215.999 14.8405 215.999C16.1505 216.279 17.0861 216.371 17.6942 216.417C18.4426 216.417 18.77 216.416 19.0039 216.416L20.6408 216.227L20.6407 216.134L20.9666 214.59C21.0598 214.216 21.1529 213.841 21.2461 213.42C21.3857 212.765 21.5254 212.11 21.7119 211.455C21.9914 210.333 22.3177 209.21 22.6907 207.993C22.9236 207.104 23.2034 206.215 23.5299 205.279C23.763 204.484 24.0428 203.688 24.3226 202.846C26.8875 195.126 30.3404 186.656 33.187 180.012C33.4203 179.45 33.6537 178.888 33.8871 178.421C35.7069 174.069 37.2938 170.606 38.0405 168.874C38.3671 168.079 38.6006 167.658 38.6005 167.611L39.1139 166.488L39.394 165.926L37.9897 164.805C37.9897 164.805 37.6619 164.478 37.4746 164.244C37.3809 164.104 37.2404 163.964 37.1467 163.777C36.8656 163.309 36.4908 162.748 36.116 162.094C35.9285 161.767 35.7411 161.44 35.5537 161.066C35.3662 160.738 35.2256 160.411 35.0381 160.037C34.71 159.382 34.4288 158.775 34.0539 158.073C33.0227 155.876 31.8507 153.211 30.6315 150.219C30.3972 149.704 30.1627 149.143 29.9752 148.676C29.3188 147.18 28.6624 145.543 28.0058 143.86C27.115 141.709 26.2708 139.418 25.3329 137.034C23.41 131.89 21.3933 126.467 19.4702 121.043C19.0949 119.967 18.7197 118.939 18.3912 117.91C18.2974 117.583 18.1567 117.255 18.0628 116.928L17.6875 115.759L17.1728 115.619L16.5178 115.433C16.5178 115.433 15.9095 115.246 14.8802 114.967C14.4592 114.873 14.038 114.734 13.5702 114.64C12.9152 114.454 12.2602 114.268 11.4648 114.081C11.0905 113.941 10.6694 113.848 10.2016 113.755C9.3594 113.522 8.42368 113.289 7.44119 113.056C6.73938 112.87 6.0844 112.73 5.28905 112.544C4.58725 112.357 3.88545 112.171 3.13692 112.031C2.34157 111.845 1.59299 111.659 0.797641 111.473L-0.9802 111.053L-1.49481 110.96L-1.39408 212.086L-1.44086 212.087ZM6.78882 209.459C5.89992 209.273 5.01098 209.04 3.98166 208.76C2.99917 208.527 1.96985 208.248 0.84694 207.921L0.755525 116.15C1.03617 116.15 1.27018 116.29 1.5041 116.336C7.39898 117.64 12.0309 118.898 14.0895 119.458C14.1833 119.692 14.2771 119.972 14.371 120.299C14.7462 121.328 15.1684 122.497 15.6843 123.9C16.0595 124.882 16.4347 125.957 16.81 127.079C17.6542 129.324 18.5454 131.802 19.5303 134.42C19.9523 135.495 20.3743 136.571 20.7964 137.693C21.2655 139.002 21.7345 140.265 22.2503 141.574C22.5786 142.462 22.9069 143.304 23.2819 144.192C23.6103 145.081 23.9385 145.875 24.3136 146.764C24.8294 148.073 25.3451 149.335 25.8142 150.598C26.7049 152.655 27.502 154.619 28.3459 156.536C28.9084 157.751 29.424 158.873 29.8928 159.949C31.2052 162.66 32.3768 164.857 33.4542 166.447C33.5479 166.68 33.6885 166.867 33.829 167.054C33.1756 168.505 32.0088 171.126 30.5621 174.448C30.3754 174.869 30.1888 175.29 30.0021 175.758C28.1821 179.97 26.0357 185.164 23.9362 190.545C23.423 191.855 22.9565 193.119 22.4901 194.429C22.2568 195.084 22.0236 195.692 21.7903 196.3C21.2771 197.657 20.8107 199.014 20.3911 200.324C19.738 202.102 19.1785 203.88 18.7124 205.565C18.3393 206.688 18.013 207.764 17.7335 208.887C17.4538 209.916 17.2209 210.852 16.988 211.788C15.257 211.509 12.0757 210.857 6.83574 209.599L6.78882 209.459ZM33.782 166.914C33.1287 168.365 31.9619 170.985 30.5152 174.308C30.3285 174.729 30.1418 175.15 29.9552 175.618C28.1352 179.829 25.9888 185.024 23.8893 190.405C23.3761 191.715 22.9096 192.978 22.4431 194.288C22.2099 194.944 21.9766 195.552 21.7434 196.16C21.2302 197.517 20.7638 198.874 20.3442 200.184C19.6911 201.962 19.1316 203.74 18.6655 205.425C18.2924 206.547 17.9661 207.624 17.6866 208.746C17.4069 209.776 17.174 210.712 16.9411 211.647C17.7831 211.787 18.2509 211.833 18.4847 211.786L19.2798 211.692C20.0717 208.37 21.1906 204.674 22.5899 200.743C23.0096 199.433 23.476 198.17 23.9425 196.86C24.3156 195.783 24.6888 194.801 25.1087 193.724C26.3216 190.449 27.628 187.174 28.8879 184.179C29.2612 183.29 29.6346 182.494 29.9612 181.652C30.3345 180.716 30.7546 179.827 31.1279 178.938C32.9477 174.539 34.5812 170.889 35.5613 168.737L35.14 168.41C34.8591 168.176 34.5314 167.849 34.1567 167.382C34.063 167.241 33.9226 167.101 33.8289 166.961C33.6884 166.774 33.5479 166.587 33.4073 166.353C33.5011 166.587 33.6416 166.774 33.7821 166.961L33.782 166.914ZM33.782 166.914C33.1287 168.365 31.9619 170.985 30.5152 174.308C30.3285 174.729 30.1418 175.15 29.9552 175.618C28.1352 179.829 25.9888 185.024 23.8893 190.405C23.3761 191.715 22.9096 192.978 22.4431 194.288C22.2099 194.944 21.9766 195.552 21.7434 196.16C21.2302 197.517 20.7638 198.874 20.3442 200.184C19.6911 201.962 19.1316 203.74 18.6655 205.425C18.2924 206.547 17.9661 207.624 17.6866 208.746C17.4069 209.776 17.174 210.712 16.9411 211.647C17.7831 211.787 18.2509 211.833 18.4847 211.786L19.2798 211.692C20.0717 208.37 21.1906 204.674 22.5899 200.743C23.0096 199.433 23.476 198.17 23.9425 196.86C24.3156 195.783 24.6888 194.801 25.1087 193.724C26.3216 190.449 27.628 187.174 28.8879 184.179C29.2612 183.29 29.6346 182.494 29.9612 181.652C30.3345 180.716 30.7546 179.827 31.1279 178.938C32.9477 174.539 34.5812 170.889 35.5613 168.737L35.14 168.41C34.8591 168.176 34.5314 167.849 34.1567 167.382C34.063 167.241 33.9693 167.101 33.8289 166.961C33.6884 166.774 33.5479 166.587 33.4073 166.353C33.5011 166.587 33.6416 166.774 33.7821 166.961L33.782 166.914ZM33.782 166.914C33.1287 168.365 31.9619 170.985 30.5152 174.308C30.3285 174.729 30.1418 175.15 29.9552 175.618C28.1352 179.829 25.9888 185.024 23.8893 190.405C23.3761 191.715 22.9096 192.978 22.4431 194.288C22.2099 194.944 21.9766 195.552 21.7434 196.16C21.2302 197.517 20.7638 198.874 20.3442 200.184C19.6911 201.962 19.1316 203.74 18.6655 205.425C18.2924 206.547 17.9661 207.624 17.6866 208.746C17.4069 209.776 17.174 210.712 16.9411 211.647C17.7831 211.787 18.2509 211.833 18.4847 211.786L19.2798 211.692C20.0717 208.37 21.1906 204.674 22.5899 200.743C23.0096 199.433 23.476 198.17 23.9425 196.86C24.3156 195.783 24.6888 194.801 25.1087 193.724C26.3216 190.449 27.628 187.174 28.8879 184.179C29.2612 183.29 29.6346 182.494 29.9612 181.652C30.3345 180.716 30.7546 179.827 31.1279 178.938C32.9477 174.539 34.5812 170.889 35.5613 168.737L35.14 168.41C34.8591 168.176 34.5314 167.849 34.1567 167.382C34.063 167.241 33.9693 167.101 33.8289 166.961C33.6884 166.774 33.5479 166.587 33.4073 166.353C33.5011 166.587 33.6416 166.774 33.7821 166.961L33.782 166.914ZM33.782 166.914C33.782 166.914 33.5478 166.54 33.4072 166.306C33.501 166.54 33.6415 166.727 33.782 166.914ZM33.782 166.914C33.782 166.914 33.5478 166.54 33.4072 166.306C33.501 166.54 33.6415 166.727 33.782 166.914Z"
    fill="#231F20" />
  <path
    d="M148.559 252.071C148.559 252.071 147.906 254.831 146.741 258.434C165.395 249.809 182.361 236.742 195.955 219.422C198.478 216.192 200.767 212.915 202.962 209.545C196.51 212.919 189.918 215.873 189.918 215.873C189.918 215.873 161.93 246.21 148.559 252.024L148.559 252.071Z"
    fill="#6162A8" />
  <path
    d="M209.597 203.551L204.88 210.853C202.498 214.504 200.163 217.827 197.78 220.87C184.326 238.049 167.501 251.397 147.771 260.537L143.002 262.74L144.635 257.734C145.754 254.225 146.359 251.605 146.406 251.558L146.685 250.435L147.761 249.966C160.525 244.434 188.045 214.658 188.325 214.377L189.073 213.815C189.073 213.815 195.665 210.815 201.977 207.535L209.691 203.504L209.597 203.551ZM150.384 254.173C167.495 245.456 182.17 233.327 194.082 218.067C194.69 217.271 195.297 216.475 195.904 215.679C193.707 216.757 191.977 217.554 191.229 217.883C188.005 221.347 163.755 247.191 150.477 253.752C150.478 253.893 150.384 254.033 150.384 254.173Z"
    fill="#231F20" />
  <path
    d="M103.976 105.993C113.09 99.3415 155.409 87.6525 155.409 87.6525C154.985 84.1448 158.033 45.0852 158.033 45.0852C158.033 45.0852 130.509 24.7657 107.678 19.2223C95.1876 17.5976 58.6269 34.5196 58.6269 34.5196C56.6788 50.9862 58.0627 78.5817 58.0627 78.5817C66.7189 81.4731 103.976 106.039 103.976 106.039L103.976 105.993Z"
    fill="#9F9CCA" />
  <path
    d="M160.418 44.0064L160.326 45.2694C159.171 60.2852 157.418 85.0773 157.701 87.369L157.937 89.3333L156.02 89.8497C155.599 89.9437 113.981 101.492 105.334 107.862L104.026 108.798L102.715 107.911C89.8904 99.4576 63.961 82.9252 57.3168 80.6867L55.8195 80.1737L55.7244 78.6302C55.6765 77.5077 54.3401 50.7073 56.2882 34.194L56.4272 32.9309L57.596 32.3685C59.0921 31.6654 94.9049 15.1651 107.91 16.8828C131.209 22.5193 158.218 42.3247 159.341 43.2123L160.371 43.9597L160.418 44.0064ZM153.116 85.9235C153.202 78.2992 155.049 53.9747 155.649 46.2096C150.5 42.5195 126.816 26.2189 107.119 21.4675C97.9971 20.2604 71.6271 31.1383 60.7804 36.0604C59.3443 50.0474 60.067 71.2355 60.3066 76.9418C70.0866 81.1417 97.6547 99.1224 104.02 103.279C114.211 97.1414 145.354 88.1297 153.116 85.9235Z"
    fill="#231F20" />
  <path
    d="M37.6223 30.4711C38.511 30.4702 39.3063 30.5629 40.1951 30.6088C42.0194 30.7006 43.9373 30.8858 45.7617 31.1178C47.0248 31.2569 48.1943 31.4428 49.4107 31.6755C50.627 31.9081 51.7499 32.1409 52.826 32.4205C53.3874 32.5602 53.9488 32.7 54.4167 32.8866C54.9782 33.0264 55.4929 33.213 55.914 33.3996C56.1011 33.3995 56.2883 33.4928 56.4287 33.5862C56.5223 33.6329 56.5691 33.6329 56.6159 33.6796C56.9903 33.8196 57.3178 33.9595 57.6922 34.1463C58.0198 34.2863 58.3473 34.4263 58.6749 34.613C58.5822 35.4083 58.4894 36.2036 58.4435 37.0456C58.258 38.6828 58.1195 40.4604 58.0277 42.2379C57.9354 43.5477 57.8433 44.9042 57.7978 46.214C57.7982 46.6349 57.7987 47.1027 57.7991 47.5237C57.3895 58.937 57.8225 71.0512 58.0147 76.1026C58.0162 77.6462 58.1107 78.5815 58.1107 78.5815C58.1107 78.5815 57.3161 79.1904 56.0075 80.2675C55.3532 80.7827 54.5586 81.3916 53.6706 82.0941C53.25 82.4219 52.7826 82.7965 52.3153 83.218C49.8381 85.1382 46.8003 87.6203 43.4353 90.4301C42.7343 90.9921 42.08 91.6008 41.3789 92.116C41.379 92.1628 41.2387 92.2565 41.1453 92.3501C39.7432 93.5677 38.2945 94.7852 36.799 96.0964C33.9015 98.6251 30.9574 101.294 28.2002 103.87C27.7329 104.291 27.2656 104.712 26.8919 105.181C26.6114 105.415 26.3778 105.649 26.1909 105.836C25.9105 106.117 25.6301 106.351 25.4432 106.585C25.0227 107.007 24.6021 107.428 24.1816 107.849C23.8078 108.224 23.4807 108.552 23.1069 108.926C20.7238 111.408 18.7148 113.655 17.2667 115.621C16.753 116.37 16.3326 116.978 15.959 117.633C15.959 117.633 15.1169 117.4 13.6665 117.028C13.6665 117.028 13.2922 116.888 13.0582 116.841C12.8711 116.841 12.684 116.748 12.45 116.701C11.6546 116.468 10.7657 116.235 9.73638 115.956C6.74207 115.21 2.85892 114.325 -1.49208 113.348L-1.55605 49.1263C6.38865 42.149 14.5685 36.4344 19.1959 33.2024L19.3362 33.2022C21.7668 31.5159 23.2627 30.579 23.2627 30.579C23.2627 30.579 24.432 30.4842 26.3029 30.4356C28.9689 30.3394 33.085 30.2417 37.7158 30.4242L37.6223 30.4711Z"
    fill="#7170B0" />
  <path
    d="M57.5541 36.4852C57.1329 36.2517 56.665 36.0183 56.2438 35.8317C54.6528 35.1316 52.7345 34.5723 50.7228 34.2001C52.7346 34.6658 54.6061 35.2252 56.1971 35.8785C56.1044 36.7673 56.0117 37.6093 55.9658 38.4981C55.8273 40.2756 55.6888 42.1935 55.5972 44.1114C55.506 46.4969 55.4149 48.9293 55.3706 51.3616C55.3718 52.6245 55.373 53.7939 55.3742 55.0568C55.3755 56.2729 55.3766 57.4423 55.3778 58.6584C55.3817 62.5407 55.3854 66.2359 55.5288 69.3228C55.5293 69.8841 55.5298 70.3986 55.5303 70.8196C55.5308 71.3341 55.5312 71.8019 55.5317 72.2229C55.5321 72.6438 55.5326 73.1583 55.533 73.5325C55.5334 73.9535 55.5338 74.3745 55.5342 74.7487C55.5347 75.31 55.5352 75.8245 55.5356 76.1987C55.5361 76.6664 55.5365 77.0874 55.5368 77.4148C55.0695 77.7895 54.4151 78.3046 53.6206 78.9135C53.013 79.4286 52.312 79.9906 51.4706 80.5995C49.3207 82.3323 46.61 84.4866 43.6189 86.9687C43.1515 87.3433 42.6842 87.7648 42.2169 88.1862C40.5811 89.5443 38.8519 90.996 37.1695 92.4477C35.9076 93.5248 34.7393 94.555 33.5242 95.632C30.2061 98.5353 26.935 101.579 23.9911 104.482C23.1967 105.278 22.449 106.027 21.7014 106.776C21.1874 107.291 20.7201 107.759 20.2996 108.227C18.8978 109.679 17.5896 111.13 16.5619 112.441C16.2349 112.862 15.9079 113.283 15.5809 113.705C15.2538 114.079 14.9736 114.501 14.7401 114.875C15.8162 115.155 16.3309 115.341 16.3777 115.341L17.0327 115.528L17.5473 115.667L17.9227 116.836C18.0166 117.164 18.1572 117.491 18.2511 117.818C18.2511 117.818 18.3913 117.678 18.438 117.584C18.7649 117.069 19.1853 116.508 19.6525 115.946C19.9795 115.525 20.3532 115.056 20.727 114.635C21.2876 113.933 21.9418 113.277 22.5959 112.528C23.2499 111.779 23.9509 111.077 24.7452 110.234C24.9788 110 25.2125 109.766 25.3994 109.579C25.9134 109.064 26.4274 108.549 26.8947 108.081C31.5675 103.492 37.269 98.4815 42.5968 93.9391C43.2043 93.4239 43.7652 92.9556 44.326 92.4873C44.5597 92.3468 44.7466 92.1595 44.9803 91.9722C46.0085 91.0824 46.9899 90.2863 47.9247 89.5369C48.8127 88.8344 49.6072 88.1788 50.4017 87.5232C50.5887 87.3827 50.7756 87.2422 50.9625 87.0549C53.2527 85.2284 55.1689 83.6829 56.6645 82.5589C56.9917 82.2779 57.3189 82.0437 57.6461 81.8095C57.9265 81.5754 58.1602 81.388 58.3938 81.2007C59.0014 80.6856 59.3286 80.4514 59.3753 80.4045L60.3568 79.6552L60.3556 78.4391C60.3556 78.4391 60.2615 77.8779 60.2606 76.9424C60.2602 76.5682 60.2597 76.1004 60.2593 75.6327C60.2588 75.1182 60.2582 74.5101 60.2576 73.9488C60.0657 69.0845 59.8704 60.8523 60.0023 52.4796C60.0005 50.6086 60.0921 48.644 60.137 46.773C60.3203 42.9841 60.5505 39.3354 60.8747 36.0609C60.4071 36.2485 60.0331 36.3892 59.6591 36.5766L58.5837 37.0455L58.4433 36.952L57.5541 36.4852ZM56.1971 35.8785C56.1044 36.7673 56.0117 37.6093 55.9658 38.4981C55.8273 40.2756 55.6888 42.1935 55.5972 44.1114C55.506 46.4969 55.4149 48.9293 55.3706 51.3616C55.3718 52.6245 55.373 53.7939 55.3742 55.0568C55.3755 56.2729 55.3766 57.4423 55.3778 58.6584C55.3817 62.5407 55.3854 66.2359 55.5288 69.3228C55.5293 69.8841 55.5298 70.3986 55.5303 70.8196C55.5308 71.3341 55.5312 71.8019 55.5317 72.2229C55.5321 72.6438 55.5326 73.1583 55.533 73.5325C55.5334 73.9535 55.5338 74.3745 55.5342 74.7487C55.5347 75.31 55.5352 75.8245 55.5356 76.1987C55.5361 76.6664 55.5365 77.0874 55.5368 77.4148C55.0695 77.7895 54.4151 78.3046 53.6206 78.9135C53.013 79.4286 52.312 79.9906 51.4706 80.5995C49.3207 82.3323 46.61 84.4866 43.6189 86.9687C43.1515 87.3433 42.6842 87.7648 42.2169 88.1862C40.5811 89.5443 38.8519 90.996 37.1695 92.4477C35.9076 93.5248 34.7393 94.555 33.5242 95.632C30.2061 98.5353 26.935 101.579 23.9911 104.482C23.1967 105.278 22.449 106.027 21.7014 106.776C21.1874 107.291 20.7201 107.759 20.2996 108.227C18.8978 109.679 17.5896 111.13 16.5619 112.441C16.2349 112.862 15.9079 113.283 15.5809 113.705C15.2538 114.079 14.9736 114.501 14.7401 114.875C15.8162 115.155 16.3309 115.341 16.3777 115.341L17.0327 115.528L17.5473 115.667L17.9227 116.836C18.0166 117.164 18.1572 117.491 18.2511 117.818C18.2511 117.818 18.3913 117.678 18.438 117.584C18.7649 117.069 19.1853 116.508 19.6525 115.946C19.9795 115.525 20.3532 115.056 20.727 114.635C21.2876 113.933 21.9418 113.277 22.5959 112.528C23.2499 111.779 23.9509 111.077 24.7452 110.234C24.9788 110 25.2125 109.766 25.3994 109.579C25.9134 109.064 26.4274 108.549 26.8947 108.081C31.5675 103.492 37.269 98.4815 42.5968 93.9391C43.2043 93.4239 43.7652 92.9556 44.326 92.4873C44.5597 92.3468 44.7466 92.1595 44.9803 91.9722C46.0085 91.0824 46.9899 90.2863 47.9247 89.5369C48.8127 88.8344 49.6072 88.1788 50.4017 87.5232C50.5887 87.3827 50.7756 87.2422 50.9625 87.0549C53.2527 85.2284 55.1689 83.6829 56.6645 82.5589C56.9917 82.2779 57.3189 82.0437 57.6461 81.8095C57.9265 81.5754 58.1602 81.388 58.3938 81.2007C59.0014 80.6856 59.3286 80.4514 59.3753 80.4045L60.3568 79.6552L60.3567 79.5148C59.8887 79.2814 59.4208 79.0948 59.0464 78.9549C58.8593 78.9551 58.6721 78.8149 58.4849 78.7216C58.2977 78.6282 58.1106 78.5816 57.9702 78.535C57.9702 78.535 57.9693 77.5995 57.8742 76.056C57.6353 71.0046 57.249 58.8904 57.6586 47.4771C57.6582 47.0093 57.6577 46.5416 57.6573 46.1674C57.656 44.8577 57.795 43.5011 57.8872 42.1913C57.979 40.4138 58.1176 38.6363 58.303 36.999L57.4139 36.5321C56.9927 36.2987 56.5247 36.0653 56.1035 35.8786C54.5125 35.1786 52.5942 34.6191 50.5825 34.2469C52.5943 34.7127 54.4658 35.2721 56.0568 35.9254L56.1971 35.8785ZM56.1971 35.8785C56.1044 36.7673 56.0117 37.6093 55.9658 38.4981C55.8273 40.2756 55.6888 42.1935 55.5972 44.1114C55.506 46.4969 55.4149 48.9293 55.3706 51.3616C55.3718 52.6245 55.373 53.7939 55.3742 55.0568C55.3755 56.2729 55.3766 57.4423 55.3778 58.6584C55.3817 62.5407 55.3854 66.2359 55.5288 69.3228C55.5293 69.8841 55.5298 70.3986 55.5303 70.8196C55.5308 71.3341 55.5312 71.8019 55.5317 72.2229C55.5321 72.6438 55.5326 73.1583 55.533 73.5325C55.5334 73.9535 55.5338 74.3745 55.5342 74.7487C55.5347 75.31 55.5352 75.8245 55.5356 76.1987C55.5361 76.6664 55.5365 77.0874 55.5368 77.4148C55.0695 77.7895 54.4151 78.3046 53.6206 78.9135C53.013 79.4286 52.312 79.9906 51.4706 80.5995C49.3207 82.3323 46.61 84.4866 43.6189 86.9687C43.1515 87.3433 42.6842 87.7648 42.2169 88.1862C40.5811 89.5443 38.8519 90.996 37.1695 92.4477C35.9076 93.5248 34.7393 94.555 33.5242 95.632C30.2061 98.5353 26.935 101.579 23.9911 104.482C23.1967 105.278 22.449 106.027 21.7014 106.776C21.1874 107.291 20.7201 107.759 20.2996 108.227C18.8978 109.679 17.5896 111.13 16.5619 112.441C16.2349 112.862 15.9079 113.283 15.5809 113.705C15.2538 114.079 14.9736 114.501 14.7401 114.875C15.8162 115.155 16.3309 115.341 16.3777 115.341L17.0327 115.528C18.434 113.562 20.4898 111.314 22.8728 108.833C23.2466 108.458 23.5737 108.131 23.9476 107.756C24.3681 107.335 24.7887 106.913 25.2092 106.492C25.3961 106.258 25.6765 106.024 25.9568 105.743C26.1438 105.556 26.3774 105.321 26.6578 105.087C27.0783 104.619 27.5456 104.198 27.9662 103.776C30.7233 101.201 33.6674 98.5319 36.5649 96.0032C38.0604 94.692 39.5092 93.4744 40.9112 92.2569C41.0047 92.1632 41.0981 92.0696 41.1449 92.0228C41.8459 91.4608 42.5002 90.8521 43.2013 90.3368C46.5662 87.527 49.6041 85.045 52.0812 83.1247C52.5953 82.7033 53.0627 82.3286 53.4366 82.0008C54.3245 81.2515 55.1191 80.6894 55.7735 80.1742C57.082 79.0504 57.8766 78.4883 57.8766 78.4883C57.8766 78.4883 57.8757 77.5528 57.7806 76.0093C57.5417 70.9579 57.1554 58.8437 57.565 47.4304C57.5646 46.9626 57.5641 46.4949 57.5637 46.1207C57.5624 44.811 57.7014 43.4544 57.7937 42.1447C57.8854 40.3671 58.024 38.5896 58.2094 36.9523L57.3203 36.4854C56.8991 36.252 56.4311 36.0186 56.0099 35.8319C54.4189 35.1319 52.5006 34.5725 50.4889 34.2003C52.5007 34.666 54.3722 35.2255 55.9632 35.8787L56.1971 35.8785ZM56.1971 35.8785C56.1044 36.7673 56.0117 37.6093 55.9658 38.4981C55.8273 40.2756 55.6888 42.1935 55.5972 44.1114C55.506 46.4969 55.4149 48.9293 55.3706 51.3616C55.3718 52.6245 55.373 53.7939 55.3742 55.0568C55.3755 56.2729 55.3766 57.4423 55.3778 58.6584C55.3817 62.5407 55.3854 66.2359 55.5288 69.3228C55.5293 69.8841 55.5298 70.3986 55.5303 70.8196C55.5308 71.3341 55.5312 71.8019 55.5317 72.2229C55.5321 72.6438 55.5326 73.1583 55.533 73.5325C55.5334 73.9535 55.5338 74.3745 55.5342 74.7487C55.5347 75.31 55.5352 75.8245 55.5356 76.1987C55.5361 76.6664 55.5365 77.0874 55.5368 77.4148C55.0695 77.7895 54.4151 78.3046 53.6206 78.9135C53.013 79.4286 52.312 79.9906 51.4706 80.5995C49.3207 82.3323 46.61 84.4866 43.6189 86.9687C43.1515 87.3433 42.6842 87.7648 42.2169 88.1862C40.5811 89.5443 38.8519 90.996 37.1695 92.4477C35.9076 93.5248 34.7393 94.555 33.5242 95.632C30.2061 98.5353 26.935 101.579 23.9911 104.482C23.1967 105.278 22.449 106.027 21.7014 106.776C21.1874 107.291 20.7201 107.759 20.2996 108.227C18.8978 109.679 17.5896 111.13 16.5619 112.441C16.2349 112.862 15.9079 113.283 15.5809 113.705C15.2538 114.079 14.9736 114.501 14.7401 114.875C15.8162 115.155 16.3309 115.341 16.3777 115.341L17.0327 115.528C18.434 113.562 20.4898 111.314 22.8728 108.833C23.2466 108.458 23.5737 108.131 23.9476 107.756C24.3681 107.335 24.7887 106.913 25.2092 106.492C25.3961 106.258 25.6765 106.024 25.9568 105.743C26.1438 105.556 26.3774 105.321 26.6578 105.087C27.0783 104.619 27.5456 104.198 27.9662 103.776C30.7233 101.201 33.6674 98.5319 36.5649 96.0032C38.0604 94.692 39.5092 93.4744 40.9112 92.2569C41.0047 92.1632 41.0981 92.0696 41.1449 92.0228C41.8459 91.4608 42.5002 90.8521 43.2013 90.3368C46.5662 87.527 49.6041 85.045 52.0812 83.1247C52.5953 82.7033 53.0627 82.3286 53.4366 82.0008C54.3245 81.2515 55.1191 80.6894 55.7735 80.1742C57.082 79.0504 57.8766 78.4883 57.8766 78.4883C57.8766 78.4883 57.8757 77.5528 57.7806 76.0093C57.5417 70.9579 57.1554 58.8437 57.565 47.4304C57.5646 46.9626 57.5641 46.4949 57.5637 46.1207C57.5624 44.811 57.7014 43.4544 57.7937 42.1447C57.8854 40.3671 58.024 38.5896 58.2094 36.9523L57.3203 36.4854C56.8991 36.252 56.4311 36.0186 56.0099 35.8319C54.4189 35.1319 52.5006 34.5725 50.4889 34.2003C52.5007 34.666 54.3722 35.2255 55.9632 35.8787L56.1971 35.8785ZM56.1971 35.8785C56.1044 36.7673 56.0117 37.6093 55.9658 38.4981C55.8273 40.2756 55.6888 42.1935 55.5972 44.1114C55.506 46.4969 55.4149 48.9293 55.3706 51.3616C55.3718 52.6245 55.373 53.7939 55.3742 55.0568C55.3755 56.2729 55.3766 57.4423 55.3778 58.6584C55.3817 62.5407 55.3854 66.2359 55.5288 69.3228C55.5293 69.8841 55.5298 70.3986 55.5303 70.8196C55.5308 71.3341 55.5312 71.8019 55.5317 72.2229C55.5321 72.6438 55.5326 73.1583 55.533 73.5325C55.5334 73.9535 55.5338 74.3745 55.5342 74.7487C55.5347 75.31 55.5352 75.8245 55.5356 76.1987C55.5361 76.6664 55.5365 77.0874 55.5368 77.4148C55.0695 77.7895 54.4151 78.3046 53.6206 78.9135C53.013 79.4286 52.312 79.9906 51.4706 80.5995C49.3207 82.3323 46.61 84.4866 43.6189 86.9687C43.1515 87.3433 42.6842 87.7648 42.2169 88.1862C40.5811 89.5443 38.8519 90.996 37.1695 92.4477C35.9076 93.5248 34.7393 94.555 33.5242 95.632C30.2061 98.5353 26.935 101.579 23.9911 104.482C23.1967 105.278 22.449 106.027 21.7014 106.776C21.1874 107.291 20.7201 107.759 20.2996 108.227C18.8978 109.679 17.5896 111.13 16.5619 112.441C16.2349 112.862 15.9079 113.283 15.5809 113.705C15.2538 114.079 14.9736 114.501 14.7401 114.875C15.8162 115.155 16.3309 115.341 16.3777 115.341L17.0327 115.528C18.434 113.562 20.4898 111.314 22.8728 108.833C23.2466 108.458 23.5737 108.131 23.9476 107.756C24.3681 107.335 24.7887 106.913 25.2092 106.492C25.3961 106.258 25.6765 106.024 25.9568 105.743C26.1438 105.556 26.3774 105.321 26.6578 105.087C27.0783 104.619 27.5456 104.198 27.9662 103.776C30.7233 101.201 33.6674 98.5319 36.5649 96.0032C38.0604 94.692 39.5092 93.4744 40.9112 92.2569C41.0047 92.1632 41.0981 92.0696 41.1449 92.0228C41.8459 91.4608 42.5002 90.8521 43.2013 90.3368C46.5662 87.527 49.6041 85.045 52.0812 83.1247C52.5953 82.7033 53.0627 82.3286 53.4366 82.0008C54.3245 81.2515 55.1191 80.6894 55.7735 80.1742C57.082 79.0504 57.8766 78.4883 57.8766 78.4883C57.8766 78.4883 57.8757 77.5528 57.7806 76.0093C57.5417 70.9579 57.1554 58.8437 57.565 47.4304C57.5646 46.9626 57.5641 46.4949 57.5637 46.1207C57.5624 44.811 57.7014 43.4544 57.7937 42.1447C57.8854 40.3671 58.024 38.5896 58.2094 36.9523L57.3203 36.4854C56.8991 36.252 56.4311 36.0186 56.0099 35.8319C54.4189 35.1319 52.5006 34.5725 50.4889 34.2003C52.5007 34.666 54.3722 35.2255 55.9632 35.8787L56.1971 35.8785ZM24.2003 32.7764C24.8551 32.7758 25.8374 32.7748 27.1002 32.68C25.7905 32.6813 24.8083 32.6823 24.2003 32.7764ZM55.9658 38.4981C55.8273 40.2756 55.6888 42.1935 55.5972 44.1114C55.506 46.4969 55.4149 48.9293 55.3706 51.3616C55.3718 52.6245 55.373 53.7939 55.3742 55.0568C55.3755 56.2729 55.3766 57.4423 55.3778 58.6584C55.3817 62.5407 55.3854 66.2359 55.5288 69.3228C55.5293 69.8841 55.5298 70.3986 55.5303 70.8196C55.5308 71.3341 55.5312 71.8019 55.5317 72.2229C55.5321 72.6438 55.5326 73.1583 55.533 73.5325C55.5334 73.9535 55.5338 74.3745 55.5342 74.7487C55.5347 75.31 55.5352 75.8245 55.5356 76.1987C55.5361 76.6664 55.5365 77.0874 55.5368 77.4148C55.0695 77.7895 54.4151 78.3046 53.6206 78.9135C53.013 79.4286 52.312 79.9906 51.4706 80.5995C49.3207 82.3323 46.61 84.4866 43.6189 86.9687C43.1515 87.3433 42.6842 87.7648 42.2169 88.1862C40.5811 89.5443 38.8519 90.996 37.1695 92.4477C35.9076 93.5248 34.7393 94.555 33.5242 95.632C30.2061 98.5353 26.935 101.579 23.9911 104.482C23.1967 105.278 22.449 106.027 21.7014 106.776C21.1874 107.291 20.7201 107.759 20.2996 108.227C18.8978 109.679 17.5896 111.13 16.5619 112.441C16.2349 112.862 15.9079 113.283 15.5809 113.705C15.2538 114.079 14.9736 114.501 14.7401 114.875C15.8162 115.155 16.3309 115.341 16.3777 115.341L17.0327 115.528C18.434 113.562 20.4898 111.314 22.8728 108.833C23.2466 108.458 23.5737 108.131 23.9476 107.756C24.3681 107.335 24.7887 106.913 25.2092 106.492C25.3961 106.258 25.6765 106.024 25.9568 105.743C26.1438 105.556 26.3774 105.321 26.6578 105.087C27.0783 104.619 27.5456 104.198 27.9662 103.776C30.7233 101.201 33.6674 98.5319 36.5649 96.0032C38.0604 94.692 39.5092 93.4744 40.9112 92.2569C41.0047 92.1632 41.0981 92.0696 41.1449 92.0228C41.8459 91.4608 42.5002 90.8521 43.2013 90.3368C46.5662 87.527 49.6041 85.045 52.0812 83.1247C52.5953 82.7033 53.0627 82.3286 53.4366 82.0008C54.3245 81.2515 55.1191 80.6894 55.7735 80.1742C57.082 79.0504 57.8766 78.4883 57.8766 78.4883C57.8766 78.4883 57.8757 77.5528 57.7806 76.0093C57.5417 70.9579 57.1554 58.8437 57.565 47.4304C57.5646 46.9626 57.5641 46.4949 57.5637 46.1207C57.5624 44.811 57.7014 43.4544 57.7937 42.1447C57.8854 40.3671 58.024 38.5896 58.2094 36.9523L57.3203 36.4854C56.8991 36.252 56.4311 36.0186 56.0099 35.8319C54.4189 35.1319 52.5006 34.5725 50.4889 34.2003C52.5007 34.666 54.3722 35.2255 55.9632 35.8787C55.8705 36.7675 55.7778 37.6095 55.7319 38.4983L55.9658 38.4981ZM28.3585 28.0481L28.2649 28.0482C27.0488 28.0494 26.0666 28.0504 25.2247 28.1448C23.9618 28.146 23.2603 28.2403 23.0732 28.2405L22.4651 28.2411L21.951 28.6158C21.951 28.6158 21.951 28.6158 21.764 28.7095L21.6704 28.7096C20.455 29.4592 16.4351 32.1294 11.2001 35.9233C10.6392 36.2981 10.0783 36.7196 9.56424 37.141C9.00337 37.5626 8.44249 37.9841 7.9284 38.4056C6.75992 39.2955 5.59146 40.1854 4.37625 41.1221C3.1611 42.1055 1.99267 43.0422 0.730785 44.0725C-0.0637733 44.6813 -0.764735 45.3369 -1.55925 45.9925L-1.48992 115.593C-0.694614 115.732 0.0539615 115.919 0.802538 116.105C1.08318 116.105 1.31715 116.198 1.55107 116.245C7.44594 117.548 12.0779 118.807 14.1365 119.366C14.8851 119.552 15.3062 119.692 15.3062 119.692L16.897 120.158L17.0373 120.158L17.9245 118.661C18.0646 118.38 18.2514 118.099 18.4382 117.818C18.4382 117.818 18.5784 117.678 18.6251 117.584C18.952 117.069 19.3724 116.507 19.8396 115.946C20.1666 115.524 20.5403 115.056 20.9141 114.635C21.4747 113.933 22.1289 113.277 22.783 112.528C23.437 111.779 24.138 111.077 24.9323 110.234C25.1659 110 25.3996 109.766 25.5865 109.579C26.1005 109.064 26.6145 108.549 27.0818 108.08C31.7546 103.492 37.4561 98.4813 42.7839 93.9389C43.3914 93.4238 43.9523 92.9555 44.5131 92.4872C44.7468 92.3466 44.9337 92.1593 45.1674 91.972C46.1956 91.0822 47.177 90.2861 48.1118 89.5368C48.9998 88.8343 49.7943 88.1786 50.5888 87.523C50.7758 87.3825 50.9627 87.242 51.1496 87.0547C53.4398 85.2282 55.356 83.6828 56.8516 82.5587C57.1788 82.2777 57.506 82.0435 57.8332 81.8093C58.1136 81.5752 58.3473 81.3878 58.5809 81.2005C59.1885 80.6854 59.5157 80.4512 59.5624 80.4044L60.5439 79.655L60.5427 78.4389C60.5427 78.4389 60.4486 77.8777 60.4477 76.9422C60.4473 76.568 60.4468 76.1002 60.4464 75.6325C60.4459 75.118 60.4453 74.5099 60.4447 73.9486C60.2528 69.0843 60.0575 60.8522 60.1894 52.4794C60.1876 50.6084 60.2792 48.6438 60.3241 46.7728C60.5074 42.9839 60.7376 39.3352 61.0618 36.0607C61.0614 35.6397 61.1545 35.2187 61.2009 34.8445L61.3867 33.4878L61.3865 33.3007L60.0293 32.5537C59.7017 32.3669 59.3273 32.1802 58.9529 31.9935C58.2978 31.7135 57.6426 31.4335 57.0343 31.2002C55.8646 30.7804 54.6948 30.4074 53.3848 30.0812C52.9638 29.9881 52.5895 29.8949 52.1684 29.8018C52.0749 29.8019 51.9813 29.802 51.9346 29.802C50.1568 29.4296 48.2855 29.1041 46.4142 28.8721C45.7593 28.7792 45.1044 28.733 44.4963 28.6401C43.8413 28.5472 43.1864 28.5011 42.5783 28.4549C40.7072 28.3164 38.7893 28.178 37.0119 28.133C33.8311 28.0426 30.9311 28.0455 28.5925 28.1414L28.3585 28.0481ZM7.44142 113.011C6.73962 112.825 6.08464 112.685 5.28928 112.499C4.58748 112.312 3.88569 112.126 3.13716 111.987C2.34181 111.8 1.59323 111.614 0.797878 111.428L0.736796 50.1064C6.57861 45.0957 12.4678 40.7398 16.9082 37.5547C17.8898 36.8521 18.7779 36.2432 19.6193 35.681C21.6292 34.3226 23.1718 33.292 23.9196 32.7767L24.2003 32.7764C24.8551 32.7758 25.8374 32.7748 27.1002 32.68C29.7662 32.5838 33.6017 32.5332 37.718 32.6694C39.3551 32.6678 41.0391 32.8532 42.6764 32.9919C43.0506 32.9916 43.378 32.9912 43.7523 33.0844C44.5008 33.1772 45.2493 33.27 45.9977 33.3628C46.793 33.4556 47.5415 33.5484 48.3368 33.6879C49.1321 33.7807 49.9274 33.967 50.7228 34.1533C52.7345 34.619 54.6061 35.1784 56.197 35.8317C56.1044 36.7205 56.0117 37.5625 55.9658 38.4513C55.8272 40.2289 55.6888 42.1468 55.5972 44.0646C55.506 46.4502 55.4149 48.8825 55.3705 51.3148C55.3718 52.5778 55.3729 53.7471 55.3742 55.01C55.3754 56.2262 55.3766 57.3955 55.3778 58.6117C55.3816 62.4939 55.3853 66.1891 55.5287 69.2761C55.5293 69.8374 55.5298 70.3519 55.5302 70.7729C55.5307 71.2874 55.5312 71.7551 55.5316 72.1761C55.532 72.597 55.5325 73.1116 55.5329 73.4857C55.5333 73.9067 55.5338 74.3277 55.5341 74.7019C55.5347 75.2632 55.5352 75.7777 55.5356 76.1519C55.536 76.6197 55.5365 77.0406 55.5368 77.368C55.0694 77.7427 54.4151 78.2579 53.6205 78.8667C53.013 79.3818 52.3119 79.9438 51.4706 80.5527C49.3207 82.2855 46.6099 84.4399 43.6188 86.9219C43.1515 87.2965 42.6841 87.718 42.2168 88.1394C40.5811 89.4975 38.8519 90.9492 37.1694 92.4009C35.9076 93.478 34.7392 94.5082 33.5242 95.5852C30.2061 98.4885 26.9349 101.532 23.991 104.435C23.1966 105.231 22.449 105.98 21.7014 106.729C21.1874 107.244 20.7201 107.713 20.2996 108.181C18.8978 109.632 17.5896 111.083 16.5618 112.394C16.2348 112.815 15.9078 113.237 15.5808 113.658C15.2538 114.033 14.9735 114.454 14.74 114.828C14.319 114.735 13.8979 114.595 13.43 114.502C12.775 114.316 12.12 114.129 11.3246 113.943C10.9503 113.803 10.5292 113.71 10.0614 113.617C9.21922 113.384 8.2835 113.151 7.301 112.918L7.44142 113.011ZM56.1503 35.8785C56.0576 36.7673 55.9649 37.6094 55.919 38.4981C55.7805 40.2757 55.6421 42.1936 55.5504 44.1114C55.4593 46.497 55.3681 48.9294 55.3238 51.3617C55.325 52.6246 55.3262 53.7939 55.3275 55.0569C55.3287 56.273 55.3298 57.4423 55.3311 58.6585C55.3349 62.5407 55.3386 66.2359 55.482 69.3229C55.4826 69.8842 55.4831 70.3987 55.4835 70.8197C55.484 71.3342 55.4845 71.8019 55.4849 72.2229C55.4853 72.6439 55.4858 73.1584 55.4862 73.5326C55.4866 73.9535 55.487 74.3745 55.4874 74.7487C55.488 75.31 55.4885 75.8245 55.4889 76.1987C55.4893 76.6665 55.4897 77.0874 55.4901 77.4149C55.0227 77.7895 54.3684 78.3047 53.5738 78.9135C52.9662 79.4287 52.2652 79.9907 51.4239 80.5996C49.274 82.3324 46.5632 84.4867 43.5721 86.9687C43.1047 87.3434 42.6374 87.7648 42.1701 88.1863C40.5343 89.5443 38.8051 90.9961 37.1227 92.4477C35.8609 93.5248 34.6925 94.555 33.4775 95.632C30.1594 98.5353 26.8882 101.579 23.9443 104.482C23.1499 105.278 22.4023 106.027 21.6546 106.776C21.1406 107.291 20.6733 107.759 20.2528 108.228C18.8511 109.679 17.5428 111.13 16.5151 112.441C16.1881 112.862 15.8611 113.284 15.5341 113.705C15.207 114.079 14.9268 114.501 14.6933 114.875C15.7694 115.155 16.2841 115.341 16.3309 115.341L16.9859 115.528C18.3872 113.562 20.443 111.314 22.826 108.833C23.1999 108.458 23.527 108.131 23.9008 107.756C24.3213 107.335 24.7419 106.913 25.1624 106.492C25.3493 106.258 25.6297 106.024 25.9101 105.743C26.097 105.556 26.3306 105.321 26.611 105.087C27.0315 104.619 27.4989 104.198 27.9194 103.776C30.6765 101.201 33.6207 98.5319 36.5182 96.0032C38.0136 94.692 39.4624 93.4744 40.8645 92.2569C40.9579 92.1633 41.0514 92.0696 41.0981 92.0228C41.7992 91.4608 42.4534 90.8521 43.1545 90.3369C46.5194 87.5271 49.5573 85.045 52.0344 83.1248C52.5485 82.7033 53.0159 82.3287 53.3898 82.0009C54.2777 81.2516 55.0724 80.6895 55.7267 80.1743C57.0352 79.0504 57.8299 78.4884 57.8299 78.4884C57.8299 78.4884 57.8289 77.5528 57.7338 76.0094C57.4949 70.958 57.1087 58.8438 57.5183 47.4304C57.5178 46.9627 57.5173 46.4949 57.517 46.1207C57.5157 44.8111 57.6546 43.4545 57.7469 42.1447C57.8387 40.3672 57.9772 38.5896 58.1627 36.9523L57.2735 36.4855C56.8523 36.252 56.3843 36.0186 55.9632 35.8319C54.3721 35.1319 52.4538 34.5725 50.4421 34.2003C52.4539 34.6661 54.3254 35.2255 55.9164 35.8788L56.1503 35.8785ZM56.1503 35.8785C56.0576 36.7673 55.9649 37.6094 55.919 38.4981C55.7805 40.2757 55.6421 42.1936 55.5504 44.1114C55.4593 46.497 55.3681 48.9294 55.3238 51.3617C55.325 52.6246 55.3262 53.7939 55.3275 55.0569C55.3287 56.273 55.3298 57.4423 55.3311 58.6585C55.3349 62.5407 55.3386 66.2359 55.482 69.3229C55.4826 69.8842 55.4831 70.3987 55.4835 70.8197C55.484 71.3342 55.4845 71.8019 55.4849 72.2229C55.4853 72.6439 55.4858 73.1584 55.4862 73.5326C55.4866 73.9535 55.487 74.3745 55.4874 74.7487C55.488 75.31 55.4885 75.8245 55.4889 76.1987C55.4893 76.6665 55.4897 77.0874 55.4901 77.4149C55.0227 77.7895 54.3684 78.3047 53.5738 78.9135C52.9662 79.4287 52.2652 79.9907 51.4239 80.5996C49.274 82.3324 46.5632 84.4867 43.5721 86.9687C43.1047 87.3434 42.6374 87.7648 42.1701 88.1863C40.5343 89.5443 38.8051 90.9961 37.1227 92.4477C35.8609 93.5248 34.6925 94.555 33.4775 95.632C30.1594 98.5353 26.8882 101.579 23.9443 104.482C23.1499 105.278 22.4023 106.027 21.6546 106.776C21.1406 107.291 20.6733 107.759 20.2528 108.228C18.8511 109.679 17.5428 111.13 16.5151 112.441C16.1881 112.862 15.8611 113.284 15.5341 113.705C15.207 114.079 14.9268 114.501 14.6933 114.875C15.7694 115.155 16.2841 115.341 16.3309 115.341L16.9859 115.528C18.3872 113.562 20.443 111.314 22.826 108.833C23.1999 108.458 23.527 108.131 23.9008 107.756C24.3213 107.335 24.7419 106.913 25.1624 106.492C25.3493 106.258 25.6297 106.024 25.9101 105.743C26.097 105.556 26.3306 105.321 26.611 105.087C27.0315 104.619 27.4989 104.198 27.9194 103.776C30.6765 101.201 33.6207 98.5319 36.5182 96.0032C38.0136 94.692 39.4624 93.4744 40.8645 92.2569C40.9579 92.1633 41.0514 92.0696 41.0981 92.0228C41.7992 91.4608 42.4534 90.8521 43.1545 90.3369C46.5194 87.5271 49.5573 85.045 52.0344 83.1248C52.5485 82.7033 53.0159 82.3287 53.3898 82.0009C54.2777 81.2516 55.0724 80.6895 55.7267 80.1743C57.0352 79.0504 57.8299 78.4884 57.8299 78.4884C57.8299 78.4884 57.8289 77.5528 57.7338 76.0094C57.4949 70.958 57.1087 58.8438 57.5183 47.4304C57.5178 46.9627 57.5173 46.4949 57.517 46.1207C57.5157 44.8111 57.6546 43.4545 57.7469 42.1447C57.8387 40.3672 57.9772 38.5896 58.1627 36.9523L57.2735 36.4855C56.8523 36.252 56.3843 36.0186 55.9632 35.8319C54.3721 35.1319 52.4538 34.5725 50.4421 34.2003C52.4539 34.6661 54.3254 35.2255 55.9164 35.8788L56.1503 35.8785ZM56.1503 35.8785C56.0576 36.7673 55.9649 37.6094 55.919 38.4981C55.7805 40.2757 55.6421 42.1936 55.5504 44.1114C55.4593 46.497 55.3681 48.9294 55.3238 51.3617C55.325 52.6246 55.3262 53.7939 55.3275 55.0569C55.3287 56.273 55.3298 57.4423 55.3311 58.6585C55.3349 62.5407 55.3386 66.2359 55.482 69.3229C55.4826 69.8842 55.4831 70.3987 55.4835 70.8197C55.484 71.3342 55.4845 71.8019 55.4849 72.2229C55.4853 72.6439 55.4858 73.1584 55.4862 73.5326C55.4866 73.9535 55.487 74.3745 55.4874 74.7487C55.488 75.31 55.4885 75.8245 55.4889 76.1987C55.4893 76.6665 55.4897 77.0874 55.4901 77.4149C55.0227 77.7895 54.3684 78.3047 53.5738 78.9135C52.9662 79.4287 52.2652 79.9907 51.4239 80.5996C49.274 82.3324 46.5632 84.4867 43.5721 86.9687C43.1047 87.3434 42.6374 87.7648 42.1701 88.1863C40.5343 89.5443 38.8051 90.9961 37.1227 92.4477C35.8609 93.5248 34.6925 94.555 33.4775 95.632C30.1594 98.5353 26.8882 101.579 23.9443 104.482C23.1499 105.278 22.4023 106.027 21.6546 106.776C21.1406 107.291 20.6733 107.759 20.2528 108.228C18.8511 109.679 17.5428 111.13 16.5151 112.441C16.1881 112.862 15.8611 113.284 15.5341 113.705C15.207 114.079 14.9268 114.501 14.6933 114.875C15.7694 115.155 16.2841 115.341 16.3309 115.341L16.9859 115.528C18.3872 113.562 20.443 111.314 22.826 108.833C23.1999 108.458 23.527 108.131 23.9008 107.756C24.3213 107.335 24.7419 106.913 25.1624 106.492C25.3493 106.258 25.6297 106.024 25.9101 105.743C26.097 105.556 26.3306 105.321 26.611 105.087C27.0315 104.619 27.4989 104.198 27.9194 103.776C30.6765 101.201 33.6207 98.5319 36.5182 96.0032C38.0136 94.692 39.4624 93.4744 40.8645 92.2569C40.9579 92.1633 41.0514 92.0696 41.0981 92.0228C41.7992 91.4608 42.4534 90.8521 43.1545 90.3369C46.5194 87.5271 49.5573 85.045 52.0344 83.1248C52.5485 82.7033 53.0159 82.3287 53.3898 82.0009C54.2777 81.2516 55.0724 80.6895 55.7267 80.1743C57.0352 79.0504 57.8299 78.4884 57.8299 78.4884C57.8299 78.4884 57.8289 77.5528 57.7338 76.0094C57.4949 70.958 57.1087 58.8438 57.5183 47.4304C57.5178 46.9627 57.5173 46.4949 57.517 46.1207C57.5157 44.8111 57.6546 43.4545 57.7469 42.1447C57.8387 40.3672 57.9772 38.5896 58.1627 36.9523L57.2735 36.4855C56.8523 36.252 56.3843 36.0186 55.9632 35.8319C54.3721 35.1319 52.4538 34.5725 50.4421 34.2003C52.4539 34.6661 54.3254 35.2255 55.9164 35.8788L56.1503 35.8785ZM56.1503 35.8785C56.0576 36.7673 55.9649 37.6094 55.919 38.4981C55.7805 40.2757 55.6421 42.1936 55.5504 44.1114C55.4593 46.497 55.3681 48.9294 55.3238 51.3617C55.325 52.6246 55.3262 53.7939 55.3275 55.0569C55.3287 56.273 55.3298 57.4423 55.3311 58.6585C55.3349 62.5407 55.3386 66.2359 55.482 69.3229C55.4826 69.8842 55.4831 70.3987 55.4835 70.8197C55.484 71.3342 55.4845 71.8019 55.4849 72.2229C55.4853 72.6439 55.4858 73.1584 55.4862 73.5326C55.4866 73.9535 55.487 74.3745 55.4874 74.7487C55.488 75.31 55.4885 75.8245 55.4889 76.1987C55.4893 76.6665 55.4897 77.0874 55.4901 77.4149C55.0227 77.7895 54.3684 78.3047 53.5738 78.9135C52.9662 79.4287 52.2652 79.9907 51.4239 80.5996C49.274 82.3324 46.5632 84.4867 43.5721 86.9687C43.1047 87.3434 42.6374 87.7648 42.1701 88.1863C40.5343 89.5443 38.8051 90.9961 37.1227 92.4477C35.8609 93.5248 34.6925 94.555 33.4775 95.632C30.1594 98.5353 26.8882 101.579 23.9443 104.482C23.1499 105.278 22.4023 106.027 21.6546 106.776C21.1406 107.291 20.6733 107.759 20.2528 108.228C18.8511 109.679 17.5428 111.13 16.5151 112.441C16.1881 112.862 15.8611 113.284 15.5341 113.705C15.207 114.079 14.9268 114.501 14.6933 114.875C15.7694 115.155 16.2841 115.341 16.3309 115.341L16.9859 115.528L17.5006 115.667L17.8759 116.836C17.9698 117.164 18.1104 117.491 18.2043 117.818C18.2043 117.818 18.3445 117.678 18.3912 117.584C18.7181 117.069 19.1385 116.508 19.6057 115.946C19.9327 115.525 20.3064 115.057 20.6802 114.635C21.2408 113.933 21.895 113.278 22.5491 112.528C23.2032 111.779 23.9041 111.077 24.6984 110.234C24.9321 110 25.1657 109.766 25.3526 109.579C25.8666 109.064 26.3806 108.549 26.8479 108.081C31.5208 103.492 37.2223 98.4815 42.55 93.9391C43.1576 93.424 43.7184 92.9557 44.2792 92.4874C44.5129 92.3468 44.6999 92.1595 44.9335 91.9722C45.9617 91.0825 46.9432 90.2863 47.8779 89.537C48.7659 88.8345 49.5604 88.1789 50.3549 87.5232C50.5419 87.3827 50.7289 87.2422 50.9158 87.0549C53.2059 85.2284 55.1221 83.683 56.6178 82.5589C56.9449 82.2779 57.2721 82.0438 57.5993 81.8096C57.8797 81.5754 58.1134 81.3881 58.3471 81.2007C58.9546 80.6856 59.2818 80.4514 59.3285 80.4046L60.3101 79.6552L60.3099 79.5149C59.8419 79.2815 59.374 79.0949 58.9997 78.9549C58.8126 78.9551 58.6253 78.815 58.4381 78.7216C58.251 78.6282 58.0638 78.5816 57.9234 78.535C57.9234 78.535 57.9225 77.5995 57.8274 76.0561C57.5885 71.0047 57.2023 58.8905 57.6119 47.4771C57.6114 47.0094 57.6109 46.5416 57.6106 46.1674C57.6093 44.8578 57.7482 43.5012 57.8405 42.1914C57.9322 40.4139 58.0708 38.6363 58.2563 36.999L57.3671 36.5322C56.9459 36.2987 56.4779 36.0653 56.0568 35.8786C54.4657 35.1786 52.5474 34.6192 50.5357 34.247C52.5475 34.7127 54.419 35.2722 56.01 35.9254L56.1503 35.8785ZM56.1503 35.8785C56.0576 36.7673 55.9649 37.6094 55.919 38.4981C55.7805 40.2757 55.6421 42.1936 55.5504 44.1114C55.4593 46.497 55.3681 48.9294 55.3238 51.3617C55.325 52.6246 55.3262 53.7939 55.3275 55.0569C55.3287 56.273 55.3298 57.4423 55.3311 58.6585C55.3349 62.5407 55.3386 66.2359 55.482 69.3229C55.4826 69.8842 55.4831 70.3987 55.4835 70.8197C55.484 71.3342 55.4845 71.8019 55.4849 72.2229C55.4853 72.6439 55.4858 73.1584 55.4862 73.5326C55.4866 73.9535 55.487 74.3745 55.4874 74.7487C55.488 75.31 55.4885 75.8245 55.4889 76.1987C55.4893 76.6665 55.4897 77.0874 55.4901 77.4149C55.0227 77.7895 54.3684 78.3047 53.5738 78.9135C52.9662 79.4287 52.2652 79.9907 51.4239 80.5996C49.274 82.3324 46.5632 84.4867 43.5721 86.9687C43.1047 87.3434 42.6374 87.7648 42.1701 88.1863C40.5343 89.5443 38.8051 90.9961 37.1227 92.4477C35.8609 93.5248 34.6925 94.555 33.4775 95.632C30.1594 98.5353 26.8882 101.579 23.9443 104.482C23.1499 105.278 22.4023 106.027 21.6546 106.776C21.1406 107.291 20.6733 107.759 20.2528 108.228C18.8511 109.679 17.5428 111.13 16.5151 112.441C16.1881 112.862 15.8611 113.284 15.5341 113.705C15.207 114.079 14.9268 114.501 14.6933 114.875C15.7694 115.155 16.2841 115.341 16.3309 115.341L16.9859 115.528L17.5006 115.667L17.8759 116.836C17.9698 117.164 18.1104 117.491 18.2043 117.818C18.2043 117.818 18.3445 117.678 18.3912 117.584C18.7181 117.069 19.1385 116.508 19.6057 115.946C19.9327 115.525 20.3064 115.057 20.6802 114.635C21.2408 113.933 21.895 113.278 22.5491 112.528C23.2032 111.779 23.9041 111.077 24.6984 110.234C24.9321 110 25.1657 109.766 25.3526 109.579C25.8666 109.064 26.3806 108.549 26.8479 108.081C31.5208 103.492 37.2223 98.4815 42.55 93.9391C43.1576 93.424 43.7184 92.9557 44.2792 92.4874C44.5129 92.3468 44.6999 92.1595 44.9335 91.9722C45.9617 91.0825 46.9432 90.2863 47.8779 89.537C48.7659 88.8345 49.5604 88.1789 50.3549 87.5232C50.5419 87.3827 50.7289 87.2422 50.9158 87.0549C53.2059 85.2284 55.1221 83.683 56.6178 82.5589C56.9449 82.2779 57.2721 82.0438 57.5993 81.8096C57.8797 81.5754 58.1134 81.3881 58.3471 81.2007C58.9546 80.6856 59.2818 80.4514 59.3285 80.4046L60.3101 79.6552L60.3099 79.5149C59.8419 79.2815 59.374 79.0949 58.9997 78.9549C58.8126 78.9551 58.6253 78.815 58.4381 78.7216C58.251 78.6282 58.0638 78.5816 57.9234 78.535C57.9234 78.535 57.9225 77.5995 57.8274 76.0561C57.5885 71.0047 57.2023 58.8905 57.6119 47.4771C57.6114 47.0094 57.6109 46.5416 57.6106 46.1674C57.6093 44.8578 57.7482 43.5012 57.8405 42.1914C57.9322 40.4139 58.0708 38.6363 58.2563 36.999L57.3671 36.5322C56.9459 36.2987 56.4779 36.0653 56.0568 35.8786C54.4657 35.1786 52.5474 34.6192 50.5357 34.247C52.5475 34.7127 54.419 35.2722 56.01 35.9254L56.1503 35.8785Z"
    fill="#231F20" />
  <path
    d="M192.261 128.123C192.261 128.123 194.024 160.582 179.735 184.732C179.735 184.732 191.174 210.26 189.87 215.967C189.87 215.967 196.415 213.014 202.914 209.64C220.614 182.306 227.224 150.493 223.311 119.953C218.206 112.708 213.523 107.24 213.523 107.24C208.993 114.869 192.215 128.123 192.215 128.123L192.261 128.123Z"
    fill="#F2F5F9" />
  <path
    d="M226.696 136.647C226.722 162.888 219.17 188.715 204.833 210.853L204.506 211.368L203.945 211.649C197.493 215.024 190.854 218.024 190.808 218.071L186.6 219.993L187.624 215.501C188.323 212.413 183.07 197.919 177.632 185.716L177.163 184.641L177.77 183.611C191.545 160.35 189.97 128.639 189.97 128.311L189.969 127.142L190.857 126.393C191.044 126.252 207.308 113.28 211.604 106.119L213.239 103.357L215.299 105.788C215.299 105.788 220.123 111.443 225.228 118.688L225.556 119.155L225.65 119.716C226.357 125.375 226.737 131.081 226.743 136.741L226.696 136.647ZM201.322 207.817C217.854 182.074 224.84 151.196 221.114 120.75C218.21 116.636 215.447 113.131 213.667 110.981C208.388 117.769 197.779 126.573 194.555 129.149C194.795 135.276 194.775 162.873 182.262 184.823C184.512 189.919 190.654 204.366 191.971 212.41C194.356 211.285 197.815 209.644 201.275 207.817L201.322 207.817Z"
    fill="#231F20" />
  <path
    d="M91.1672 159.841C81.3957 164.201 36.5414 166.49 36.5414 166.49C36.5414 166.49 22.119 197.563 18.7677 214.031C18.7677 214.031 41.2427 237.443 54.3985 249.684C85.18 253.676 113.142 244.106 113.142 244.106C113.142 244.106 126.253 212.006 131.249 202.506C131.249 202.506 104.232 174.328 91.1672 159.841Z"
    fill="#9F9CCA" />
  <path
    d="M134.008 202.13L133.261 203.58C128.406 212.893 115.387 244.666 115.247 244.994L114.827 245.976L113.845 246.305C112.676 246.68 85.042 255.969 54.0733 251.977L53.3249 251.884L52.7631 251.37C39.7009 239.222 17.2259 215.857 17.0386 215.624L16.1957 214.736L16.4284 213.566C19.7798 197.051 33.782 166.821 34.3887 165.511L34.9488 164.248L36.352 164.246C48.6997 163.532 82.4685 161.16 90.1828 157.691L91.7257 157.034L92.8495 158.249C105.727 172.503 132.603 200.541 132.884 200.868L134.008 202.083L134.008 202.13ZM111.409 242.285C113.602 236.997 123.541 212.805 128.443 202.93C123.339 197.603 102.175 175.406 90.5151 162.555C79.2929 166.261 45.4771 168.306 38.0403 168.735C35.4268 174.537 24.5059 198.965 21.246 213.328C25.4132 217.627 43.8613 236.692 55.4254 247.532C81.9029 250.78 106.312 243.833 111.409 242.285Z"
    fill="#231F20" />
  <path
    d="M39.662 12.6004C36.5781 15.7374 30.971 21.6365 26.8128 26.3649C26.2521 26.9735 25.7382 27.5821 25.271 28.1438C24.4767 29.0333 23.8226 29.7824 23.2621 30.5314C23.2621 30.5314 21.813 31.4683 19.3356 33.1078L19.1953 33.108C14.5679 36.3868 6.38806 42.1014 -1.55664 49.0787L-1.56656 39.1158C9.18147 29.0018 21.2412 20.8978 34.1918 14.9446C36.0151 14.1008 37.8386 13.3506 39.662 12.6004Z"
    fill="#F2F5F9" />
  <path
    d="M38.7715 10.4972C23.8097 16.546 10.2536 25.0724 -1.61617 36.0295L-1.6001 52.1666L-0.104624 50.8555C0.175789 50.6213 0.409428 50.3872 0.689842 50.153C6.53165 45.1424 12.4209 40.7865 16.8613 37.6014C17.8429 36.8988 18.731 36.2899 19.5723 35.7277C21.5823 34.3693 23.1248 33.3387 23.8727 32.8234C24.2467 32.636 24.4337 32.4955 24.4337 32.4955L24.9944 31.9804C25.3682 31.5123 25.7886 30.9505 26.2558 30.4356C26.9099 29.6865 27.564 28.9375 28.2648 28.0948C29.8066 26.4094 31.5354 24.4899 33.3577 22.5704C36.2546 19.4336 39.1516 16.4839 40.9272 14.6112C41.0674 14.4707 41.2076 14.377 41.301 14.2366L44.8056 10.6783L44.8055 10.6315L48.31 7.02638L49.0109 6.32409L38.7714 10.4504L38.7715 10.4972ZM0.726646 40.1433C9.46535 31.9958 19.1876 25.1571 29.7064 19.7208C29.1925 20.2826 28.6785 20.8444 28.2581 21.3593C25.9686 23.8407 23.8194 26.2751 22.1842 28.1945C21.9973 28.3817 21.8571 28.569 21.717 28.7562C20.5016 29.5058 16.4817 32.1759 11.2467 35.9699C10.6858 36.3446 10.1249 36.7662 9.61084 37.1877C9.04997 37.6092 8.48909 38.0307 7.97499 38.4522C6.80652 39.3421 5.63804 40.2319 4.42284 41.1686C3.20769 42.1521 2.03927 43.0888 0.777382 44.1191L0.773422 40.1432L0.726646 40.1433Z"
    fill="#231F20" />
  <path
    d="M193.551 60.9987C206.616 75.439 213.523 107.192 213.523 107.192C213.523 107.192 218.206 112.66 223.312 119.905C219.964 93.4339 208.713 67.953 190.123 47.2505C193.829 58.2856 193.551 60.952 193.551 60.952L193.551 60.9987Z"
    fill="#6162A8" />
  <path
    d="M226.782 128.788L221.442 121.263C216.477 114.205 211.794 108.784 211.794 108.737L211.42 108.316L211.279 107.755C211.232 107.428 204.325 76.4232 191.869 62.5904L191.167 61.796L191.259 60.8136C191.259 60.4394 191.162 57.4459 187.972 48.0475L184.407 37.48L191.852 45.7517C210.442 66.4074 222.115 91.9814 225.604 119.622L226.782 128.741L226.782 128.788ZM215.674 106.16C216.33 106.908 217.735 108.637 219.608 111.021C215.706 91.4265 207.502 73.0991 195.419 57.2546C195.701 58.564 195.795 59.4994 195.843 60.1542C207.971 74.2212 214.641 101.765 215.674 106.207L215.674 106.16Z"
    fill="#231F20" />
  <path
    d="M107.679 19.2195C130.557 24.7629 158.034 45.0824 158.034 45.0824C165.146 47.2269 193.598 61.0438 193.598 61.0438C193.598 61.0438 193.923 58.3774 190.17 47.3423C184.972 41.5943 179.261 36.1741 172.988 31.2223C148.459 12.0224 119.309 2.74338 90.3559 2.77222C92.1807 3.37847 93.6314 4.07862 94.6144 4.82603C101.823 10.4785 107.679 19.2663 107.679 19.2663L107.679 19.2195Z"
    fill="white" />
  <path
    d="M195.89 60.8088C195.89 60.8088 195.891 61.183 195.891 61.2765L195.52 64.5043L192.618 63.104C192.337 62.9639 164.306 49.3805 157.428 47.2825L156.726 46.909C156.445 46.7222 129.343 26.7765 107.167 21.4196L106.278 21.1866L105.762 20.4387C105.762 20.4387 100.047 11.8847 93.2131 6.55919C92.6982 6.18551 91.6685 5.53169 89.6565 4.87886L76.1343 0.401986L90.4004 0.387775C121.178 0.357117 150.235 10.3847 174.436 29.351C180.615 34.2094 186.514 39.7229 191.946 45.7514L192.415 46.546C195.511 55.7575 195.936 59.4523 195.937 60.8087L195.89 60.8088ZM159.108 42.9776C165.19 44.936 182.739 53.2444 190.694 57.0252C190.272 55.1079 189.474 52.349 188.16 48.4213C183.009 42.7199 177.438 37.5335 171.587 32.9554C150.428 16.3716 125.394 6.85456 98.7779 5.24397C103.787 9.82288 107.722 15.198 109.08 17.1612C130.883 22.7524 155.878 40.5953 159.108 42.9776Z"
    fill="#231F20" />
  <path
    d="M192.262 128.121C192.262 128.121 208.994 114.821 213.57 107.239C213.57 107.239 206.662 75.4858 193.598 61.0455C193.598 61.0455 165.192 47.2754 158.033 45.0841C158.033 45.0841 154.985 84.1438 155.41 87.6514C155.41 87.6514 186.972 124.01 192.215 128.121L192.262 128.121Z"
    fill="#90D8F3" />
  <path
    d="M215.956 107.611L215.489 108.407C210.772 116.269 194.368 129.383 193.667 129.898L192.265 131.022L190.86 129.901C185.477 125.696 154.992 90.5991 153.727 89.1503L153.259 88.6363L153.165 87.9348C152.694 84.3804 155.233 51.4487 155.741 44.8998L155.972 42.0463L158.733 42.8855C165.938 45.0767 193.455 58.38 194.625 58.9401L195.327 59.454C208.626 74.1746 215.533 105.413 215.861 106.722L216.049 107.611L215.956 107.611ZM192.305 125.081C196.278 121.803 207.074 112.718 211.09 106.774C209.869 101.583 203.248 75.4897 192.15 62.8248C189.014 61.3312 168.985 51.6688 160.095 48.2164C159.033 62.3901 157.463 82.3176 157.701 86.7141C166.083 96.3413 185.985 119.007 192.352 125.081L192.305 125.081Z"
    fill="#231F20" />
  <path
    d="M113.095 244.156C124.372 249.103 148.511 252.12 148.511 252.12C161.882 246.353 189.87 215.968 189.87 215.968C191.174 210.261 179.736 184.733 179.736 184.733C158.835 192.051 131.202 202.556 131.202 202.556C126.206 212.056 113.095 244.156 113.095 244.156Z"
    fill="#90D8F3" />
  <path
    d="M192.255 215.029C192.255 215.591 192.256 216.058 192.116 216.479L191.976 217.088L191.556 217.556C190.388 218.82 163.101 248.315 149.448 254.269L148.887 254.503L148.279 254.41C147.297 254.271 123.673 251.301 112.208 246.261L110.149 245.374L110.989 243.315C111.549 242.005 124.194 210.981 129.189 201.481L129.609 200.685L130.404 200.357C130.685 200.263 158.318 189.758 178.985 182.534L180.996 181.831L181.84 183.748C183.668 187.862 192.247 207.452 192.255 215.029ZM187.717 214.94C187.717 214.94 187.717 214.847 187.717 214.753C187.713 210.824 183.304 198.574 178.522 187.586C160.193 194.013 137.47 202.642 132.887 204.377C128.546 212.988 119.073 235.776 116.134 242.889C126.521 246.761 144.579 249.269 148.228 249.733C160.243 244.061 184.026 218.92 187.764 214.94L187.717 214.94Z"
    fill="#231F20" />
  <path
    d="M91.167 159.842C91.167 159.842 102.725 118.014 104.023 105.992C104.023 105.992 66.7662 81.4259 58.1101 78.5345C58.1101 78.5345 22.6355 105.839 15.9116 117.54C15.9116 117.54 31.4856 162.568 36.5412 166.539C36.5412 166.539 81.3955 164.249 91.1671 159.889L91.167 159.842Z"
    fill="#90D8F3" />
  <path
    d="M106.407 104.867L106.268 106.27C104.971 118.339 93.8318 158.764 93.3658 160.495L93.0862 161.524L92.1043 161.946C82.0523 166.446 38.5076 168.735 36.6367 168.784L35.7948 168.784L35.1395 168.317C29.8498 164.16 16.3875 125.912 13.7605 118.29L13.4321 117.308L13.9457 116.419C20.8096 104.438 55.2559 77.8356 56.7048 76.7115L57.6863 75.9622L58.856 76.3352C67.6993 79.32 103.786 103.045 105.331 104.073L106.501 104.867L106.407 104.867ZM89.2006 158.16C90.9716 151.75 99.7795 119.14 101.498 107.164C89.0013 98.944 66.2077 84.4667 58.3931 81.1535C52.7377 85.5559 25.1625 107.333 18.3439 117.818C25.4272 138.204 34.1022 160.039 37.3338 164.199C49.9154 163.532 80.1762 161.303 89.1538 158.16L89.2006 158.16Z"
    fill="#231F20" />
  <path
    d="M-1.4433 209.702C5.29398 211.473 12.5926 213.29 16.4286 213.801C17.5046 214.033 18.2531 214.079 18.7208 214.032C18.7208 214.032 19.4231 214.78 20.6405 216.041C26.072 221.649 41.8044 237.911 52.6662 248.144C53.2281 248.704 53.7899 249.218 54.3049 249.686C54.3049 249.686 54.3049 249.686 54.2114 249.826C54.2114 249.826 54.118 249.92 54.0713 249.966C54.0245 250.013 53.9779 250.107 53.8843 250.154C53.604 250.435 53.2302 250.856 52.7162 251.371C51.5481 252.635 49.7725 254.461 47.8567 256.381C47.2491 256.943 46.6417 257.551 46.1277 258.113C44.7258 259.471 43.2771 260.782 42.0154 261.953C41.2199 261.626 40.4244 261.299 39.6289 260.973C28.3985 256.4 17.6343 250.237 7.61672 242.388C4.43359 239.913 1.39069 237.343 -1.46529 234.586L-1.49013 209.655L-1.4433 209.702Z"
    fill="#90D8F3" />
  <path
    d="M51.0779 249.829C50.797 249.549 50.516 249.269 50.2351 248.988C50.4693 249.315 50.797 249.596 51.0779 249.876L51.0779 249.829ZM51.0779 249.829C50.797 249.549 50.516 249.269 50.2351 248.988C50.4693 249.315 50.797 249.596 51.0779 249.876L51.0779 249.829ZM51.0779 249.829C50.797 249.549 50.516 249.269 50.2351 248.988C50.4693 249.315 50.797 249.596 51.0779 249.876L51.0779 249.829ZM51.0779 249.829C50.797 249.549 50.516 249.269 50.2351 248.988C50.4693 249.315 50.797 249.596 51.0779 249.876L51.0779 249.829ZM51.0779 249.829C50.797 249.549 50.516 249.269 50.2351 248.988C50.4693 249.315 50.797 249.596 51.0779 249.876L51.0779 249.829ZM51.0779 249.829C50.797 249.549 50.516 249.269 50.2351 248.988C50.4693 249.315 50.797 249.596 51.0779 249.876L51.0779 249.829ZM-1.41497 237.814C0.832245 239.87 3.3602 242.019 6.21567 244.261C15.8119 251.782 26.3892 258.039 37.6665 262.752C38.8832 263.266 40.0062 263.732 41.176 264.152L42.4862 264.665L43.5611 263.729C43.8882 263.448 44.2153 263.167 44.5424 262.839C45.15 262.324 45.8042 261.715 46.4117 261.153C47.5332 260.03 48.6547 258.953 49.7762 257.829C50.4304 257.173 51.0846 256.565 51.6452 255.909C52.0191 255.535 52.3461 255.16 52.72 254.832C53.7947 253.709 54.6825 252.772 55.2899 252.117C55.7571 251.602 56.0375 251.321 56.0842 251.274L57.2055 250.01L57.626 249.542L55.9874 248C55.9874 248 55.6596 247.673 55.4723 247.486C52.5696 244.776 49.2454 241.552 45.8276 238.188C44.9848 237.347 44.142 236.505 43.2524 235.618C42.3628 234.73 41.5201 233.935 40.6773 233.048C39.7877 232.16 38.9449 231.319 38.1021 230.478C36.5102 228.889 34.965 227.3 33.5135 225.805C32.5771 224.87 31.7343 223.982 30.8915 223.141C26.4903 218.655 22.9318 215.01 21.3866 213.375C20.8247 212.814 20.5438 212.534 20.497 212.487L19.6543 211.693L19.3736 211.693L18.5786 211.787C18.5786 211.787 17.8302 211.788 17.0349 211.648C15.3039 211.37 12.1226 210.718 6.88263 209.46C5.99373 209.274 5.10478 209.041 4.07547 208.761C3.09297 208.528 2.06366 208.249 0.940747 207.923C0.379361 207.83 -0.18212 207.643 -0.743552 207.503L-1.3518 207.317L-1.32147 237.767L-1.41497 237.814ZM0.872869 233.695L0.851995 212.74C1.5538 212.927 2.16205 213.113 2.81703 213.253C2.91058 213.253 3.00413 213.253 3.09768 213.253C4.64165 213.672 6.04526 214.045 7.26167 214.324C7.96347 214.511 8.57168 214.65 9.17989 214.79C10.1156 215.023 10.8641 215.163 11.6127 215.349C12.6887 215.582 13.5776 215.768 14.373 215.908C14.5133 215.907 14.7005 216.001 14.8408 216.001C16.1508 216.28 17.0863 216.373 17.6945 216.419C17.9286 216.699 18.2563 217.026 18.6309 217.4C18.9587 217.727 19.3332 218.101 19.7546 218.522C20.8784 219.69 22.283 221.138 23.875 222.774C24.9051 223.802 25.9352 224.877 27.1057 226.045C28.885 227.914 30.8515 229.923 32.9116 231.98C33.8481 232.961 34.7845 233.895 35.8145 234.877C36.751 235.858 37.7342 236.839 38.7643 237.867L41.4331 240.531C43.4932 242.587 45.5065 244.549 47.5197 246.465C48.1752 247.119 48.8306 247.727 49.3924 248.241C49.7201 248.521 50.0011 248.801 50.282 249.082C50.5162 249.409 50.8439 249.689 51.1248 249.97C49.0222 252.217 45.0037 256.384 41.639 259.427C29.8472 254.762 19.036 248.458 9.11219 240.75C5.97589 238.321 3.30747 236.032 0.919737 233.789L0.872869 233.695ZM51.0779 249.876C50.797 249.596 50.5161 249.315 50.2352 249.035C50.4694 249.362 50.7971 249.642 51.078 249.923L51.0779 249.876ZM51.0779 249.876C50.797 249.596 50.5161 249.315 50.2352 249.035C50.4694 249.362 50.7971 249.642 51.078 249.923L51.0779 249.876ZM51.0779 249.876C50.797 249.596 50.5161 249.315 50.2352 249.035C50.4694 249.362 50.7971 249.642 51.078 249.923L51.0779 249.876ZM51.0779 249.876C50.797 249.596 50.5161 249.315 50.2352 249.035C50.4694 249.362 50.7971 249.642 51.078 249.923L51.0779 249.876ZM51.0779 249.876C50.797 249.596 50.5161 249.315 50.2352 249.035C50.4694 249.362 50.7971 249.642 51.078 249.923L51.0779 249.876Z"
    fill="#231F20" />
  <path
    d="M58.628 34.5206C58.628 34.5206 95.1888 17.5986 107.679 19.2232C107.679 19.2232 101.824 10.4355 94.6147 4.78297C93.6317 4.03556 92.181 3.33538 90.3562 2.72913C73.0497 2.74637 55.7932 6.08454 39.6626 12.649C35.5974 16.816 26.9531 25.8521 23.2626 30.58C23.2626 30.58 48.2852 28.8712 58.6748 34.5205L58.628 34.5206Z"
    fill="#90D8F3" />
  <path
    d="M112.359 22.1646L107.354 21.5147C97.6703 20.2147 69.5706 31.9831 59.6122 36.6236L58.5837 37.0924L57.5541 36.5322C47.8665 31.2563 23.639 32.8708 23.4051 32.871L18.2602 33.2035L21.4369 29.131C25.1273 24.4031 33.3978 15.7416 38.0237 11.0128L38.8184 10.4975C55.2295 3.79239 72.5794 0.407346 90.4005 0.389595L91.1022 0.482429C93.2545 1.1819 94.8925 2.02223 96.0627 2.90978C103.506 8.70239 109.361 17.5369 109.642 17.864L112.453 22.0709L112.359 22.1646ZM58.6721 31.9471C64.0954 29.4627 89.2022 18.3522 103.186 16.935C100.892 13.9905 97.2389 9.73766 93.2131 6.56101C92.745 6.18728 91.8089 5.62692 89.9841 5.02067C73.0986 5.03749 56.5904 8.28137 40.9741 14.6115C38.0771 17.6079 32.47 23.4603 28.3584 28.0951C36.1228 27.9002 50.5296 28.1665 58.6721 31.9939L58.6721 31.9471Z"
    fill="#231F20" />
</svg>