<svg width="232" height="441" viewBox="0 0 232 441" fill="none" xmlns="http://www.w3.org/2000/svg">
  <path
    d="M230.784 439.018L90.9528 72.4192C90.9528 72.4192 90.9671 72.3632 90.9319 72.3841L89.5429 68.6921L85.208 23.3731L83.8289 8.83026C83.6399 6.75473 86.2999 5.7896 87.4857 7.46206L96.1016 19.2195L97.3434 20.9061L118.476 49.6145L121.915 54.274L123.094 55.8553L124.414 59.3508L262.113 420.369L230.784 439.018Z"
    fill="#90D8F3" />
  <path
    d="M232.506 437.993L93.6609 73.8515L92.6332 71.0861L91.5218 68.1802L91.4883 67.7244L87.5732 26.6268L87.37 24.6073L87.2019 22.5669L85.842 8.53574L94.2278 19.9067L95.4279 21.5232L96.6279 23.1395L120.035 54.8702L121.13 56.311L121.402 56.7676L122.027 58.2979L122.437 59.3858L123.402 62.0459L260.462 421.352L263.869 419.324L125.142 55.5399L124.892 54.8801L123.818 53.4744L98.0954 18.4131L89.0957 6.17073C88.0002 4.72991 86.1655 4.20484 84.488 4.82284C84.2564 4.91316 84.0456 5.03856 83.87 5.14309C82.5354 5.93753 81.8155 7.36505 81.9643 8.89369L83.4045 24.0186L83.6621 26.529L87.6784 68.7555L88.0463 69.7733L229.113 439.965L232.52 437.937L232.506 437.993Z"
    fill="#231F20" />
  <path
    d="M246.45 429.693L107.48 65.3404L107.459 65.3053L106.341 62.3083L108.159 61.6066L108.622 61.4259L121.081 56.6258L121.208 56.5983L123.131 55.8339L124.45 59.3293L262.114 420.369L246.45 429.693Z"
    fill="#33A4DD" />
  <path
    d="M248.205 428.648L110.103 66.6329L109.138 63.9728C109.138 63.9728 109.103 63.9937 109.117 63.9377L108.874 63.369L110.762 62.6256L120.533 58.9026L122.014 58.354L122.423 59.4419L123.388 62.1019L260.449 421.408L263.855 419.38L125.129 55.596L124.878 54.9362L124.288 53.385L123.825 53.5656L121.972 54.2881L120.063 54.9965L107.512 59.8033L106.677 60.1579L105.694 60.5049L104.747 60.8311L103.912 61.1857L104.328 62.3647L105.46 65.3058L106.496 67.924L244.84 430.746L248.282 428.698L248.205 428.648Z"
    fill="#231F20" />
  <path
    d="M89.5775 68.6713C89.5775 68.6713 101.415 81.3652 106.353 62.253C121.883 73.3195 123.129 55.8346 123.129 55.8346L97.3713 20.7942L85.4249 25.3368L89.5357 68.6011L89.5775 68.6713Z"
    fill="#B9B7D9" />
  <path
    d="M83.3553 24.0955L98.0814 18.4691L125.122 55.2664L125.064 55.9671C125.035 56.3175 124.263 64.5302 118.842 67.0908C115.725 68.566 111.921 67.9289 107.458 65.3057C105.659 70.5146 103.048 73.6389 99.6451 74.4752C93.8149 75.9479 88.3884 70.1879 88.1509 69.9488L87.7111 69.4495L83.3695 24.0395L83.3553 24.0955ZM96.705 23.1888L87.524 26.7037L91.439 67.8012C92.9134 69.1592 96.0317 71.4413 98.6767 70.7706C101.104 70.1342 103.078 67.0569 104.435 61.8254L105.131 59.0799L107.453 60.7424C110.334 62.7853 114.343 64.9652 117.144 63.6782C119.77 62.4957 120.765 58.5738 121.052 56.5L96.6556 23.2658L96.705 23.1888Z"
    fill="#231F20" />
  <path
    d="M85.4694 25.4065L89.5802 68.6707C89.5802 68.6707 101.417 81.3646 106.356 62.2523L91.4216 23.1L85.4485 25.3713L85.4694 25.4065Z"
    fill="#A19ECB" />
  <path
    d="M83.3564 24.0954L92.5373 20.5806L108.381 62.1404L108.225 62.7567C106.47 69.557 103.589 73.5074 99.611 74.4959C93.7808 75.9686 88.3544 70.2086 88.1169 69.9695L87.677 69.4702L83.3354 24.0602L83.3564 24.0954ZM90.2695 25.6407L87.5251 26.7036L91.4401 67.801C92.9144 69.1591 96.0327 71.4411 98.6777 70.7704C101.014 70.1407 102.931 67.2875 104.315 62.4206L90.2904 25.6757L90.2695 25.6407Z"
    fill="#231F20" />
</svg>