<svg width="276" height="403" viewBox="0 0 276 403" fill="none" xmlns="http://www.w3.org/2000/svg">
  <g filter="url(#filter0_d_795_369)">
    <g opacity="0.24">
      <path
        d="M253.276 95.7419C272.04 140.808 250.698 192.532 205.632 211.296C160.567 230.059 108.842 208.718 90.0782 163.652C71.3145 118.586 92.6565 66.8615 137.722 48.0979C182.788 29.3343 234.512 50.6763 253.276 95.7419Z"
        fill="#2A3791" />
      <path
        d="M242.055 186.478C232.694 198.088 220.575 207.242 206.413 213.149C184.11 222.439 159.571 222.457 137.231 213.285C114.908 204.072 97.5152 186.736 88.2259 164.432C78.9366 142.129 78.9183 117.59 88.0906 95.2499C97.3033 72.9269 114.64 55.5341 136.943 46.2448C159.246 36.9555 183.785 36.9372 206.125 46.1096C228.448 55.3222 245.841 72.6585 255.148 94.9215C264.437 117.225 264.455 141.764 255.283 164.104C251.921 172.229 247.483 179.754 242.113 186.455L242.055 186.478ZM104.456 75.4471C85.2637 99.3242 79.337 132.696 91.9154 162.912C110.24 206.887 160.918 227.784 204.893 209.46C248.868 191.136 269.765 140.457 251.441 96.4821C242.585 75.1714 225.924 58.5743 204.607 49.7898C183.29 41.0054 159.791 41.0382 138.48 49.8941C124.721 55.6398 113.193 64.5218 104.473 75.4068L104.456 75.4471Z"
        fill="#231F20" />
    </g>
    <path d="M193.098 216.919L217.963 274.513L244.471 263.069L219.606 205.475L193.098 216.919Z"
      fill="#66C9CF" />
    <path
      d="M247.158 264.097L216.99 277.123L190.526 215.85L220.695 202.824L247.158 264.097ZM219.078 271.879L241.954 262.025L218.664 208.045L195.788 217.899L219.078 271.879Z"
      fill="#231F20" />
    <path
      d="M132.672 40.8619C83.2936 62.1642 60.5704 119.482 81.8728 168.86C103.175 218.239 160.493 240.962 209.871 219.66C259.25 198.357 281.973 141.04 260.671 91.6612C239.368 42.2827 182.051 19.5595 132.672 40.8619ZM204.456 207.134C161.894 225.489 112.512 205.905 94.1566 163.342C75.8017 120.78 95.3863 71.3979 137.949 53.0429C180.511 34.6879 229.893 54.2726 248.248 96.8348C266.603 139.397 247.018 188.779 204.456 207.134Z"
      fill="#313D94" />
    <path
      d="M248.55 192.664C238.754 204.85 225.942 214.85 210.611 221.496C160.297 243.209 101.731 219.954 80.0187 169.641C58.3061 119.327 81.5602 60.7615 131.874 39.0488C182.188 17.3362 240.753 40.5903 262.466 90.9041C277.573 125.904 270.931 164.867 248.533 192.704L248.55 192.664ZM97.0659 70.3538C75.5779 97.0573 69.2137 134.474 83.6851 168.063C104.548 216.351 160.762 238.652 209.073 217.847C257.361 196.984 279.662 140.77 258.857 92.4587C237.994 44.1704 181.78 21.8694 133.469 42.6749C118.746 49.0091 106.461 58.6628 97.0659 70.3538ZM238.102 184.035C229.45 194.759 218.295 203.324 205.253 208.947C184.173 218.044 160.829 218.381 139.513 209.929C118.198 201.478 101.439 185.22 92.3428 164.14C83.2463 143.06 82.9094 119.716 91.3607 98.4004C99.812 77.0846 116.07 60.3264 137.15 51.2299C158.231 42.1333 181.574 41.7965 202.89 50.2478C224.206 58.6991 240.964 74.9571 250.06 96.0373C259.157 117.118 259.494 140.461 251.042 161.777C247.818 169.913 243.438 177.415 238.102 184.035ZM107.416 78.6557C102.337 85.0049 98.1683 92.1214 95.0581 99.8784C86.9776 120.211 87.3058 142.457 96.0092 162.562C104.672 182.65 120.659 198.152 140.991 206.232C161.324 214.313 183.57 213.984 203.675 205.281C223.763 196.618 239.265 180.631 247.345 160.299C255.426 139.966 255.097 117.72 246.394 97.6151C237.731 77.5275 221.744 62.0256 201.412 53.9451C181.079 45.8646 158.833 46.1929 138.728 54.8963C126.318 60.2651 115.626 68.4096 107.416 78.6557Z"
      fill="#231F20" />
    <path
      d="M284.423 390.153L284.021 390.315C272.792 395.14 259.774 389.982 254.948 378.753L206.547 266.69C201.722 255.462 206.88 242.443 218.109 237.617L218.511 237.456C229.739 232.63 242.758 237.788 247.583 249.017L295.984 361.08C300.81 372.309 295.651 385.327 284.423 390.153Z"
      fill="#7FD3F2" />
    <path
      d="M294.434 384.951C292.046 387.881 288.962 390.325 285.221 391.966L284.82 392.128C272.598 397.387 258.395 391.772 253.096 379.533L204.695 267.471C199.436 255.249 205.068 241.006 217.289 235.747L217.691 235.585C229.912 230.326 244.115 235.941 249.415 248.179L297.816 360.242C301.474 368.74 299.879 378.187 294.434 384.951ZM283.643 388.299C293.839 383.89 298.559 372.016 294.149 361.82L245.748 249.757C243.621 244.811 239.682 240.996 234.68 239.01C229.677 237.024 224.215 237.125 219.269 239.252L218.867 239.413C208.671 243.823 203.952 255.697 208.361 265.893L256.762 377.956C261.172 388.151 273.046 392.871 283.242 388.461L283.643 388.299Z"
      fill="#231F20" />
    <g style="mix-blend-mode:multiply" opacity="0.33">
      <path
        d="M275.456 369.888L227.055 257.825C223.807 250.263 225.077 241.913 229.697 235.749C225.985 235.311 222.155 235.821 218.489 237.399L218.087 237.56C206.858 242.386 201.682 255.445 206.525 266.633L254.926 378.696C259.752 389.925 272.811 395.101 283.999 390.258L284.401 390.096C288.067 388.518 291.071 386.04 293.28 383.082C285.661 382.217 278.664 377.433 275.416 369.871L275.456 369.888Z"
        fill="#454B9B" />
      <path
        d="M294.393 384.934C291.954 387.985 288.79 390.394 285.181 391.949L284.779 392.111C272.558 397.37 258.355 391.755 253.055 379.516L204.654 267.454C199.395 255.232 205.027 240.989 217.249 235.73L217.65 235.568C221.489 233.921 225.704 233.29 229.869 233.779L233.323 234.154L231.239 236.929C226.871 242.724 225.972 250.424 228.827 257.011L277.188 369.056C280.026 375.683 286.288 380.297 293.47 381.071L296.923 381.447L294.839 384.221C294.696 384.445 294.513 384.652 294.33 384.86L294.393 384.934ZM211.15 245.259C206.616 250.888 205.241 258.813 208.321 265.876L256.722 377.939C261.131 388.135 273.005 392.854 283.201 388.444L283.603 388.283C285.76 387.346 287.756 386.008 289.498 384.373C282.462 382.472 276.526 377.427 273.602 370.668L225.241 258.623C222.334 251.824 222.682 244.079 226.146 237.614C223.762 237.741 221.443 238.275 219.286 239.212L218.884 239.373C215.791 240.72 213.172 242.743 211.208 245.235L211.15 245.259Z"
        fill="#231F20" />
    </g>
    <path
      d="M257.953 154.924C271.751 106.74 243.869 56.511 195.668 42.7536C147.484 28.9559 97.2554 56.8376 83.498 105.039C69.7003 153.222 97.5819 203.451 145.783 217.208C193.967 231.006 244.195 203.125 257.953 154.924ZM204.439 207.175C161.877 225.53 112.495 205.945 94.1397 163.383C75.7847 120.821 95.3693 71.4385 137.932 53.0835C180.494 34.7285 229.876 54.3132 248.231 96.8754C266.586 139.438 247.001 188.82 204.439 207.175Z"
      fill="white" />
    <path
      d="M243.047 187.945C220.356 216.134 182.141 229.635 145.23 219.065C121.408 212.257 101.688 196.593 89.6546 174.929C77.6212 153.265 74.7697 128.233 81.5774 104.412C95.6482 55.2505 147.053 26.7281 196.214 40.799C245.375 54.8698 273.897 106.274 259.826 155.435C256.343 167.645 250.53 178.626 243.006 187.928L243.047 187.945ZM101.529 74.3919C94.3546 83.3199 88.7873 93.8348 85.4289 105.527C78.9115 128.332 81.6568 152.272 93.1419 172.99C104.627 193.708 123.525 208.736 146.329 215.254C193.374 228.71 242.599 201.4 256.055 154.354C269.511 107.308 242.201 58.0833 195.155 44.6273C159.802 34.5298 123.234 47.4006 101.529 74.3919ZM238.102 184.035C229.451 194.759 218.295 203.324 205.253 208.948C184.173 218.044 160.83 218.381 139.514 209.93C118.198 201.478 101.44 185.22 92.3433 164.14C83.2468 143.06 82.9099 119.716 91.3612 98.4005C99.8125 77.0847 116.071 60.3265 137.151 51.23C158.231 42.1334 181.575 41.7966 202.89 50.2479C224.206 58.6992 240.964 74.9572 250.061 96.0375C259.157 117.118 259.494 140.461 251.043 161.777C247.819 169.913 243.438 177.415 238.102 184.035ZM107.416 78.6559C102.338 85.005 98.1688 92.1215 95.0586 99.8785C86.9781 120.211 87.3063 142.457 96.0097 162.562C104.673 182.65 120.659 198.152 140.992 206.232C161.324 214.313 183.571 213.984 203.676 205.281C223.763 196.618 239.265 180.632 247.346 160.299C255.426 139.966 255.098 117.72 246.394 97.6153C237.731 77.5276 221.745 62.0257 201.412 53.9452C181.08 45.8647 158.833 46.193 138.729 54.8964C126.318 60.2652 115.626 68.4097 107.416 78.6559Z"
      fill="#231F20" />
    <g opacity="0.57">
      <path
        d="M125.591 83.2034C141.928 70.6153 165.384 73.7017 177.932 90.0225C190.52 106.36 187.434 129.816 171.113 142.364C154.775 154.952 131.319 151.866 118.771 135.545C106.183 119.207 109.27 95.7512 125.591 83.2034Z"
        fill="white" />
      <path
        d="M179.062 137.426C177.133 139.838 174.858 142.056 172.37 143.992C164.041 150.384 153.726 153.174 143.314 151.834C132.902 150.495 123.634 145.125 117.225 136.836C103.997 119.655 107.241 94.9352 124.381 81.6902C141.562 68.4623 166.299 71.6659 179.527 88.8466C185.919 97.1761 188.709 107.491 187.369 117.903C186.423 125.155 183.563 131.877 179.062 137.426ZM120.797 90.672C110.801 103.106 110.187 121.196 120.309 134.392C126.061 141.879 134.391 146.659 143.757 147.887C153.124 149.115 162.417 146.603 169.863 140.834C177.35 135.081 182.13 126.751 183.358 117.385C184.586 108.019 182.074 98.7256 176.305 91.2791C164.437 75.8181 142.171 72.9527 126.71 84.8204C124.446 86.5668 122.469 88.5308 120.74 90.6951L120.797 90.672Z"
        fill="#6162A8" />
    </g>
  </g>
  <defs>
    <filter id="filter0_d_795_369" x="67.8833" y="30.9136" width="235.907" height="371.187"
      filterUnits="userSpaceOnUse" color-interpolation-filters="sRGB">
      <feFlood flood-opacity="0" result="BackgroundImageFix" />
      <feColorMatrix in="SourceAlpha" type="matrix"
        values="0 0 0 0 0 0 0 0 0 0 0 0 0 0 0 0 0 0 127 0" result="hardAlpha" />
      <feOffset dy="4" />
      <feGaussianBlur stdDeviation="2" />
      <feComposite in2="hardAlpha" operator="out" />
      <feColorMatrix type="matrix" values="0 0 0 0 0 0 0 0 0 0 0 0 0 0 0 0 0 0 0.25 0" />
      <feBlend mode="normal" in2="BackgroundImageFix" result="effect1_dropShadow_795_369" />
      <feBlend mode="normal" in="SourceGraphic" in2="effect1_dropShadow_795_369" result="shape" />
    </filter>
  </defs>
</svg>